/* XPM */
static char *_7b924fd00324a7faed25eaa2348e56eGipkkTyDIfWC6eBo[] = {
/* columns rows colors chars-per-pixel */
"50 50 108 2 ",
"   c #3A2C21",
".  c #443427",
"X  c #4B392A",
"o  c #543E2C",
"O  c #57402E",
"+  c #59422E",
"@  c #564332",
"#  c #5D4531",
"$  c #5C4835",
"%  c #604733",
"&  c #644A35",
"*  c #684D37",
"=  c #654E39",
"-  c #684E39",
";  c #6D523B",
":  c #73563E",
">  c #75583F",
",  c #5D4F45",
"<  c #645447",
"1  c #6F5641",
"2  c #6F5947",
"3  c #6F5D4E",
"4  c #715741",
"5  c #765941",
"6  c #7B5D43",
"7  c #725C4A",
"8  c #7F6045",
"9  c #7C6049",
"0  c #6C6057",
"q  c #6E655D",
"w  c #786351",
"e  c #70655B",
"r  c #77695D",
"t  c #7C6A5B",
"y  c #696664",
"u  c #6E6863",
"i  c #6D6C6C",
"p  c #776D63",
"a  c #7C6E62",
"s  c #706D69",
"d  c #7F7266",
"f  c #7E7A77",
"g  c #816247",
"h  c #846549",
"j  c #88674A",
"k  c #87684B",
"l  c #8D6D4E",
"z  c #906E4F",
"x  c #816750",
"c  c #846A53",
"v  c #8B6E53",
"b  c #906F50",
"n  c #8B7057",
"m  c #8D745E",
"M  c #917050",
"N  c #937151",
"B  c #947252",
"V  c #967253",
"C  c #977353",
"Z  c #967454",
"A  c #997454",
"S  c #997655",
"D  c #9B7756",
"F  c #9C7756",
"G  c #9D7857",
"H  c #9E7957",
"J  c #92765C",
"K  c #9F7B5A",
"L  c #9C7B5D",
"P  c #A07B59",
"I  c #A17B59",
"U  c #A17C59",
"Y  c #A27C5A",
"T  c #A47E5B",
"R  c #A57E5B",
"E  c #A57E5C",
"W  c #A67F5C",
"Q  c #877360",
"!  c #8C7865",
"~  c #8C7967",
"^  c #80756C",
"/  c #80766E",
"(  c #8C7968",
")  c #957B64",
"_  c #967D66",
"`  c #817972",
"'  c #837E7A",
"]  c #A7805D",
"[  c #A8815D",
"{  c #AB835E",
"}  c #AB835F",
"|  c #AC8460",
" . c #AD8460",
".. c #AE8561",
"X. c #AF8661",
"o. c #B08762",
"O. c #B18762",
"+. c #B18862",
"@. c #B18863",
"#. c #B28862",
"$. c #B28863",
"%. c #B28963",
"&. c #868685",
"*. c #878685",
"=. c #888786",
"-. c #878788",
";. c #888889",
":. c #888989",
/* pixels */
"= 4 4 & $ $ $ $ $ @ X X X X X @ ; 4 4 $ $ $ $ $ # X X X X X X       . X X X X X $ 4 4 & X X @ ; 4 = ",
"K %.o.S v b M b b g : : : : : j %.%.} v l M M v l 6 : > > : > # o o * : : 5 : : z o.o.S : : k o.%.Y ",
"K %.X.S l l z b z g : : : : : j o.o.} l l l z v l > : : : : : + o o * : : : : : v $.o.C : : k %.%.L ",
"k V V b M l g > 5 : : : : : : h Y I L ! ~ m 6 5 > : : > k l l 5 ; ; : : : h l l C Y W j * & ; k k 6 ",
"* : : k l l ; o o & : : : : 5 6 l z m *.=.f @ o o : : 6 R X.o.S b l 6 : : C o.%.I z l 6 o o o o o X ",
"* : : k M b ; o o & 5 : : : : 6 l z m =.:.f @ o o - : 5 R %.o.S l l 6 5 : C %.%.I z z 6 o o o o o X ",
"6 j j k h k ; # # & * * > j j j k k c ^ ^ p & # * h j j V S S l j h 6 : : g b z j 6 6 5 > : ; # % + ",
"K o.} h : : : : : & o o 6 o.o.S : : : : 5 : : : 6 R o.} g : : : : : : : : & o o o o o 6 X.X.K : : * ",
"K %.o.h 4 : : 4 : & o o 6 %.%.F > : : : : : : : 6 R o. .g : : : : : : : : # o o o o o 6 X.o.I > : * ",
"V W W h 2 7 6 h g ; # + 6 } } M - - - : : : g h k R W R h 6 6 : : : 6 6 6 = + # % ; * h ] } V : : * ",
"h z v p i i ) o.{ l : : 6 M b 6 o o # : : 6 } o.{ C z z l l l 6 : : k l l 6 : : l { } Y M l h > 4 ; ",
"g b v p i i _ %.o.l : : 6 V M 6 o o + : : g } %.X.z z z z z l 6 : : k l z g : : M %.%.R z M j : : * ",
"g b l r u u J } { b 6 g g h h 5 * % & : : 6 I W Y z z z h h h 6 : : h v n 8 : : l } } S h h 6 : : * ",
"h b z 6 4 5 k M b I  .X.j o O ; j l k : : : : > 6 l l j & o + - : : q i i 7 : : g b M 6 + + & : 5 * ",
"h n z 6 : : h l z I o.o.j o o - l z j : : : : : > l b l # o o : : : q i i 0 : : g l M 6 o o + : : * ",
"8 j l > : ; h l z G X.X.j + o ; l z j : : ; ; : : h j h % + + - : : 0 y y 3 : : g l l 5 + + & 6 6 : ",
"; 5 6 % + o 6 b M M V M k ; ; 6 z z g + + + + o + # # # - : : : : : & @ @ = : 5 : 5 5 : ; ; g { ] Z ",
"* : : # o o 6 z l l l l g : 5 6 l b g + o o o o o o o o ; : : : : : # o o * : : : : : : : : h { %.K ",
"; 5 : % o + 6 l l l l l h 5 5 9 l l 6 # + + # + + + # # : : : : 6 5 & + # * : : : : : : : : h { X.G ",
"V R R 6 ; ; : 6 5 6 6 5 t ' ' d 6 6 : ; - 5 S K I I G F 6 : : V R R R G G h : : g j l h : : 8 V Z k ",
"K %.X.k : : : : : : : : t :.:.^ : : : : : g } o.%.o.%.} 6 : : R o.%.o.o.o.l : : g z z k : : 6 l l 8 ",
"S o.} h : : : : 5 > > : t *.:.^ 4 : : : : 8 } X.} %.} } 6 : : I o.X.o.o.o.l : : g l l h : : 6 z z h ",
"5 g g 6 : : l I I K I I F m m n j j g > : 5 g g k V V V * + # j C S C C C h : : : 6 6 g j j j z n h ",
"* : : : : : S %.X.%.%.X.Y z z v z z j > : : : : 5 j l l % o o g z l z z l g : : : : : 6 z z z v M 8 ",
"* : : : : : V %.o.o.o.o.I l z z l M j > : : : : 5 l z l % o + g z l z z l g : : : : : 6 l z z z M 8 ",
"6 h h 6 : : g j j z S F l 6 6 g l l j > : ; % % % 6 6 6 6 6 8 j z l h 6 6 > : : : : : ; = * ; 6 8 > ",
"g b v 6 : : : : : g z z g : : 6 V l j > : ; o o + ; : > j M z l z z 6 : : : : : : : : * O o # : : = ",
"g z b 6 : : : : : g z z k : : 6 l z j : : ; O o + ; : > l n l z l z g : : : : : : : : & o O # : : = ",
": g g g g h ; % % : g 6 6 : : : ; ; ; # % % * & * : : : 6 g g 8 g 6 > : : k V Z V V Z h * & ; g h > ",
"= : : j b l - o o & : : : : : * O o o o o + : : : : : : : : : : : : : : : V %.%.%.%.%.V : : 6 z z h ",
"* : : j z l ; o o & : : : : : * o + o o o O : : : : : : : : : : : : : : : V %.} X.X.o.Z : : 8 z z 8 ",
"* : : k z z > % % 6 z z z l z g & $ - 8 8 g 8 g 6 * & * j z z l z z : & & h U K Y Y R J a a t 8 h 5 ",
"* : : j l l 8 : : M @.o.o.o.%.F : : g { $.o.b b j # o o K o.o.o.o.o.: o o : z l z l l ! -.-.` 4 > * ",
"* 5 : j M l 8 : : V o.%.o.o.o.F : : g o.$.R b l j # o # I o.o.o.%.o.: o o 6 z z l z l ! -.:.` 5 > - ",
": g 8 g h h 6 : : j } I I R W F j z z S A b b z j < , < V W I R R I 6 # % ; 6 6 h b l n ^ ^ r - * + ",
"g z v 6 : : : : : g l M b z z S o.o.I : 5 6 l z v s i s v v b l l z 6 : : % o o ; b b j : : * o o X ",
"h l l 6 : : > : : h M l l l l G o.o.I : : 5 l z v s i i v b z z z l 6 : : % o o : z z h : : - o O X ",
"6 k k : * ; > 6 6 g k h j b l Z W R F j h h k h j e e e x j j j k h 6 : : - # # : j j j j h g : ; * ",
"* : : # o o 6 l l g : : g z M l z z S { o.R 6 : 5 4 : 4 4 : : : : : : : : : : : : : : j o.o.} } X.G ",
"* 5 : # o o 5 z l g : : 8 b l b v z C o.o.R 5 : : : : : : : : : : : : : : : : : : : : j o.%.o.o.X.K ",
"- : : & & % 6 j j 8 : : 6 j j j j j M { { K 6 6 6 : : : ; ; ; 6 g g 5 * ; : : : 6 6 g l ] } R { } V ",
"- : : g l l 6 : > > : : 5 7 7 7 : : 6 z M l l l j : : : + o + V } } : o o & : : z } X.I z M M z z h ",
"- : : k z l 6 : : : : : 4 2 2 4 : : 6 l z l z z l > : : + o O V %.o.: o o & : : z o.o.R l b b z l h ",
"; 6 6 k l j 6 : ; 5 6 6 6 4 2 2 ; ; 6 j l j k k h 8 6 6 * & & V W W 6 # # * : : l R R K b l z z l h ",
"6 l l 6 : 5 & o O g } } b 4 4 * + + # : > ; # + & I } } } W Y h 6 6 g j j 8 : : > 5 6 g z l b l z h ",
"k z l 6 : : % o o h o.o.V 4 : * o o # : : ; O o $ R o.o.%.o.X.h : : k b z 6 : : : : : 8 l b l b z h ",
"g z v 6 : : & # # h X.X.V 5 6 * + o $ 5 6 4 + O % R } } } X.} g : : h l l g : : > 5 5 8 j l l j l 6 ",
"h z l 6 : : z R Y S V V z j l g ; : 7 ' ' f : ; : l V V V V M 6 : : 5 5 > h l l j l j g 6 5 : # % o ",
"h l l 6 : : S %.%.K l l z z b k : : w =.:.' 4 4 6 j l b l b l 6 : : : : : h z l z z z h : : - o o X ",
"h z l 6 : : S %.o.G l z b l l h : : 9 *.:.' 5 4 5 l b l b l l 6 : : : : : h l z l z l h : : - o o X "
};
