/* XPM */
static char *edf5396e1ba94a61a1300d0fc6547c7bUnW5QMM7Xg9wHupZ[] = {
/* columns rows colors chars-per-pixel */
"50 50 115 2 ",
"   c #553D2B",
".  c #593F2D",
"X  c #57402C",
"o  c #5A412E",
"O  c #5E4531",
"+  c #5C4938",
"@  c #614632",
"#  c #654A35",
"$  c #694D37",
"%  c #6A4F38",
"&  c #6D523A",
"*  c #73573E",
"=  c #75583F",
"-  c #795B3F",
";  c #5E5143",
":  c #685545",
">  c #6F5A47",
",  c #735740",
"<  c #755941",
"1  c #7B5C42",
"2  c #735D49",
"3  c #785F48",
"4  c #7F6045",
"5  c #7C634B",
"6  c #6F6356",
"7  c #6F655B",
"8  c #6D685F",
"9  c #736354",
"0  c #796453",
"q  c #7A6857",
"w  c #73675B",
"e  c #73685B",
"r  c #6D6C6C",
"t  c #726D66",
"y  c #726F6B",
"u  c #7E7063",
"i  c #816146",
"p  c #856549",
"a  c #88674B",
"s  c #86684C",
"d  c #8C6B4D",
"f  c #906E4F",
"g  c #8E6D51",
"h  c #856F59",
"j  c #916D50",
"k  c #916E50",
"l  c #916F51",
"z  c #926E50",
"x  c #936F51",
"c  c #8E7055",
"v  c #8E7155",
"b  c #8C725A",
"n  c #927151",
"m  c #947051",
"M  c #967252",
"N  c #927156",
"B  c #987455",
"V  c #9B7556",
"C  c #9B7656",
"Z  c #9A7657",
"A  c #9E7857",
"S  c #9C7659",
"D  c #9E7858",
"F  c #9E7959",
"G  c #9F7959",
"H  c #A07A58",
"J  c #A37C5A",
"K  c #A37C5B",
"L  c #A37D5B",
"P  c #A47C5B",
"I  c #A57D5C",
"U  c #A47E5D",
"Y  c #A67F5D",
"T  c #A87F5F",
"R  c #847364",
"E  c #81766B",
"W  c #877C73",
"Q  c #847F7A",
"!  c #827F7D",
"~  c #A6805D",
"^  c #A6805E",
"/  c #A8805E",
"(  c #AB825F",
")  c #AB835F",
"_  c #9D8168",
"`  c #8B8276",
"'  c #86807A",
"]  c #8A837B",
"[  c #89837C",
"{  c #A68263",
"}  c #A98260",
"|  c #AA8360",
" . c #AE8360",
".. c #AC8460",
"X. c #AD8462",
"o. c #AF8865",
"O. c #A3866C",
"+. c #A8866B",
"@. c #A3886E",
"#. c #B08662",
"$. c #B18763",
"%. c #B18764",
"&. c #B38863",
"*. c #B28963",
"=. c #B08864",
"-. c #B38864",
";. c #B38964",
":. c #B38965",
">. c #878582",
",. c #8C8782",
"<. c #8A8784",
"1. c #888884",
"2. c #878789",
"3. c #878889",
"4. c #888889",
/* pixels */
"o.=...n j v f f f 1 = * = = * d %.*.T j j g j j d 1 * * * , = +     O * = = * , 1 | =...1 < < D %.%.",
"=.=...j j j f j f 1 = * * * * d %.%./ j j g n j g 1 = * * = = @     @ * * * = * 1 ( =...i < * S -.=.",
"/ Y J m f f a a a - * * * * * a P H A a s s s p p 1 = * * & * # @ O $ * * < 4 1 p / ../ 1 * & j Y H ",
"1 1 1 j f d # o o $ * * * = * % o O @ o X O X O o & = = @ X X = d d i * * i / | / M m j @ . o O O @ ",
"* * 1 j f d O     % 1 * * * * $       X         X & * < O     = f f p * * i #.&...m g g @           ",
"< 1 1 d f d @ .   % * * * * 1 $ o o o o X X X X o * < < @     = f d p * * i T | | m g g $ o O o o   ",
"Y J A 1 1 1 * & & @ o o p T Y B p p p p a i & & * Z ~ U &     $ 1 1 1 * * * $ $ : W [ ] D D H 1 & & ",
"=.=.~ = * * * * * @     a -.&.P n f j j v d 1 = 1 Y o.o.&   X # * * * * * &     + ' >.<.@.%.=.d * < ",
"=.=.~ 1 , * < * * @     a #.#.H j n f f f d - = 1 J #...*     $ = * = * * &     + Q 1.,.+.#.*.a * * ",
"Z Z N e w t N S S 1 % $ & * * i j d d i 1 i Z H S Z D Z a i i = * * % @ @ @ % $ * _ @.O.H C Z i * * ",
"f f h t r y T #.#.p * = #     % j g a = * 1 ..=.#.B d f j j f i * * $     @ * * 1  .=.*.x j f 1 * * ",
"f f h t r y { #.*.p * * @     & j n d = = 1 ..=...Z f f j j j i * * $     o * * 1 | =.( Z f f - * * ",
"f f g 9 9 2 Z H H Z x M *     % j n s = * = d d f f j f 1 % * * * * i a a i = * 1 Z H Z - * * * * < ",
"f f d = * < d f f Y -.%.1     & n j a = * = = = * d j f $     @ * * d #.-.P = * 1 d j d @     # * * ",
"f j d - * < d j j T %.#.i     & j j d < = = = * * d j f $     # * * d %.-.Y = = < f j d @ X X # * * ",
"D H x % $ % d j j D Y Y 1 @ @ - j j p $ $ $ # $ $ < < 1 $ @ @ % < = 1 d d p * * < i p p $ @ @ 4 f d ",
"=.%.H O   o p j k k k k 4 * * 4 j n 4 .               . $ * * * * = $     o * * * * * * = * = A -.-.",
"=.%.H O   o p g k k k k 4 * * 4 n j i                   $ * * * * = #     O * * * * * = = < = Z -.=.",
"=.=.J # O @ i d a d a a 5 > 2 5 a a 1 @ @ @ % * & * % & * * * i p p 1 = & * * * = - - 1 * * = Z | / ",
"%.=.~ = * * = = = = = = 9 r r 9 < * < < * 1 T ..#.( #.#.a * * x ..#..... .H * * - d f f 1 & = a m j ",
"=.%.Y 1 * = * = * = = = 6 r r 6 * * * * * i ( #.&.&.&.&.p * * x -.-.-.&.=.H - * 1 d j g 1 * , p f f ",
"| | H < * = 1 1 1 1 1 1 q t t 9 < 1 * * & = P T T #.( T i * * f ....) / / Z = * - h N g 1 < 1 a j n ",
"1 1 1 * * < J | | ) ) ) Z g v d f f i o . O = - 1 f m m % .   - m m a 1 1 1 = * 3 Q ,.] b g d d j j ",
"* * * * * 1 ~ *.*.*.*.o.G f j j f j i     . * * - a f j $     * j j p * , * = * 3 ! 2.>.b j n j j j ",
"< * = = * - P ......*.o.S d d f j n i X   o * = * a d d $ . . - d f p * = * = = 3 ] >.[ g d d f f d ",
"a d a = * = 1 i i f Z m p 1 - i j j 4 X   o . o O * 1 - i p i i 1 1 = = * 1 a d d b b b & @ @ * 1 1 ",
"j j d = * * < * = p f v i * * 4 v f 4 X           * * * a j x i * * * * * 1 j j j j j d @     % = * ",
"g j d = * * < * = p f f i * * i f f 4 X           * * * a j j i * * = = * 1 f j j j j d @     % = = ",
"1 i i p a p $ @ O < 4 1 < * * * $ # # X     % % & * * * p n j i * * & @ O * Y Y T T Y P * $ $ 1 p s ",
"* * < j j d @     $ = * * * * # X     X   o * * * = * = a j f i * < #     % ..=.#.=.-.) i * * a j j ",
"* * < j j d @     & * * = * * #             * = * * = = a j g i < * #     % ..%.%.( =.#.i * , p j j ",
"* , 1 j j f % @ # p n m i * * * * = < p p p i i i $ # # d H H Z m m 1     % H H H P H D R u u s 5 p ",
"* * 1 j j f 1 * * H =.=.f * * i n j Z =.*.) m n d O   o m -.=.=.-.-.d X   @ g j j j f v ] 1.1.q * * ",
"* * < j j d 1 * < D &.=.d * * i j j Z #.-.) m j d @     m -.=.-.-.-.d     # d n j j j n ] 4.1.q * * ",
"1 i i p a p 1 * * m / Y a * * i g j j Z Z Z f j d : ; ; n Y J Z d g 1     # d f j f f v E u E 2 % % ",
"j f d < * * * = * a j n i = = 1 j j a < = - d f g t r r h f d *   X     X # d v v f f d 1 , , @     ",
"j x d < = * * * = a n d i * * 4 n n s * * - d f v t r r h d j *     X     @ d n j d j d 1 * , O     ",
"i p i & & & * * = p j n i * = - a a p p i i d p p e 7 t 0 d s * @ o @ @ @ & a a d d d a p i i * $ & ",
".   .     o & = * p f f i * = * = = p ....~ 1 = = = = * - = = * * * 1 d d a = = = = * 1 J %. . .....",
"          o & < = a f f i * = * = * i *.*./ 1 = = = * * = * * * * * i j n d = = * * * < Y =.=.=.=.=.",
"X X o O o @ & * * p d d i * * , * * i | ..Y 1 1 = = = = = & & & * & 1 d a i * * < 1 1 i Y #. . .) ..",
"& * = d d a - = * < = < < 2 > , = = 1 n m j d d d < = = @ o o X X X   o O @ * * 1 Y | / B j x x n n ",
"= = 1 d f d 1 * * * = = > > > , , , 1 g j j j m d 1 = & O X       X       O * * 1 | =...Z j j j k k ",
"< = 1 d j d < * = = < < 2 , > > , & 1 g g g d d d 1 1 < O X X X   X   o o O * * 1 / #. .m j j j k k ",
"a d a 1 1 1 = * = m P P a * , % o O O 1 1 < # @ # Z ~ ~ 4 $ & & & & = p i 4 < * = i i i g d j j k k ",
"n j d = = * * * = P -.=.g * < #     O * = & X   o D *.) a * = = = = 4 d f d < * * = * = d g g n k k ",
"f f a = = * = = = J #.*.g * * #     O * = & o   o A *.*.a = = = * * 4 v n d < 2 < * * = d n n f d f ",
"f n d = = = m D A Z S S f p a 1 % & > E E u & $ & n A Z d p p 1 = = = 4 1 5 E u R s p p i 1 1 * & # ",
"f j d = = - ~ =.#.Z j j j j j p = * 0 >.3.' 2 * - a j j j j n i * * = * * 5 >.3.>.v j j 1 = * O     ",
"f j d = = - ~ *.*.S f f f g f p * * 0 >.3.' 2 = = a n j j j j i * = * * * 0 >.3.[ v j d 1 = = O     "
};
