/* XPM */
static char *end_portal1677772966[] = {
/* columns rows colors chars-per-pixel */
"45 45 187 2 ",
"   c #040404",
".  c #080707",
"X  c #0A0B0B",
"o  c #0C100F",
"O  c #0E1413",
"+  c #101615",
"@  c #121817",
"#  c #141D1A",
"$  c #17201E",
"%  c #18211F",
"&  c #1A2422",
"*  c #1E2E2A",
"=  c #1F332E",
"-  c #22332E",
";  c #243631",
":  c #263B35",
">  c #283C36",
",  c #293F38",
"<  c #2C423B",
"1  c #253F44",
"2  c #254044",
"3  c #2A4346",
"4  c #2C4649",
"5  c #2E494A",
"6  c #344D46",
"7  c #314C4C",
"8  c #36514B",
"9  c #39554D",
"0  c #375552",
"q  c #395754",
"w  c #3C5A55",
"e  c #3E5D58",
"r  c #3F6157",
"t  c #3F6159",
"y  c #425C55",
"u  c #415F59",
"i  c #47655A",
"p  c #43635C",
"a  c #44695E",
"s  c #54675A",
"d  c #5C6B5A",
"f  c #616E5B",
"g  c #64725D",
"h  c #68745E",
"j  c #466660",
"k  c #476960",
"l  c #4A6A61",
"z  c #556F61",
"x  c #4E7267",
"c  c #4E7368",
"v  c #537366",
"b  c #5C7363",
"n  c #52756A",
"m  c #597768",
"M  c #54796D",
"N  c #5B7C6C",
"B  c #597F71",
"V  c #647562",
"C  c #6A7661",
"Z  c #6A7B65",
"A  c #667D68",
"S  c #6B7E69",
"D  c #707D65",
"F  c #5F806F",
"G  c #5C8374",
"H  c #65826E",
"J  c #6C826C",
"K  c #778368",
"L  c #74846B",
"P  c #79866C",
"I  c #7C8A6E",
"U  c #628572",
"Y  c #698772",
"T  c #658976",
"R  c #6C8B75",
"E  c #638C79",
"W  c #6A8D79",
"Q  c #728D74",
"!  c #7C8C73",
"~  c #738E7A",
"^  c #6C907B",
"/  c #719277",
"(  c #7E9075",
")  c #75937B",
"_  c #7E927B",
"`  c #7A9A7D",
"'  c #858D6E",
"]  c #8B926F",
"[  c #858F70",
"{  c #849375",
"}  c #8A9574",
"|  c #81957C",
" . c #88997A",
".. c #969C76",
"X. c #919E7B",
"o. c #A19E73",
"O. c #9BA47C",
"+. c #A4A275",
"@. c #AAA677",
"#. c #A6A67A",
"$. c #A9A779",
"%. c #ADAA7B",
"&. c #B1AE7D",
"*. c #B1B07E",
"=. c #7E9E82",
"-. c #7FA082",
";. c #849D83",
":. c #8E9C81",
">. c #83A484",
",. c #8AA385",
"<. c #8AA887",
"1. c #83A788",
"2. c #8BA289",
"3. c #8CAC8A",
"4. c #94A683",
"5. c #96A988",
"6. c #92B38E",
"7. c #9BB68C",
"8. c #8FAA91",
"9. c #9DAE90",
"0. c #9AB393",
"q. c #97B991",
"w. c #9ABC93",
"e. c #A4AC83",
"r. c #ADAE80",
"t. c #A5AE8D",
"y. c #ACB083",
"u. c #A3B588",
"i. c #A8B58A",
"p. c #B4B282",
"a. c #B9B684",
"s. c #B7B986",
"d. c #BBB986",
"f. c #B3B58A",
"g. c #B4B98A",
"h. c #BCBB8B",
"j. c #A4BD91",
"k. c #A6B897",
"l. c #B2BF9E",
"z. c #C1BE8C",
"x. c #BEC18E",
"c. c #A1C297",
"v. c #ACC393",
"b. c #A3C599",
"n. c #A6C89B",
"m. c #A9CB9C",
"M. c #B7C29E",
"N. c #BDC9A4",
"B. c #C1C18E",
"V. c #C6C492",
"C. c #C9C696",
"Z. c #CAC996",
"A. c #C3C89A",
"S. c #CCCB9B",
"D. c #D0CE9E",
"F. c #D2D19F",
"G. c #C1CCA5",
"H. c #CCCDA2",
"J. c #D2CFA1",
"K. c #CFD0A5",
"L. c #C4D1AA",
"P. c #D3D2A2",
"I. c #D4D5A9",
"U. c #D8D6A8",
"Y. c #D6D8AB",
"T. c #DCDBAD",
"R. c #CBD8B2",
"E. c #DCDEB1",
"W. c #E0DEAD",
"Q. c #E1DFB2",
"!. c #DBE0AE",
"~. c #DFE1B4",
"^. c #DFE7BA",
"/. c #E3E2B4",
"(. c #E7E7B7",
"). c #EAE9B7",
"_. c #E3E5BA",
"`. c #E4E9BA",
"'. c #EBECBC",
"]. c #EEF1BD",
"[. c #EBEDC1",
"{. c #EFF2C3",
"}. c #F3F4C5",
"|. c #F5F9C6",
" X c #F4F6C8",
".X c #F8F7C9",
"XX c #FAFBCC",
/* pixels */
"l a a l a l a l a l a l a l l l a l a l l l l k l l a l a l a l l l l l a l l i u e u u u ",
"c v x x v x x v x x v n v v x x v x x v c c c c c x x x v v x v c c x x x n c l j j j j p ",
"x x M H U n l j j l j i a l N U U S A m k k l l x N H H U U N l k k l j l a l v N M l j p ",
"x x T 6.q.T 8 5 7 7 7 7 5 p >.q.7.e.e.! 7 7 0 w y } e.e.7.q.` u 5 5 7 7 7 5 0 R 0.3.B j i ",
"c c W j.m.Y 6 3 < < 3 1 2 w 3.m.v.d.a.' 3 3 5 0 w X.d.d.v.m.1.q 1 1 3 1 3 1 7 / m.w.B j u ",
"x c N ) ` v 4 3 y d d d s A -.8.<.O.X.' g d L _ _ X.O.4.<.1.` V d d d d y 7 0 A -.` v j j ",
"x x j y q 8 3 3 D o.+.+.+...) E G M m Q %.y.K.`._.3.E T N M J ..@.$.#.+.D q q e p p j j u ",
"c x j 7 4 4 1 3 K %.@.%.%.O.^ G B c x ! f.d.T.XX X8.G G c x H $.p.&.&.&.P q q q q q p j j ",
"x x p 7 4 y f h #.C.Z.Z.Z.A.v.k.8.G M Y {  .4.k.9.W n m ;.5.t.H.P.J.C.V.e.P L z q q p j p ",
"x x p 5 3 h o.@.D.).'.'.].}. XXXR.^ G M v v l i p j p m G._.). XXX[.Q.Q.K.h.s.J q w p j p ",
"c c p 5 3 h +.@.P.'.'.)._._.[.{.L.^ F M l x a p e t t v l.E.~.[.[.[././.P.V.s.J q q p j p ",
"x c p 5 4 h @.&.U. X`.t.I ' | | J i p w 9 9 8 8 8 8 8 9 C L P ! [ t.Q.).P.h.f.Z q w p j p ",
"x x p 5 3 C %.p.T.XX_.Z > , , < < < < < , < < < < < < < > ; ; ; - D E.'.J.h.r.S 0 e p j p ",
"x x p 5 3 C %.p.T..X_.Z , , : : > > > : ; : ; > > : > : ; - ; > : L E.'.D.h.r.S 0 q p j j ",
"x x p 5 4 C $.&.D.).Y.f : ; # O O @ @ @ @ + O O + + @ + O O & 6 9 ! W.).D.d.y.S q q p j u ",
"c x p 4 2 C #.%.S./.K.f ; * X     . . .                   . # q p | Q./.D.z.y.S 0 q p j j ",
"c x x w w L @.&.Z./.K.d : * X             X                 # 9 t | T.).D.a.p.L a l j j u ",
"M M Y 3.6.e.&.&.S.T.H.f , * o                   X           # 8 w ! I.!.Z.*.p.7.7.3.m l j ",
"M M ^ c.b.i.&.p.Z.T.S.d , * X                   X           # 6 9 ( I.T.Z.p.p.g.n.q.G l j ",
"M M Y >.<.5.&.&.S.W.H.f < - X                               # 9 p ( I.!.Z.d.a.5.<.=.M j j ",
"c c l a j L $.%.S./.I.h < - O                   .     .     # y k | T.~.I.z.h.P e u u p e ",
"x x l e e D $.&.D./.I.V < ; o                               & w k | I.~.P.A.h.D 0 q e p e ",
"x x k 0 8 D @.%.S.W.H.f < - o                             . % w j | I.Q.J.z.f.S 0 w u p u ",
"c c j 5 3 h o.@.V.T.H.f > - o                   . .         $ w j | J.U.C.a.r.Z 0 q p j i ",
"x x i 7 4 h o.@.V.T.S.f , - o     X X                       $ q p ( P.T.C.p.%.Z q w j j j ",
"n n B W Q  .@.%.C.W.H.f : - o   . . X X                 . . $ 9 p _ T.E.D.d.s.4.=.~ n j j ",
"M M ^ w.c.i.%.@.Z./.K.f , = X   X                 . . . .   $ 9 r | T./.P.B.x.v.k.q.N l j ",
"n M W w.w.u.@.%.Z.!.K.d : * o               X       .       $ 9 r | E._.P.B.x.v.w.8.B j j ",
"c n M N H { @.%.D.).Y.V > - X     .                     .   $ 9 p ;.`.].P.p.r.! N n l i u ",
"c c k e w Z +.%.F.'.T.C < : X                       .       $ r k ,.{.|.P.&.#.C 0 q e u e ",
"c c k w w D @.%.P.].E.V < : % + + + O O + + O @ + # # + # + * r a ,.`.].F.&.#.Z 0 q e p e ",
"x c a 7 5 C %.&.U.|._.Z > < < < < < < 4 6 6 6 6 6 9 9 9 9 9 9 p a ;.E.).D.a.r.S 0 w u a j ",
"x x p 4 3 h %.p.T.XX_.Z : 1 8 q 9 q 9 w i p i r a a x a k k k k t =.Y.Q.S.a.r.Z 0 w p j j ",
"x c p 4 3 h %.&.U.}._.:.g V S S m a a a p a i p r a a x T ) ) / ) 9.E.Q.S.a.p.Z 0 w p j p ",
"x c p 5 3 h @.@.D./.(._._.~.E.T.M.E N M x x a p t t t m N.`.^.^._._.Q.Q.S.a.r.Z 0 w p j p ",
"x c p 5 3 h o.@.S.Q./.}.XX X{.'.L.^ G G x x a p t t r F R.|.|.|. X]._.Q.S.a.r.Z 0 w j j p ",
"x x p 5 4 s P ' f.P.P.T._.~.N.N.0.U G W 2.2.( J Y l a x 7.l.N.T./.T.P.P.f.} [ b q q j j p ",
"x c p 5 3 7 w y } d.d.x.V.g.) E G c c 2.{.}.P.f.*.H t t w w A f.B.B.s.s.I y w w q q p j p ",
"c c j 5 5 7 q w ' p.p.h.x.i.) G G v n 2.{. XP.a.*.H i t w w b y.B.h.a.p.P q q w q e u j p ",
"l l n H H v w q V P I I ! _ -.-.;.| | :.k.k.:.P P P K K Q R Q ! [ I P P b q w m W T x j j ",
"j j U w.n./ e 0 q q q q q z 3.n.j.s.a.X.v n a q w ] %.%.j.b.2.s q q q q q 0 u =.n.w.B j u ",
"j j U q.j.W e q q q q q 0 l 3.c.j.f.p. .v x p 0 y { %.%.j.c.1.j q q q q q q u ) c.6.B j j ",
"j j v U T n j u p u p t u j G T Y L J N l l p p p b S J T T B j p p p p u u j m T U z j u ",
"j j j j j j j j j j j j j j l l l j j j j j j j j i j j l l l l j j j j j l j j j j j j j ",
"j j j j j j j j j j j j j j l l l j j j j j j j j j j j l l l l l j j j j j j j j j j j p "
};
