/* XPM */
static char *filled_end_portal1677773570[] = {
/* columns rows colors chars-per-pixel */
"45 45 206 2 ",
"   c #131D0A",
".  c #16210D",
"X  c #18230F",
"o  c #212D16",
"O  c #243118",
"+  c #0D1D26",
"@  c #12222A",
"#  c #162931",
"$  c #1A2D35",
"%  c #1D323A",
"&  c #2C3A20",
"*  c #21353D",
"=  c #22393F",
"-  c #4A623D",
";  c #1D3F43",
":  c #253B41",
">  c #283F44",
",  c #1F4246",
"<  c #214446",
"1  c #2C4545",
"2  c #2F4846",
"3  c #234748",
"4  c #254A4A",
"5  c #2B4D4C",
"6  c #304A47",
"7  c #3D4D47",
"8  c #314C4B",
"9  c #34514D",
"0  c #3A564D",
"q  c #3E5A4D",
"w  c #2D5653",
"e  c #2F5855",
"r  c #2F5B58",
"t  c #355452",
"y  c #395654",
"u  c #325A55",
"i  c #3B5B55",
"p  c #345E58",
"a  c #3F5E5A",
"s  c #3C6056",
"d  c #36625B",
"f  c #39645D",
"g  c #3A685E",
"h  c #3A6760",
"j  c #3C6A62",
"k  c #3F7165",
"l  c #404F49",
"z  c #46564C",
"x  c #415D4C",
"c  c #425D52",
"v  c #495B55",
"b  c #515E52",
"n  c #4A6149",
"m  c #50624C",
"M  c #456252",
"N  c #4B6454",
"B  c #4C6956",
"V  c #45655B",
"C  c #4D675A",
"Z  c #456A5D",
"A  c #536355",
"S  c #576A56",
"D  c #566658",
"F  c #526D5C",
"G  c #5A6D5A",
"H  c #54715E",
"J  c #5B735C",
"K  c #626D5C",
"L  c #66745B",
"P  c #436D63",
"I  c #4A6D62",
"U  c #417367",
"Y  c #4D7364",
"T  c #447469",
"R  c #4B7768",
"E  c #46796C",
"W  c #4C7B6C",
"Q  c #547563",
"!  c #597766",
"~  c #597B65",
"^  c #5B776C",
"/  c #537C6B",
"(  c #667462",
")  c #6A7665",
"_  c #667D64",
"`  c #6B7C66",
"'  c #6B7E6D",
"]  c #53816D",
"[  c #5C836C",
"{  c #4E8573",
"}  c #4E8875",
"|  c #558673",
" . c #5A8672",
".. c #538873",
"X. c #5A8972",
"o. c #658265",
"O. c #6D8166",
"+. c #65876C",
"@. c #6A836C",
"#. c #728366",
"$. c #788766",
"%. c #738569",
"&. c #738A6B",
"*. c #7B8D6C",
"=. c #6D916A",
"-. c #7C976B",
";. c #6E8372",
":. c #658C73",
">. c #758973",
",. c #679378",
"<. c #6E997A",
"1. c #759372",
"2. c #779878",
"3. c #729D7C",
"4. c #7AA274",
"5. c #75A07E",
"6. c #7CA27C",
"7. c #818F6B",
"8. c #87936C",
"9. c #849976",
"0. c #8B9C75",
"q. c #969D77",
"w. c #86A878",
"e. c #98A67B",
"r. c #8FB87B",
"t. c #90BA7C",
"y. c #A7A46E",
"u. c #AAA56E",
"i. c #A2A576",
"p. c #AAA771",
"a. c #ADAA73",
"s. c #B2AD76",
"d. c #B5AF79",
"f. c #AFB77F",
"g. c #B6B37B",
"h. c #B9B57D",
"j. c #BBB97F",
"k. c #6E8F80",
"l. c #799788",
"z. c #7BA581",
"x. c #79A884",
"c. c #7FAA85",
"v. c #829A81",
"b. c #899C8F",
"n. c #85A682",
"m. c #8CA78B",
"M. c #94AE88",
"N. c #8BB78B",
"B. c #8DB98E",
"V. c #9BB987",
"C. c #92BE8F",
"Z. c #9CBE8A",
"A. c #94A996",
"S. c #98B992",
"D. c #A8B784",
"F. c #B5B683",
"G. c #BCBC83",
"H. c #A2B894",
"J. c #B0BE96",
"K. c #97B0A0",
"L. c #A4B9B2",
"P. c #C1BD86",
"I. c #C3BF88",
"U. c #9CC18E",
"Y. c #95C292",
"T. c #99C594",
"R. c #9DC995",
"E. c #A2C38D",
"W. c #ABC38D",
"Q. c #A5C499",
"!. c #A7C89B",
"~. c #B5C69C",
"^. c #ACC4A6",
"/. c #BCCEA2",
"(. c #C1C186",
"). c #C4C28B",
"_. c #C9C58F",
"`. c #CECC95",
"'. c #D0CD96",
"]. c #D1CF99",
"[. c #CFD299",
"{. c #D3D29C",
"}. c #D5D49C",
"|. c #D5D5A1",
" X c #D5D9A6",
".X c #DBDAA4",
"XX c #D5DAAA",
"oX c #DDDDAA",
"OX c #E0DFA9",
"+X c #DDE1AB",
"@X c #DEE8B8",
"#X c #E0E0A7",
"$X c #E2E2AD",
"%X c #E5E5B1",
"&X c #E7EBB7",
"*X c #EBECB4",
"=X c #EEF3BA",
"-X c #F2F6BC",
";X c #F1F4BE",
":X c #B9CBC0",
">X c #C3D7C5",
",X c #CBDDD3",
"<X c #D4E4DB",
"1X c #F5F6C2",
"2X c #F8FAC4",
"3X c #FAFAC6",
/* pixels */
"T U U U U U U U U U U U U U k U U E k k T k U U T U U U U U U U U U U U U U k k g h h h h ",
"T U U U U k U U U U U U U U k k k k k k k T U U U U U U U U k U U P U U U U T g f j h h h ",
"T U T | ..] j j g g g g g g ] X.[ [ :.] j f j j j / [ [ [  ...j g g g h j j f E / / k f h ",
"T U / B.T.3.3 3 3 3 < < 4 5 6.T.U.F.h.0.4 3 5 u u *.F.g.Z.T.N.u 3 3 3 3 3 4 , [ T.Y.| h h ",
"T k ] Y.R.5.3 3 , 3 , < , 3 c.R.U.j.G.q.1 , 4 w w *.G.j.E.R.B.u , < < < , 4 , +.R.T. .h h ",
"T k W ,.<.~ < < q S S J S G z.c.c.w.0.-.J J @.2.2.0.e.w.z.x.5.J G G G G N 4 3 Y 3.<.R h h ",
"T U j 5 4 3 < , S a.a.a.a.p.,.{ { T k [ h.h.{.2X2XS.{ { E U R i.g.s.a.s.8.e e e e e d h h ",
"T U j 5 4 3 , , L a.a.a.p.p.,...{ k k +.h.h.[.2X2XS.{ ..E U R i.s.s.s.g.-.e w w e e d j h ",
"T U k 4 3 y L ) i.'.'.}.{.[.~.^.Q...W ] 1.1.2.m.A.:.U E n.V.H.]..X|.].'.F.7.9.G w w d h h ",
"T U j 4 < N u.u._.*X*X*X;X;X2X2X1X,.{ { U U h p p p d j ~.%X%X1X2X1XOX$X|.I.).&.w u h h h ",
"T U j 4 < v p.p._.*X*X=X&X&X1X3X@XX.{ { U U j d d d d s J.%X%X;X1X-XOX%X|.(.).*.w u d h h ",
"T U j 4 < N p.p.].2X-Xq.b b D b N w 5 9 y u 0 5 5 4 1 3 v b b b D ' $X*X XG.G.%.w e d h h ",
"T U j 4 , B s.s.{.2X2X) + + + + + $ * : t y 9 6 1 : % % # + + + + 7 oX*X.Xj.j.%.w e p h h ",
"T U j 4 < B s.s.].2X1X) + @ @ @ @ % : > y y y 6 6 1 : : $ @ @ @ + l +X*X.Xh.h.%.w e h h h ",
"T U j 4 < N p.s._.%X%XK + @ $ $ : c W I x q x M M V Z I 8 $ $ # + l OX%X}.j.h.%.w e p h h ",
"T U j 4 ; N p.p.).$X$XK + + $ : : I :.^ n x M B B Q ^ / i * * @ + l OX*X}.h.F.%.w w h h h ",
"R U U d s J a.a.I.OXOXK @ @ = : : ^ l.k.C N V F F ~ [ [ s : : # + z XX%X|.h.h.*.P P j j h ",
"W T  .B.Y.V.s.s.I.oXoX( % * 8 y t L.<X:X>.' ' @.' 1.4.4.~ t t : % v  XOX].d.g.D.Y.C. .h P ",
"W E | Y.R.U.d.s.I.oX.X( % : 8 y i L.<X:X>.;.%.@.;.1.4.4.~ y y : % v |.OX'.d.d.D.R.R.X.j j ",
"E E ] 3.5.w.a.s.I.OXOX' : : 8 9 y K.,XL.S m b b z o.w.w.o.c i 2 : b  XOX].h.G.e.3.5.W f h ",
"T U k p r Q p.a._.%X%X>.t y 8 2 5 n.!.w.& O o . . - r.r.=.N N 9 1 I XXOX|.).).*.w u p d p ",
"T T k p p Q p.a.I.%X%X>.t y 8 2 2 v.!.w.& O o X . - r.t.=.M M 9 1 D XXOX|.)._.*.w w p d d ",
"T U j w 4 F u.u.P.OXOX' 8 9 0 0 i 6.U.w.O o X . . - Z.Z.=.q q 9 8 H {.OX{.P.P.$.w e d f d ",
"T U j 4 : b y.u.P.OXOX` 1 6 x N B 4.t.-.O X X     x Q.Q.+.1 2 0 t ! {.OX'.g.g.#.w u d h h ",
"T U j 4 3 M y.y.P..X.X` 1 2 c B B 4.t.-.o X X X   m !.!.;.2 2 t t ^ {.oX'.d.g.#.e e p h h ",
"E E { k.3.9.u.u.I.OXOX) = = 9 c i 4.4.-.S A A A b 0.>X>Xl.t 8 2 : C XXOX|.G.P.M.5.l./ j j ",
"W E  .S.R.E.a.a.).OXOX) % * 8 y 0 =.4.2.&.;.@.;.@.A.<X<Xb.y y : % v XX%X|.).(.W.R.R. .j j ",
"W E | B.Y.V.a.u.).#X#X) $ = 5 t 0 X.4.2.;.' ' @.' b.,X,Xb.t t : % N XX%X.XP.P.W.C.C. .h j ",
"E T T P P o.p.p._.*X%X( @ @ % : : Z [ ~ F H F N v Y l.l.I : : # + z &X-X.Xs.d.*.P Z f f h ",
"T U j p e H p.u._.*X*XL + + $ = = Z / / F C M x i P k.^ a : : @ + z &X2X+Xa.s.` w w u d p ",
"T U k p e F p.a._.=X*X( + @ # % $ i V V c M c x x V h I 8 $ # @ @ z &X-X}.d.s.O.w e p d p ",
"T U j 4 3 C a.s.].2X2X) + @ @ @ @ % = : 6 2 8 y y 2 : : : @ @ @ + 7 XX$X}.h.h.%.w u d g h ",
"T U j 4 < N s.s.].2X2X) + @ + @ + $ : : 1 1 5 y y 5 * * # + + + + 7 XX$X{.h.h.%.w w d h h ",
"T U j 4 < N p.s.'.1X;Xb.b b D b N w 5 w u y u u i u 4 5 C H G J G >.XX$X{.h.h.%.w u d h h ",
"T U j 4 < N y.y.I.%X%X&X1X;X*X*XXXk.{ { T k j d d d d j /.2X-X=X1X&X$X$X{.g.g.%.w e d h h ",
"T U j 4 < N y.y.I.%X$X1X2X2X;X1X+X,.} { k k j d d d d f /.2X2X-X1X1X$X$X{.h.j.$.w e d h h ",
"T U j 4 < 0 O.#.e.'.`..XOXoX~.J.S...E X.M.A.w.%.=.H p d 6.S.H.|.oX.X].].F.*.*.H w t d h h ",
"T U j 4 < 4 w w #.h.h.j.I.G.,.{ } T k <.1X2XOXj.j.@.d d w e u f.(.P.h.j.8.u w w w u h h h ",
"E U j 4 3 4 t w O.h.h.P.W.G.,.{ { T U <.1X2XOXF.j.&.d d u w s f.(.(.F.j.8.w u u w w d h h ",
"P j U ,.,.[ u w V _ _ @.@.@.x.n.n.0.0.v.m.m.2._ _ %.*.-.1.3.3.@.O.o._ _ Q u w R 3.3.W h h ",
"j h R Y.R.z.u u u w w w w u n.R.E.j.j.e.U U f w w $.s.s.H.R.C.V w w w w w w w ,.R.T. .h h ",
"j h R B.T.z.r w w u u u w u c.T.T.F.g.e.R U h u w $.a.a.Z.Y.N.h w e e e p w w :.T.Y./ h h ",
"j h j W / R f d d d d f f f W ] / ~ / Q g j h f d I ~ ! ] ] / P h h p h d h h P / W U h h ",
"P h h h h h h h h h h h h h j j h h f h f h h h f j f g g g j h j j h h h h h h h h h j h ",
"h h h h f h h h j h h h h h j j j h h h h h j h h h h h j j P h j j h h h h h h h h h h j "
};
