/* XPM */
static char *stone_wall1677764535[] = {
/* columns rows colors chars-per-pixel */
"50 50 25 1 ",
"  c #5B5B5B",
". c #5F5E60",
"X c #636363",
"o c #676A67",
"O c #686A67",
"+ c #6B6D6B",
"@ c #6E706E",
"# c #6F6E70",
"$ c #747474",
"% c #777678",
"& c #787679",
"* c #7D7D7D",
"= c #7F807F",
"- c #7F7E80",
"; c #817F81",
": c #848384",
"> c #878688",
", c #898689",
"< c #8B898C",
"1 c #8F8D90",
"2 c #908E91",
"3 c #939294",
"4 c #979598",
"5 c #99979A",
"6 c #9C9A9D",
/* pixels */
"<<156666666666666666666666666666666663<<<<<<<<;.  ",
"<<<56666666666666666666666666666666663<<<,<,,,;.  ",
"<<<45566655566566666666666666666565563<<<<,,<2;.  ",
"555<>><1<>>:<2<2<2<2<2<<22<<::::>::::;;;=;=:,<;.  ",
"665:*;<<<;==:<<<<<<<<,<<,<<,;=====*===;;===;,<;.  ",
"655:*=><<:==><<<<<<<,<<<<<<,;;===-=====;===:,<;.  ",
"665<>>::;>>>:=;;;:;::;:;;:;:;==::<,<:;&&*==;::*.  ",
"665<<<=*=><<:============;*====,<<<<<;$&&=====%   ",
"666<,<===><<:-===*=========*;;;,<<,<,;&&&==*;=*.  ",
"665,::*&&:=::>>>,,:*==&**==;::,:,;;;;;****&**&$   ",
"665:=*&%&*==><<<,,,***&&&*;;,<,;==&$&**;*$&&$&$   ",
"664:--&&&*==:<<<<,,;=*&&&==;,<,:;**&&**;*&&&&&$.  ",
"664=*&$$$%*&=:::,:::,;*&*=;;;:;**&**%***&$@$&*%   ",
"664*%%@++$&&&&&&==:,,,==*==*&&&&&&**=*%%$+O$=-&   ",
"664&%&+@+$&&&&&&*=:<<,;*;=;=&&&&&&**=**%$@+@;;&   ",
"443*&&@++$*&&&-***=:;;******&&*******%@$$$@%**&   ",
"<<:*&&@++&====**&&&&&&&&&&%%===,<<-%%$@+@;==$*$   ",
"<<<*&%@+@%===;**&&&&&&&&&&&&===,<<-%*@++$;==$*$   ",
";;=%$$@++$*%&*&&$$$$$$$$$$$$%**=::&$$@++@**$%$@   ",
"@++@+@+++@@+@++@@++@++@@@+@+++++#+#++++++@+++++   ",
"+++++++@+@+++@@+++++@++++++++@++#+++++##+++@+@O   ",
"O+++OOOOOOO+O+O+++OOO+OOOo+O+O+OO#+OO#O#+O+++OO.  ",
"XXXXXX      XXXXXX.         XXXXXX.O.XXXXXXXXXXXXX",
"XXXXXX      .XXXXX.         XXXXXXX.O...XXXXXXXXXX",
"OOOOOOXXXX.XXO+OOOO..     X OOOOO++OOOO#OOOOOOO+OO",
"233332223322333333<;:%  X=::2333332333333334233332",
"6666666666666666664<<=  X:<<6666666666666666666666",
"6666666666666666664,<*  X:<15666666666666666666666",
";;;1222121<2222<,,:;:&  X255322,;;2223332222<2<>;,",
"&&&,1<,,<,<<,<,:;====$  X5661,<=;;;2;2;;<<<<<<<;;;",
"&&&<<<<<,<<,<<,,===*=$  X4662<<:;;;222<<<<<;<<<;;;",
",;;>;>:;:,<,,::;*****@  X465,:=*;;;2;;;;;<<<>;;--;",
"<<<;====;:<<:==-==*$&@  X365:;=&&&;<,;&&;<,,====;;",
"<<<;==**;,<<:;==*=*$&$  X366:*;&&&;2<;&&;,,<==*=;;",
":>>>:>>::,::;;=***&@$+  o366;*****;;;****:,;==;,;;",
"-;;:<<<<<;;;;***&&$@+O  X465*$&*==&&&***;****==,<<",
"--:<<<<<<:=--;;*&&$@+X  X366=%&**=&%&*==;====;:,2<",
"---::::>:;===&=&&*&@@X  X233*%$*&**&&=:,;*=**&*:;;",
"=-=--===;=-=&&&*==*&&@  X:<,&&&&&&*==:,,,===&&$&&&",
"====--=-==-;*&&&==*&&$  X:<,*&&&&&*==,,<,=;*&&&&&&",
"***=*=*&**;*&$$%=$=&&@  X:<<=&%**&**;;;,;==*%&&&&&",
"&&&&&$@+O$&&$O+++++$&$  .:<,;=====&&&&&&**====;&&&",
"&&&&&$+++$$&@+++++@=&$. X:<<:====*&&&&&&&==*===&&&",
"$&$%%$@@+$%$$++@++@$$@  .;::**=&**&&$$&$%****&*%$$",
"+++@@+@+O@@++@+++++@+O  .+@@@+@@++@+@+@+@++++@@+++",
"+@++++++++++++@++++++X  .O++@+++++@+++++++@++++++#",
"+++OO+@O+++++++++++++X   OO+++O++++O++++++++++++#+",
"XXXXoXXXXooXXXXXXXX      ..    .OXOXXXOOXXXOXXOXXX",
"XXXXXXXXXXXXXXX.XX.             .XXXXXXXXXXXXXXXXX",
"XXXXXXXXXXXXXXXXXX.             XXXXXXXXXXXXXXXXXX"
};
