/* XPM */
static char *_3f73d4baf574b23d9642e44abfb6a63rmx0dCTxTeP2rVZQ[] = {
/* columns rows colors chars-per-pixel */
"50 50 125 2 ",
"   c #4D5439",
".  c #555D3E",
"X  c #56603E",
"o  c #58613F",
"O  c #565D42",
"+  c #595F44",
"@  c #575C4A",
"#  c #595F4A",
"$  c #5B5D56",
"%  c #5B5B5B",
"&  c #576042",
"*  c #5A6144",
"=  c #5E6C45",
"-  c #5C614C",
";  c #5E6B48",
":  c #5D6251",
">  c #5F605C",
",  c #616F46",
"<  c #616D4B",
"1  c #647347",
"2  c #687847",
"3  c #66744A",
"4  c #6A764E",
"5  c #677849",
"6  c #69794A",
"7  c #707F4F",
"8  c #646D55",
"9  c #62635D",
"0  c #686F59",
"q  c #677154",
"w  c #6B7653",
"e  c #6D7A51",
"r  c #6B735C",
"t  c #6F785B",
"y  c #717E54",
"u  c #70775F",
"i  c #727C5B",
"p  c #5F5E60",
"a  c #605F60",
"s  c #5F6060",
"d  c #646463",
"f  c #676867",
"g  c #696D66",
"h  c #6C6D6B",
"j  c #706F6F",
"k  c #6F7661",
"l  c #6E706D",
"z  c #717664",
"x  c #747C63",
"c  c #73756D",
"v  c #757A6B",
"b  c #797D6E",
"n  c #716F71",
"m  c #747474",
"M  c #787677",
"N  c #767972",
"B  c #7A7C74",
"V  c #777678",
"C  c #787679",
"Z  c #7D7D7E",
"A  c #807F7F",
"S  c #748255",
"D  c #788557",
"F  c #788956",
"G  c #778558",
"H  c #79855A",
"J  c #7E8D5C",
"K  c #798263",
"L  c #7E8965",
"P  c #7C836B",
"I  c #7F886B",
"U  c #7E8373",
"Y  c #7F817D",
"T  c #808E5D",
"R  c #80876F",
"E  c #838C6D",
"W  c #808474",
"Q  c #83857B",
"!  c #83857C",
"~  c #84857E",
"^  c #86897B",
"/  c #86887E",
"(  c #898D7A",
")  c #8B9278",
"_  c #8C9478",
"`  c #7F7F81",
"'  c #807E80",
"]  c #807F81",
"[  c #7F8080",
"{  c #838283",
"}  c #848383",
"|  c #868682",
" . c #838384",
".. c #848384",
"X. c #868585",
"o. c #878586",
"O. c #868487",
"+. c #8B8F82",
"@. c #898985",
"#. c #868488",
"$. c #878588",
"%. c #888689",
"&. c #89878A",
"*. c #888888",
"=. c #8A898A",
"-. c #8B888B",
";. c #8C898B",
":. c #8B888C",
">. c #8B898C",
",. c #8C898C",
"<. c #8D8B8D",
"1. c gray55",
"2. c #8C9083",
"3. c #93958B",
"4. c #8D8B90",
"5. c #908E91",
"6. c #918E91",
"7. c #959396",
"8. c #969496",
"9. c #979598",
"0. c #9B9A9C",
"q. c #9C999C",
"w. c #9D9B9E",
"e. c #9D9A9F",
"r. c #9E9BA1",
/* pixels */
"n Z Z #.,.,.x = 1 1 4 w 4 4 4 7 S y S y S S 4 e 4 , = = U ,.1.P S S S S S x Z Z N w w e S S e .     ",
"Z ,.,.9.w.w.R 2 4 6 H D D H H T T T T T T T F D H 6 6 6 2.r.r._ J T J T J E -.:.( G G G T J J o . . ",
"Z :.-.8.w.w.I 2 6 e G G H F H H T T T T T J F F D 4 6 6 2.w.w.) J T J J J E -.-.^ D G G F J F * . . ",
"#.9.7.,.@.o.~ U U x 5 1 6 H T H J H H J T H S 6 7 P W W | @.-.~ W W W U W ~ { { U y 5 S S D e = = o ",
"-.w.0.-.Z Z #.:.:.v = = 6 T T J D D D T T J 6 2 5 ~ :.:. .[ Y ` ] Z { { { Z [ ` B 6 5 5 6 2 5 = = = ",
"1.w.0.-.` ` o.-.:.v = = 6 J T J D D F J J J 6 2 6 / :.-. .Z [ ` ] Z Z Z Z A ] Z B 5 6 6 5 2 5 = = = ",
"1.w.w.:.o.#.o...O.z = = 4 F H D 6 S S F H F 4 6 6 Y  .{ { ` Z U P K W o.o.B r r r x v z 6 2 5 : : : ",
"1.w.w.5.-.-.o.Z ! k = = 4 G D S 6 6 2 S F S 6 6 6 B [ Y Z Y Z P H D R -.,.U = = w Z Y B 6 6 5 $ % % ",
"-.w.w.4.&.:.#.Z [ z = = 2 G G S 6 2 6 S H G 2 5 6 B Z [ Z Y ` P G G U -.:.B = = q Y Y U 6 5 3 : % % ",
"1.r.w.1.#.#.Z Z Z c r r t 4 4 i x P x H S H u z x B  .Z { o.o.U P P U { | B k k k C Z M 6 < 3 $ % $ ",
":.w.0.-.` ` ` C V Z ` { c = = r ;.;.| H H H N C V Z [ ` o.-.-...` Z B C V V ` Z ` V C c ; = = % % % ",
"1.w.0.@.` ` V V V Z ] ] z = = w -.,.| H H H N V V Z Y ] #.:.:.o.[ ` Z C V Z Z { ` V C m ; = = $ $ % ",
"1.w.0.o.Z Z N z z N Z Z c 0 0 z o.o.~ y S y B Z V Z Z Y Y U U P U B B C Z C Z Z C m m n r r r % % % ",
":.w.w. .V V t 2 6 z V C V C V M ~ Z B 6 6 6 B ` { Z  .Z i 1 6 y G G P Y Y Z V C V h g n Z ] C > % % ",
"1.r.w...V V r 2 2 z m C V V V Z ` ` B e 5 6 B ` Y [ ~ Z i 5 6 S G G P [ [ Z V V m l h n ] ] Z 9 $ % ",
"*.9.8...V V r 5 1 r c v N C Z C Z [ B t t t B Z Z B B b y 5 2 S S S G N N c c c l l n m B Z C % @ % ",
"Z :.#.` C C r = = 1 6 6 i Z Z Z V C C N M M V C V t 4 6 S D D y 5 6 1 ; ; ; ; ; q Y ` Z C C N - . O ",
"Z :.:.Z C C 0 ; = 1 6 2 i Z ` { C C C C V V V V M w 2 2 y D G 6 5 6 1 = = = = = q Z ] Z V V m * . O ",
"C -.&.Z V V g = = 1 6 1 r Z Z m C C C m M M c n c w 2 6 S D D 4 5 1 , = = ; 8 < r Z Z Z C C N - . . ",
"m V C n h h ; = = = = = 8 l h m V C N h h h < ; , 3 2 2 2 6 6 1 , = = = = w N m M C C C Z ~ C , = = ",
"h V V n h h = ; = = = = 8 g g n V V V h h h < ; < 1 5 5 2 2 2 1 = = = = , 0 M C C C V V ] ] B 8 = = ",
"f m m n h h 0 ; = = = = 8 f h h m V n h f g < ; ; 3 1 5 1 2 1 , = , = = = q m m m N V V Z Z V < = ; ",
"% f d d d d % $ $ @ O . @ f d d f f f % % % $ $ $ $ $ $ * o o o . o . . . . + + # d f d f f f d 9 9 ",
"% d f p d d % % % @ . . @ d d f d % a % % % % % % % % % @ . . . . . . . . . . . # d d d d a d d d d ",
"% a d f d f % % % - & * < d f f f f f % % % % % % % % % # * + * + * + + - O - o - d d f d d d f d d ",
"z K H H H H i i e P 1.1.:.5.5.5.4.5.,.] ] m % % % m ] ] -.1.1.+.1.2.1.+.,.+.1.+.( i i i H K H H K H ",
"y T T T T T F D D ( w.w.w.w.w.w.w.w.0.,.,.#.d % % ] :.,.9.w.w.w.w.w.w.w.w.w.w.w.3.G G G J T T J J J ",
"S T J T T J H D D ( w.0.w.r.w.9.0.0.9.:.:.#.% % p ] :.,.9.w.0.w.0.0.w.w.w.0.w.q.3.H G J J T J T J T ",
"5 S 6 R ( / ^ ^ Q @.5.7.4.4.8.1.-.-.o.} { Z 9 % % -.8.8.7.5.5.,.&.#.1.1.5.5.5.5.1.^ ^ ^ / ( ^ L G J ",
"= 6 6 ~ ;.,.;.;.:.-.-.-.-.-.-.o.Z ` Z Y ] C p % % 1.w.w.5.&.&.o.] ] } -.&.-.-.&.,.;.,.,.:.:.@.H G F ",
"X 6 5 U :.-.-.;.-.-.*.-.1.-.-.o.[ Z [ [ ` Z % % d -.w.0.5.&.&.#.] ] o.-.;.-.&.-.;.-.:.:.&.;.@.K G G ",
"z I b ~ o.| { o.#.#.:.-.o.o.o.{ Z } Y V Z V p % p 1.w.w.-.} } Z C Z ] -.;.o.] ] { -.;.o.P K x P P U ",
"Z ,.:.} Y ` Z Z ` o.*.-.o.Y [ Z ` [ Z V V N p % % 1.r.w.-.Z Z C V V ] :.&.o.N V Z &.:.| 6 1 6 Y Z ~ ",
"Z -.-.} ~ Z ` ` `  .-.-.o.Y [ ~ [ [ ` V V m % % % 4.w.0.@.Y ` Z V V ] :.:.o.V V Z :.:.| e 6 4 B Z Z ",
"V o.o.o.o...{ #.#.#.#.o. .Y [ B x x z c m n % % > 1.w.0.#.C V Z Z V ] ] ] ` B C Z O.O.B 3 1 6 Y o.#.",
"m [ Y o.-.-.-.:.*.o.Z Z [ Z ` B 6 5 4 l h f % % p 1.w.0.o.V V Z ] ` ! C C Z { ] ` Z Z B ; = 1 | :.:.",
"m [ ` #.-.-.:.:.:.o.` Y Z [ Z B 6 2 w g h f % % p 1.w.w.} V M Z ] ] Z C C C [ Z [ Z ` C ; = < } 4.:.",
"m [ ` #.#.o.o.o.o. .Z [ Z Z Z b 2 5 w l n h % % % -.8.8.U v b B U W U C Z Z { } { Y { B r 0 r Y ] o.",
"m [ Z Y ! Y ` Z [ Z Z [ Z V C c 6 2 w m V m p % % ] ,.-.P D S J T J W Z Z  .-.-.o.Y Z Z N C C C C C ",
"m Z [ [ Z ` Z  .Y [ Z Z Z V V b 6 6 w m V V % % p ` ,.;.R D G J J T P ! Z o.&.-.#.` ` ` C C C C C C ",
"n ` ` ` ` Z Z Z V ` ` Z B v c k 6 5 w m V V p % % Y 1.-.I F J L E E U A ` ] #.#.o.Z [ Z C C Z C C C ",
"n V V V C C j h g m C C c 5 5 6 5 5 e N C m % % % } -.-.E J J I B B Z V V V V V C Y Y ` { Z Z V C C ",
"h C V V C C c g h m m C z 5 6 5 6 2 e C C m p % % { :.-.E J J U A A A V V V V V Z Z Y [ Z { ` V V V ",
"f V m V m m l g g l c c k 6 5 6 w w t m C V % % % Z *.o.L F F K B B C V V V m V C Z Z Z Z Z Z V m V ",
"a h h h h h 0 ; ; , , 1 1 5 2 w N m V { ` V % % % n V Z q = , < , < 0 C V m h h m C V V C C C l h h ",
"f h h h h g 8 = ; = = o 1 5 2 t V V C ` [ Z p % % m V N q = = = ; = g C m m h h n V V V V V C l h h ",
"a h h h g g 8 = = = = = , 3 1 w N m C C V C % % % j m m 8 = * = = , 0 c m c h f h m m V m m m g g f ",
"% d d - + + . * . O o . o o * # d f d d s > % % % % p % @ X X . . . * - - : d f d f f d # * * * + + ",
"% f 9 @ . . . . . . . . . . . O > d s % % % % % % % % % O   . . . . . . . # d d d a d 9 O . . . . . ",
"% d d @ . . . . . . . . . . . @ d d s % % % $ % % % $ % @   . O . . . . . + d a d d d > . . . . . . "
};
