/* XPM */
static char *My_project__2_1678035739[] = {
/* columns rows colors chars-per-pixel */
"35 35 136 2 ",
"   c None",
".  c black",
"X  c #010101",
"o  c #020202",
"O  c gray1",
"+  c #040404",
"@  c gray2",
"#  c #060606",
"$  c #070707",
"%  c gray3",
"&  c #090909",
"*  c gray4",
"=  c #0B0B0B",
"-  c #0C0C0C",
";  c gray5",
":  c #0E0E0E",
">  c gray6",
",  c #101010",
"<  c #111111",
"1  c gray7",
"2  c #131313",
"3  c gray8",
"4  c #161616",
"5  c gray9",
"6  c #181819",
"7  c #191919",
"8  c gray10",
"9  c #1B1B1B",
"0  c gray11",
"q  c #1D1D1D",
"w  c #1E1E1E",
"e  c gray12",
"r  c #202020",
"t  c gray13",
"y  c #222222",
"u  c #232323",
"i  c gray14",
"p  c #2A2A2A",
"a  c gray17",
"s  c #2C2C2C",
"d  c #2D2D2D",
"f  c gray18",
"g  c #2F2F2F",
"h  c gray19",
"j  c #313131",
"k  c #353535",
"l  c gray21",
"z  c gray22",
"x  c #3C3C3C",
"c  c gray25",
"v  c #414141",
"b  c #444444",
"n  c gray28",
"m  c #484848",
"M  c #4B4B4B",
"N  c gray30",
"B  c #4E4E4E",
"V  c gray31",
"C  c #515151",
"Z  c gray32",
"A  c #535353",
"S  c #565656",
"D  c #585858",
"F  c gray36",
"G  c #5D5D5D",
"H  c gray37",
"J  c #5F5F5F",
"K  c #606060",
"L  c #686868",
"P  c #6C6C6C",
"I  c gray43",
"U  c #6F6F6F",
"Y  c #717171",
"T  c #727272",
"R  c #767676",
"E  c #797979",
"W  c #7C7C7C",
"Q  c #868686",
"!  c gray53",
"~  c gray54",
"^  c #8D8D8D",
"/  c #8E8E8E",
"(  c #909090",
")  c #939293",
"_  c gray59",
"`  c #989898",
"'  c gray61",
"]  c #9F9F9F",
"[  c #A4A3A4",
"{  c gray65",
"}  c #A7A7A7",
"|  c #AAAAAA",
" . c #AEAEAE",
".. c #B1B1B1",
"X. c gray71",
"o. c #B6B6B6",
"O. c #B9B9B9",
"+. c gray73",
"@. c #BCBCBC",
"#. c gray",
"$. c #C1C1C1",
"%. c gray76",
"&. c #C9C8C9",
"*. c #CBCACB",
"=. c gray80",
"-. c #CDCCCD",
";. c gray82",
":. c LightGray",
">. c gray83",
",. c gray84",
"<. c gray86",
"1. c #DDDDDD",
"2. c #DFDFDF",
"3. c gray90",
"4. c #E6E6E6",
"5. c gray91",
"6. c #EAEAEA",
"7. c gray92",
"8. c gray93",
"9. c #EEEEEE",
"0. c #F1F1F1",
"q. c gray95",
"w. c #F3F3F3",
"e. c #F4F4F4",
"r. c gray96",
"t. c #F6F6F6",
"y. c gray97",
"u. c #F8F7F8",
"i. c #F8F8F8",
"p. c gray98",
"a. c #FBFBFB",
"s. c gray99",
"d. c #FDFDFD",
"f. c #FEFEFE",
"g. c #FFFEFF",
"h. c white",
/* pixels */
"                                                                      ",
"                                                                      ",
"                                                                      ",
"                2 & & $ -                 2 $ O $ &                   ",
"                O O O O O                 & O O O O -                 ",
"              Z J J F F J N               F J F F J F                 ",
"          2 O N w.a.a.h.7.c O 0   :.Y $ 2 +.h.a.a.h./ $ &             ",
"          2 O N w.h.h.h.9.c O d >.:.Y $ 2 +.h.h.h.h./ $ &             ",
"      2 a ` { #.a.h.h.h.u.+.{ _ S m E { | 3.h.h.h.h.>.{ [ Z & 4       ",
"    y O 0 >.h.h.h.h.h.h.h.h.h.&.- O E h.h.h.h.h.h.h.h.h.a.N O $       ",
"    y O 7 >.h.h.h.h.h.h.h.h.h.-.j y ~ h.h.h.h.h.h.h.h.h.t.N O O       ",
"    0 O 7 :.h.h.h.h.h.h.h.h.h.t.1.<.7.h.h.h.h.h.h.h.h.h.t.N O $       ",
"    7 O 7 :.h.h.h.h.h.h.h.h.h.h.h.h.h.h.h.h.h.h.h.h.h.h.t.N O $       ",
"    7 O 7 :.h.h.h.h.h.h.h.h.h.h.h.h.h.h.h.h.h.h.h.h.h.h.a.N O $       ",
"    y O 7 :.h.h.h.h.h.h.h.h.h.h.h.h.h.h.h.h.h.h.h.h.h.h.t.N O O       ",
"    y O 7 >.h.h.h.h.h.h.h.h.h.h.h.h.h.h.h.h.h.h.h.h.h.h.t.N O $       ",
"    0 O 7 :.h.h.h.h.h.h.h.h.h.h.h.h.h.h.h.h.h.h.h.h.h.h.t.N O $       ",
"    7 O 7 :.h.h.h.h.h.h.h.h.h.h.h.h.h.h.h.h.h.h.h.h.h.h.a.N O $       ",
"    0 & y %.3.7.a.h.h.h.h.h.h.h.h.h.h.h.h.h.h.h.h.h.w.3.1.Z $ 2       ",
"          k a L t.h.h.h.h.h.h.h.h.h.h.h.h.h.h.h.h.h.' d j             ",
"          $ O n t.h.h.h.h.h.h.h.h.h.h.h.h.h.h.h.h.h.~ O O             ",
"            O N ..o.<.h.h.h.h.h.h.h.h.h.h.h.h.9.+.o.W & &             ",
"                2 $ ~ h.h.h.h.h.h.h.h.h.h.h.h.-.0 & y                 ",
"                $ O Q h.h.h.h.h.h.h.h.h.h.h.h.&.4 $ 7                 ",
"                    K U R <.h.h.h.h.h.h.a.) U U                       ",
"                      O - #.h.h.h.h.h.h.w.x O -                       ",
"                      $ 7 o.7.7.a.h.w.7.1.n $ 2                       ",
"                          x d J 9.h.' d k                             ",
"                          2 O k w.h.Q O $                             ",
"                          7 & n  .o.E - 4                             ",
"                                - & a                                 ",
"                                & $ y                                 ",
"                                                                      ",
"                                                                      ",
"                                                                      "
};
