/* XPM */
static char *My_project1678035739[] = {
/* columns rows colors chars-per-pixel */
"35 35 100 2 ",
"   c None",
".  c #030303",
"X  c #0C0303",
"o  c #060907",
"O  c #060608",
"+  c #070809",
"@  c #0B0B0B",
"#  c #120304",
"$  c #1C0504",
"%  c #110708",
"&  c #0E100F",
"*  c #131616",
"=  c #191716",
"-  c #181A1A",
";  c #220304",
":  c #2B0606",
">  c #280608",
",  c #250A0A",
"<  c #2B0B0C",
"1  c #340405",
"2  c #32090A",
"3  c #3C0F11",
"4  c #2E1415",
"5  c #341315",
"6  c #371918",
"7  c #440406",
"8  c #4A0307",
"9  c #470708",
"0  c #48070B",
"q  c #48080C",
"w  c #530507",
"e  c #590407",
"r  c #53060A",
"t  c #5F0509",
"y  c #55090D",
"u  c #580A0E",
"i  c #540D10",
"p  c #491116",
"a  c #501110",
"s  c #6D0607",
"d  c #63040A",
"f  c #6C050A",
"g  c #640B0D",
"h  c #6F0B0E",
"j  c #760609",
"k  c #7C050A",
"l  c #74080D",
"z  c #7E090D",
"x  c #640B10",
"c  c #85050A",
"v  c #8C050A",
"b  c #83080D",
"n  c #8F090C",
"m  c #950407",
"M  c #990607",
"N  c #92050A",
"B  c #9B050B",
"V  c #91090C",
"C  c #A60203",
"Z  c #AA0204",
"A  c #A40409",
"S  c #AB0309",
"D  c #B50204",
"F  c #BB0305",
"G  c #B10608",
"H  c #BE050A",
"J  c #AF1516",
"K  c #AC161B",
"L  c #9F272D",
"P  c #99353A",
"I  c #AB272B",
"U  c #A53937",
"Y  c #AD373B",
"T  c #A6393C",
"R  c #B0383D",
"E  c #C30306",
"W  c #CA0405",
"Q  c #C40408",
"!  c #CB0308",
"~  c #D40406",
"^  c #DC0305",
"/  c #D20508",
"(  c #DC0408",
")  c #E50305",
"_  c #E90204",
"`  c #E30308",
"'  c #E80308",
"]  c #E42A2F",
"[  c #DE494F",
"{  c #E74E53",
"}  c #DE7374",
"|  c #E57C7F",
" . c #E48381",
".. c #E88483",
"X. c #E6D0C9",
"o. c #F1DFDE",
"O. c #F0E3DD",
"+. c #F2ECEA",
"@. c #FCF5F5",
"#. c #FEFFFD",
/* pixels */
"                                                                      ",
"                                                                      ",
"                                                                      ",
"                @ . . . +                 @ O . O O                   ",
"                @ . . . X                 @ X . . X                   ",
"            - 6 x f s s x 5 *         - 4 x s s s f p = -             ",
"          @ . 2 N Z Z Z B : o o     * . $ b Z C C A 0 . .             ",
"          < $ 3 I I K D A 9 $ ,     4 ; : V D D S S d $ ,             ",
"      o X l m P X.o.} ^ ^ A n h $ . y n M ~ ^ ) ` ` G m b > .         ",
"      . X k C R +.#...) ^ F C k X . t Z Z ^ _ _ ) ' E Z N ; . @       ",
"      . X k C Y +.#..._ ' W F B w 8 v H E ^ _ _ _ _ Q C m ; . o       ",
"      . # k C Y +.#. .) _ _ _ ~ Z A ! _ _ _ _ _ _ ) Q Z m ; . +       ",
"      . X j C U O.@.| ) _ _ _ ~ C Z W _ _ _ _ _ _ ) Q C m ; . +       ",
"      . X k C J [ { ] _ _ _ _ _ ~ ~ ) _ _ ) _ _ _ ) Q S m $ . @       ",
"      . X k C D ^ _ _ _ _ _ _ _ _ _ _ ) _ _ _ _ _ _ E Z N ; . +       ",
"      . X k C D ) _ _ _ _ _ _ _ _ _ _ _ _ _ _ _ _ ) E C N ; . @       ",
"      . X k C D ) _ _ _ _ _ _ _ _ _ ) _ _ _ _ _ _ _ E Z N ; . @       ",
"      . X k Z F ) _ _ _ _ _ _ _ _ _ _ _ _ _ ' _ ) _ E Z N ; . @       ",
"          u d k F W ~ _ _ _ _ ) _ _ _ ' _ _ ) ) ! ! N t u 4           ",
"          @ . 2 M Z W _ ' _ ) _ _ _ _ _ _ _ _ ~ Z C 0 . X             ",
"          @ . 2 V B Q ' _ _ _ _ ' _ _ _ ) ) ) ! A B q . O             ",
"                2 1 j D E ^ _ _ _ _ _ ) ) F F m 1 2 5                 ",
"                X . y C C ^ _ _ ) ) _ _ ` D Z l X .                   ",
"                & @ a c v Q ^ ~ _ _ ) ^ / m c g % @                   ",
"                      # ; c D F ) ` E Z M 1 X $                       ",
"                      . $ z C F _ _ E Z V > . @                       ",
"                          a w j Q Q v e y 4                           ",
"                          & . 2 A S w . @                             ",
"                          & . 2 n B r o @                             ",
"                                > >                                   ",
"                                . .                                   ",
"                                o o                                   ",
"                                                                      ",
"                                                                      ",
"                                                                      "
};
