/* XPM */
static char *My_project__1_1678035739[] = {
/* columns rows colors chars-per-pixel */
"35 35 116 2 ",
"   c None",
".  c #020302",
"X  c #0B0203",
"o  c #070806",
"O  c #0B0807",
"+  c #070909",
"@  c #0D0D0D",
"#  c #150503",
"$  c #1D0506",
"%  c #110C0C",
"&  c #1E0A08",
"*  c #0F1211",
"=  c #131313",
"-  c #1B1B1B",
";  c #2B0406",
":  c #280708",
">  c #200908",
",  c #340406",
"<  c #3C0307",
"1  c #33070B",
"2  c #3B0709",
"3  c #320909",
"4  c #3F0E0F",
"5  c #24100F",
"6  c #341415",
"7  c #381716",
"8  c #232323",
"9  c gray16",
"0  c #393939",
"q  c #420305",
"w  c #490505",
"e  c #410D0C",
"r  c #490D0F",
"t  c #5A0307",
"y  c #550509",
"u  c #5E0508",
"i  c #540A0D",
"p  c #4F1113",
"a  c #650D0F",
"s  c #730607",
"d  c #72060A",
"f  c #7C050A",
"g  c #71080B",
"h  c #7F080F",
"j  c #640E10",
"k  c #424242",
"l  c #484848",
"z  c #515151",
"x  c #676866",
"c  c #686A67",
"v  c #7C7C7C",
"b  c #870507",
"n  c #840508",
"m  c #8C070D",
"M  c #89090D",
"N  c #9C0507",
"B  c #95050A",
"V  c #9D0609",
"C  c #99191A",
"Z  c #A60203",
"A  c #AB0204",
"S  c #A10609",
"D  c #A90E0F",
"F  c #B50305",
"G  c #BB0405",
"H  c #BE0608",
"J  c #AF1416",
"K  c #A9181F",
"L  c #952A30",
"P  c #AD3334",
"I  c #C40507",
"U  c #CB0305",
"Y  c #C0040A",
"T  c #CB060B",
"R  c #D40305",
"E  c #DC0405",
"W  c #D60308",
"Q  c #D90309",
"!  c #E50305",
"~  c #E90204",
"^  c #E30509",
"/  c #E33034",
"(  c #874644",
")  c #DF525A",
"_  c #E65A5B",
"`  c #D56B6C",
"'  c gray51",
"]  c #8F8F8F",
"[  c #939393",
"{  c #A1A4A1",
"}  c #AAA9AA",
"|  c #B3A0A1",
" . c #BBBBBB",
".. c #DF8386",
"X. c #D39E9F",
"o. c #E08383",
"O. c #E18388",
"+. c #EE9E9E",
"@. c #D99DA0",
"#. c #E69FA1",
"$. c #EE9EA0",
"%. c #DEBDB7",
"&. c #BFC1C0",
"*. c #C5C5C5",
"=. c gray81",
"-. c #D5D5D5",
";. c #D9DAD9",
":. c #E7D0CA",
">. c #E4E4E4",
",. c #E8E7E8",
"<. c #EFEAE8",
"1. c #F0E4E1",
"2. c #F4EAE9",
"3. c #F3F3F3",
"4. c #FAFAF6",
"5. c #FFFFFF",
/* pixels */
"                                                                      ",
"                                                                      ",
"                                                                      ",
"                + o o o @                 = + o o +                   ",
"                o . . . o                 @ . . . .                   ",
"              6 i t y y i 7           - k v v v v v l -               ",
"          % . : V Z Z Z B ; o o     @ . 9 >.5.5.5.3.k . %             ",
"          5 # 3 C K D A N < # &     9 = 0 >.5.5.5.3.z = 8             ",
"      @ # j n L %.:.` W R B b a % @ [ =.-.4.5.5.5.5.;.=.} - @         ",
"      . X s Z P 2.5.O.E ! F A s X . { 5.5.5.5.5.5.5.5.5.*.@ .         ",
"      . X d Z P <.5.O.! ^ I F B q 2 | 5.5.5.5.5.5.5.5.5.*.@ .         ",
"      . X s Z P <.5...! ~ ! ~ R Z V X.5.5.5.5.5.5.5.5.5.*.@ .         ",
"      . X g Z P 1.4.o.! ~ ! ~ W Z V @.5.5.5.5.5.5.5.5.5.*.@ .         ",
"      . X g Z J ) _ / ~ ~ ~ ~ ! R T #.5.5.5.5.5.5.5.5.5.*.@ .         ",
"      . X d Z F ! ! ~ ~ ~ ~ ~ ~ ~ ^ $.5.5.5.5.5.5.5.5.5.*.@ .         ",
"      . X d A F ^ ! ~ ~ ~ ~ ~ ~ ! ^ +.5.5.5.5.5.5.5.5.5.*.@ .         ",
"      . X d Z F ! ! ~ ~ ~ ~ ~ ~ ~ ^ +.5.5.5.5.5.5.5.5.5.*.@ .         ",
"      o X d Z F ! ~ ~ ~ ~ ~ ~ ~ ! ^ +.5.5.5.5.5.5.5.5.5.*.@ .         ",
"          p u s Y U W ~ ~ ~ ~ ~ ! ! +.5.5.5.5.5.5.4.} ] ' 8 =         ",
"          % X : V Z U ~ ~ ~ ~ ~ ~ ! +.5.5.5.5.5.5.3.k . =             ",
"          * . : m V H ^ ~ ~ ! ~ ~ ^ +.5.5.5.5.4.3.,.k . @             ",
"                1 , g F G E ~ ! ~ ^ $.5.5.5.5.} k k                   ",
"                o . y S F Q ~ ~ ~ ^ +.5.5.5.5.] . .                   ",
"                @ % p f n I E Q ! ^ +.5.3.&. .' = =                   ",
"                      X $ M Z G ~ ^ +.5.;.9 @ 9                       ",
"                      o # h Z G ! ! +.5.-.- . 8                       ",
"                          r w d F G ( x x                             ",
"                          + . < V S q . o                             ",
"                          % + e M M e o @                             ",
"                                & &                                   ",
"                                o .                                   ",
"                                = @                                   ",
"                                                                      ",
"                                                                      ",
"                                                                      "
};
