/* XPM */
static char *_65e523113204f26eabefaf2f85ac84dnh6uUNQTdmZHds6N[] = {
/* columns rows colors chars-per-pixel */
"40 40 204 2 ",
"   c #000000",
".  c #060B04",
"X  c #090E06",
"o  c #0A0F09",
"O  c #091106",
"+  c #0C120A",
"@  c #121D0E",
"#  c #141C12",
"$  c #1B1F19",
"%  c #15240F",
"&  c #182115",
"*  c #1A2416",
"=  c #192B13",
"-  c #1E3317",
";  c #1F3816",
":  c #202F1B",
">  c #213A17",
",  c #223C19",
"<  c #222521",
"1  c #2B3D24",
"2  c #25421B",
"3  c #2A4C1D",
"4  c #2D511F",
"5  c #2C4523",
"6  c #2C4C22",
"7  c #304F24",
"8  c #33462B",
"9  c #364B2C",
"0  c #2E5221",
"q  c #315424",
"w  c #345D24",
"e  c #355529",
"r  c #3B542F",
"t  c #375C2A",
"y  c #395B2C",
"u  c #3E5633",
"i  c #3F5934",
"p  c #366125",
"a  c #3B652B",
"s  c #3A672A",
"d  c #3F6431",
"f  c #405733",
"g  c #415935",
"h  c #455D3B",
"j  c #41732F",
"k  c #446A35",
"l  c #466339",
"z  c #476738",
"x  c #477136",
"c  c #4B7E3A",
"v  c #4D6B42",
"b  c #576A4E",
"n  c #517C45",
"m  c #547248",
"M  c #557648",
"N  c #5E7C55",
"B  c #4B8F37",
"V  c #4F813E",
"C  c #4C9038",
"Z  c #539B3C",
"A  c #4FA632",
"S  c #50A733",
"D  c #55A839",
"F  c #58AC3D",
"G  c #538C42",
"H  c #578949",
"J  c #5B8B4E",
"K  c #579141",
"L  c #599547",
"P  c #569B42",
"I  c #5B9C45",
"U  c #5D944B",
"Y  c #5C8353",
"T  c #5E8E52",
"R  c #5F9550",
"E  c #629B4D",
"W  c #628759",
"Q  c #629555",
"!  c #659B55",
"~  c #67965A",
"^  c #679B59",
"/  c #689B59",
"(  c #699D59",
")  c #5DA246",
"_  c #5BAB42",
"`  c #5FA14B",
"'  c #61A945",
"]  c #64AD4B",
"[  c #66B34B",
"{  c #68B34E",
"}  c #68BA4B",
"|  c #6BAC53",
" . c #6AA957",
".. c #6DA358",
"X. c #72A95E",
"o. c #6BB252",
"O. c #6BB952",
"+. c #71B257",
"@. c #74B45C",
"#. c #74BB5B",
"$. c #78BB5E",
"%. c #6E9B62",
"&. c #719C66",
"*. c #76906B",
"=. c #749E6B",
"-. c #789C6E",
";. c #6FA062",
":. c #72A264",
">. c #77AD61",
",. c #76A36A",
"<. c #79A36E",
"1. c #7BA96C",
"2. c #76B261",
"3. c #7BB563",
"4. c #7BBC62",
"5. c #78B964",
"6. c #7FB969",
"7. c #7DA872",
"8. c #6EC34E",
"9. c #72C652",
"0. c #73C854",
"q. c #74C05F",
"w. c #7ECC5F",
"e. c #77C061",
"r. c #7DC363",
"t. c #7FC861",
"y. c #7CC469",
"u. c #82BB6D",
"i. c #81A371",
"p. c #82AB76",
"a. c #86B977",
"s. c #88BC74",
"d. c #8BB47C",
"f. c #8CBB7D",
"g. c #80C266",
"h. c #83CD65",
"j. c #82C46A",
"k. c #84CD68",
"l. c #8ACD6E",
"z. c #85D467",
"x. c #86D668",
"c. c #8AD56D",
"v. c #8DDA6E",
"b. c #86C672",
"n. c #8AC373",
"m. c #8DCC73",
"M. c #8BC679",
"N. c #8CCA7A",
"B. c #90CB77",
"V. c #92CD79",
"C. c #8FD375",
"Z. c #90DA71",
"A. c #94D57B",
"S. c #95DB79",
"D. c #99DC7D",
"F. c #8E9F87",
"G. c #8CA283",
"H. c #8EA288",
"J. c #94A68D",
"K. c #93BF85",
"L. c #96BF8A",
"P. c #9EB996",
"I. c #A7AFA2",
"U. c #A7B4A2",
"Y. c #ABBCA4",
"T. c #8FC180",
"R. c #94C386",
"E. c #94CC82",
"W. c #9BCD87",
"Q. c #95C388",
"!. c #9DC48E",
"~. c #99CC8D",
"^. c #9AD780",
"/. c #9CDA82",
"(. c #9CD18C",
"). c #9CC594",
"_. c #9ED490",
"`. c #A3D28D",
"'. c #A3C899",
"]. c #A4D595",
"[. c #A6D893",
"{. c #ADD09E",
"}. c #A6C5A1",
"|. c #ADCBA3",
" X c #AEC7AA",
".X c #B3C7AD",
"XX c #B4CCAC",
"oX c #AFD5A1",
"OX c #B2D2A5",
"+X c #B5D2AB",
"@X c #BAC2B7",
"#X c #BAC5B6",
"$X c #BDCEB8",
"%X c #BDE1AE",
"&X c #C0C9BE",
"*X c #C3DEB6",
"=X c #C3D1BE",
"-X c #C9E1BD",
";X c #C7D2C1",
":X c #C9D4C3",
">X c #CBDAC6",
",X c #CAD0C9",
"<X c #D3D3D3",
"1X c #DCDCDC",
/* pixels */
"|.|.|.|.Q._ A S S D [ { o.| 2.).}.}.}. X,X<X<X<X=X_./././.D.V.N.B.B.s./ T T T T ",
"|.|.|.|.Q._ A S A D [ | { | 2.Q.}.}.}. X,X<X<X<X:X[.D./././.V.B.B.V.n...T T T T ",
"|.|.|.|.Q._ A S A D ` o.{ | 2.).}.}.}. X,X<X<X<X:X[.D./.^.^.V.B.B.V.s...W T T T ",
"|.|.|.|.Q._ A S A F [ o.o.| 2.).}.}.}. X,X<X<X<X:X[.D././.D.V.B.B.B.n.! T T T T ",
"L.Q.L.Q.s.] F F F _ [ [ { { 2.Q.).).).}..X#X@X#X|.`.S.D.D.A.B.n.s.n.s.i.-.-.-.-.",
"L L L P ` #.q.q.q.#.[ [ [ [ O.b.M.M.T.M.=.%.%.%.:.l.Z.Z.Z.C.g.u.g.u.s.|.&X&X&X&X",
"C C B B P q.y.y.y.e.O.[ [ [ O.j.b.b.b.6.! T T U ! k.v.v.v.c.g.$.$.$.u.=X<X<X<X<X",
"C C B B P 5.y.y.y.e.} [ [ [ O.y.b.b.b.y.! T T T ! k.v.v.v.c.g.$.g.$.s.&X<X<X<X<X",
"B B B B P 4.y.y.y.e.O.[ [ [ O.y.b.b.M.6.! T T T ! k.Z.v.Z.v.g.$.u.g.u.&X:X<X<X<X",
"P Z Z Z P  . . .+. .) ) ) ) | b.N.M.M.b.^ Q T Q Q @.$.$.$.@.X.....%.i.&X<X<X<X<X",
"} } } } ' j a a a d d k z z n T._._._.E.%.~ ~ ~ W k a a p k z z h v N &X1X1X1X1X",
"8.8.8.8.' p 4 4 0 q i i u u m K.].].].~.;.~ ~ ~ J y 3 3 3 6 f f f f b Y.1X1X1X1X",
"8.8.8.8._ a 0 0 0 0 u i g u m K.].]._._.:.~ ~ ~ Y y 3 6 3 7 r f f f b ;X1X1X1X1X",
"8.8.8.8._ a 0 0 0 e u i g g m R._.]._._.:.~ ~ ~ T y 3 6 3 7 f f g f b Y.1X1X1X1X",
"8.8.8.9.' p 0 0 0 0 8 8 8 8 l a.(._._.~.;.^ ^ ^ J q , , , 2 9 r r r v Y.>X>X:X>X",
"9.9.9.9.] p 3 3 6 2 @ X o o 1 X.x.l.l.y.o.] | | K = . X X + > , , , r p.W.`.W.W.",
"0.0.0.0.] p 3 4 3 , X       =  .z.k.h.t.o.] { { Z #       . = > , ; 0 >.N.m.m.m.",
"0.0.0.0.] p 3 3 3 > X       =  .k.t.t.t.O.] { { K %       O = , ; ; q >.B.m.B.m.",
"0.0.9.0.] w 3 3 4 , X       =  .k.k.z.t.O.{ ] [ K %       X = , ; - 6 >.B.B.m.m.",
"q.w.w.w.| j t t t e : < * * 5 ! #.@.@.+.E D E ) V 1 < < < < , 5 6 5 y @.l.l.l.l.",
"A.E.A.E.f.X.......:.p.d.K.p.<.k a a p a p w p w z F.I.I.I.J.W n n n H 5.h.h.w.z.",
"~.(.(.(.V.u.3.3.3.u.`.[.].[.K.d 3 3 3 3 3 3 3 2 l U.:X:X:X#X&.J J J R #.w.w.w.h.",
"(.~.~.(.E.6.3.3.3.u.~.].].].d.d 3 4 3 3 3 3 3 3 h Y.:X:X:X.X&.J J J E $.w.w.w.w.",
"(.(.(.(.E.u.3.3.3.s.(.[.].].f.k 3 3 4 3 3 3 3 2 z U.:X:X:X.X&.J J J U 9.h.w.w.t.",
"(.(.(.W.E.6.>.>.>.3.K.K.K.K.7.e 2 , 2 , 2 , , , u H..XY.Y.P.:.E E E ! y.m.l.m.l.",
"].{.{.{.!.:.! ( ~ Q M m m m h # X O O O O X O O % i v x v M @.g.r.t.b.].OXXXOXOX",
"{.{.{.{.!.%.Q Q Q T h i u g 8 o                 . 2 4 0 4 s @.x.x.x.C.+X=X=X=X=X",
"|.{.{.OX!.;.Q Q ! Y l g g g 8 o                 X 2 0 0 4 a #.x.x.x.C.OX=X=X=X=X",
"{.{.{.{.!.( ~ Q Q Y z g g h 8 o                 O 2 q 0 4 s #.z.z.z.C.OX=X=X=X;X",
"OXOXOXOX'.:.~ ^ / Y i 9 8 9 1 o                 X ; 2 3 2 w +.x.z.h.m.'.XXXX X X",
"*X*X-X%XXX7.%.&.,.Y < + + + O                     O + O + = E r.4.r.4.1.<.<.<.<.",
"-X-X-X-X+Xp.=.<.<.N #                                     % J 4.#.#.@.! Q Q Q Q ",
"-X-X-X-X+Xp.-.<.<.N #                                     % U 4.$.$.@...Q Q Q Q ",
"-X-X-X-X+Xp.<.=.<.N #                                     # J $.$.$.@.! Q Q Q ~ ",
"%X%X%X%XoXp.1.1.7.Y * . .   o # # & $ $ $ $ $ $ # + X . . % U @.+.@.+...( ..( ( ",
"A.A.A.D.A.A.N.C.E.>.6 = = = 5 *.i.i.i.i.G.H.H.H.*.9 > > ; 6 V U U U I 5.4.r.r.r.",
"z.z.z.z.x.S.D.D.D.5.e ; ; ; y f.`.`.`.`.OX$X+X$XU.z 3 3 3 0 c G G G L e.k.k.z.k.",
"z.z.z.z.c.S.D.S./.5.e ; ; ; u f.`.`.`.].OX+XXX+XP.z 3 3 3 q c K G G L q.k.k.k.k.",
"z.x.z.z.c.S.D.D.D.u.e ; > - y d.`.`.`.'.OXXX+X+XP.z 3 3 3 q c G G G L 4.k.k.k.k.",
"z.z.z.z.c.S.D.D.D.u.e - > > y f.`.`.`.].OX+X+X+XP.z 2 3 3 0 c G G G L e.k.k.k.k."
};
