/* XPM */
static char *c5373e24b8b6490892e24bbcd4f02050PSqA6QAvw7wfJqbd[] = {
/* columns rows colors chars-per-pixel */
"40 40 50 1 ",
"  c #19191A",
". c #242721",
"X c #262A23",
"o c #292C25",
"O c #2C3127",
"+ c #2E3429",
"@ c #30372A",
"# c #353C2E",
"$ c #373F30",
"% c #3E522B",
"& c #3A4232",
"* c #41562D",
"= c #42582F",
"- c #435E34",
"; c #456135",
": c #4B6635",
"> c #496935",
", c #4B673A",
"< c #4E6A3C",
"1 c #516835",
"2 c #506E3B",
"3 c #4F7039",
"4 c #53723B",
"5 c #597A3F",
"6 c #516543",
"7 c #546A44",
"8 c #586C47",
"9 c #5A6F49",
"0 c #567440",
"q c #587542",
"w c #5C7A44",
"e c #5F714F",
"r c #5F7B49",
"t c #617A4E",
"y c #627450",
"u c #647D51",
"i c #697F55",
"p c #618049",
"a c #668252",
"s c #6A8255",
"d c #6B8957",
"f c #6E8459",
"g c #6E8C59",
"h c #70865B",
"j c #718C5C",
"k c #72905D",
"l c #769461",
"z c #799461",
"x c #7E9969",
"c c #819B6A",
/* pixels */
">>>>>;>>>;;;;;;;;;;-;;;;;;,--;;;;;;<4442",
">>>>>>>>>>;;;;-;;;;;;;-;-;-;;-;;;;;<4442",
">>>;;>>>>;;;;;;;;,;;;;;;;-;;;;;;;;><2424",
">>>>>>>>>>;;;-;;;%;;;;;;;;;-;;;-;;;24242",
">>>>>>;>>>;>>>,,6<6<<66<<;,;;;;;;;;>24<3",
">>>>>;;;;,<<<<7iaaiiaaiia0630<;;;;;>>>>>",
">>>>>;;;;;<442qshhhhfhhhaq<303;;;;;>>>>>",
">>>>;;;;->2244qsghhhghhhsq033<,;;;;;>>>>",
">>>>>--;-><433qshhhihhhhsq<44<>;;;;>>>>>",
">>>>3<<<<3qqwwrgjjjhjhjhfrwwqq6<<<<>>>><",
"45555aadddgkkgkxccccckzkljkjkgdddda53<<<",
"5555pgkkkkllllzccccckczzlzllllkkgkdw3044",
"5555pgkkgklllllccccczlzzxlllllkkgkdq4242",
"5555wggkkkllllzcccccxzzzllllllkkkkdq2422",
"5t55pdggdglllllxcccczzzzlllllkdgjgatqqqq",
"dsdfdupuaaklllzzkcjczzzllhhhhdaaupuiffii",
"hhhhhttttikzzzzzcjcjzzzzzfhfhfiytttihhhh",
"hhhhsttttikzzzzzjcjczzzzzhhfhfirttuhhhhh",
"hhhhhtyttikzzzzzcgcjzzfczcsfhfpyytiihhhh",
"hsshi98889uissfkgcjchchchpwyyye1888ihshh",
"titt8@..Xooooo&scczkjfcsy#ooooooXX+8uttt",
"yttt<.        +icdzzjfhhyo        .1tttt",
"tttt6X        +acgckfcphyO        X6tttt",
"tttt6X        OsdcgzcpfhyO        X6tttt",
"tttt2@oooooooX#tjgggsiiiy#oooooooo+1tttt",
"www5weeeeeeeeee7<<67<,2<1eeeeeeeeyy5wwww",
"5555thhhhjhhhhi,;;;--;-;1ihhhhhhhhfw5555",
"55555shhhhhhhhi,;;;-;;;;1ihhhhhhhhdt5555",
"5555tfhhjhhhhhi,;;;;;-;-,ihhhhhhggfw5555",
"55555asssssiiit,;;;;;-;,1usiiiiiads55454",
">>>>1555qq<72<2:1::11::1:<2621ww5553>>>>",
">>>><44443;---;:111111111----111443>>>>>",
">>>>>44434;;;;;>111111111;;-;;344443>>>>",
">>>>>34543>>;;;>111111111;;;;;44444>>>>>",
">>>>>33333;;--;:1:::11:11---;>14343>>;>>",
"----;>>;>;%%*%*****%-:-;-***%=>>3>3>>>>>",
";;;;;;;;-=%%%%%%%%%%%;-;-*%%%%;>>>>>>>>>",
";;;;;-;;;-%%%%%%%%%%;;;;-*%%%*-:>>;>>>>>",
";;;;;;;;;-%%%%%%%%%%;;;;-%%%%*->>>>>>>>>",
";;;;;;-;--%%%%%%%%%%;;;;-*%%%%:>>>>>>>;>"
};
