/* XPM */
static char *dirt1677765566[] = {
/* columns rows colors chars-per-pixel */
"50 50 70 1 ",
"  c #553D2C",
". c #583F2D",
"X c #57402D",
"o c #5A422E",
"O c #5D4530",
"+ c #604732",
"@ c #644A35",
"# c #684E37",
"$ c #634C38",
"% c #6A4F38",
"& c #6D513A",
"* c #73573E",
"= c #75583F",
"- c #765740",
"; c #755941",
": c #7B5D42",
"> c #745E4B",
", c #655A51",
"< c #695C51",
"1 c #7F6045",
"2 c #77604C",
"3 c #7E634B",
"4 c #6F6256",
"5 c #6F6359",
"6 c #736355",
"7 c #7A6755",
"8 c #7C6B5C",
"9 c #6D6D6C",
"0 c #736D67",
"q c #716D69",
"w c #7E7165",
"e c #816246",
"r c #856549",
"t c #88674A",
"y c #8D6B4E",
"u c #906D4F",
"i c #8C6D52",
"p c #916E50",
"a c #8F725A",
"s c #947152",
"d c #9B7656",
"f c #9E7857",
"g c #93765C",
"h c #9C7758",
"j c #9E7958",
"k c #A47D5B",
"l c #A87F5C",
"z c #817265",
"x c #8D7661",
"c c #82786F",
"v c #8A7B6C",
"b c #8B7E72",
"n c #847D78",
"m c #A7805E",
"M c #A9815F",
"N c #9F8369",
"B c #8A8076",
"V c #86837F",
"C c #9F8872",
"Z c #94877B",
"A c #94887C",
"S c #AD8461",
"D c #B18763",
"F c #B28864",
"G c #878583",
"H c #888683",
"J c #888886",
"K c #878789",
"L c #878889",
"P c #888889",
/* pixels */
"SSMsyiyyy:*****tSDkyyyiyt;***&*o  @****&yMDf**:MDM",
"DFSdsyysue*****yDFlpsiysy=*****O X#*****yFFf**eDDS",
"SSSsppyyy:*****tSSkyyyyyt=*****OXX%**===yDDf**eMMM",
"eeeyiy*@+*=*****#%#+@@O@#*=*Ooo:re:**ymkjsdr+oo#%%",
"***yuu@  #*****@        o&**o X1ppe**sFFkuu:X     ",
"**=yuy@  #****-#  .X    o**&OXX1uy1**uDDkpp1XX... ",
"kffe::*#%@OOekky:e::1:&%*djdO X&e1=***&&7BBvsdt&##",
"DDMe*****+  rFFkpppspt==1MFS# X&*=***@  <JJAFFk=**",
"DDMe***-*+  eFFkpuuupt**:MFM# X&=****@  <JJZDDk-**",
"kdd755ids:@#*::risteetpddjjd:=-=**#@+@#@3CCNjks=**",
"pui099kFFt*=@  &uur**eDDSsyuusu:**o  @==yDFluut=**",
"pui099NFFt**@  &ust**eDDSsiupps:=*+  @=*yFFMppy***",
"pup666gkkspp-  %upt**:sspppy:****=:ee-**tkkp=*****",
"ppu=**tpplDF:  *upr=****-ypyO .&**fFFi**epp:  O***",
"piy=**tuplDDe  %syt=*=**:ypu+  %*=jFFs**epp:X o***",
"ffd*#%tpphlle+O-yse%####&::-@++***ruue--:tt:++%ttr",
"DDM#XX1uppppe**1sp1  X     .&*****+  @**=*=***eMDS",
"DDM@ X1sppppe**1ys1        .******+  @*=******eSDS",
"FDM&oO1ttttt1222tt:Oo+&&&&&&***ere=&&&**=:=:**1mSl",
"DDM1****==**4995==***eMFMDDl:**kFSDMDu**euut**:ppi",
"FFM1********4995==***eMFFDDS:**kFFFFDp**eupr=*:yii",
"llk:**:111117006=:=*&:kmllSl=**fSMmmly**3sai:-1yuy",
"====**kSSMMMhiiiyy:XXO;;:ppu+..espe---**8GGbyypspy",
"====**kFFFFFfpppps1  o==-iuy+  espe*===*8PPBsysypu",
"====*=kMMMSDdyppys1  o**=yyt@OOeuy:**--=8HGbyttyyt",
"uuu==*:=1tsst;;eps:X   XO*:-ttt:--=*=eyyyaae+O@=--",
"uuu=***=*tpp1**1ps:X    X***ypp:*****eppuup:  O*=*",
"uuy===***tyy1=*1yy:XX  .O***tpu:*****espppse. O=-=",
":::ryt#oo*::;=*&@OOX..&&**==yuy:-*@O.rSlSlSs&&*tyt",
"***yuu@. #**=**@     O*****=yuu:**+  tFDFFDk=*:yuy",
"**=yuu@  %==**=#X X .O****==yip:**+  rDDDDDf==:iuy",
"**=yuu*%%yjjr*;;1:rsputte@o@dllkdk&  :dddddgccz1::",
"=*=ypy1=*dFFs**1ppjFFMppyoXomDDDFF=X ;yuupuxJPn;**",
"**=ypy:==dFFu**1ppdDFMpproXojFDDFD*  *iippuxJJn;-*",
"rrre11=**yjjt**1pppyypppt<,<sjjr:;@X ;pppiui887O+O",
"uuu=**=*=rup1*;1ppr**=ppi090ipy@    X*ppuput*;&X  ",
"sui:****=rppr**1psr*==ppi99qipp@     *pppppt**&X  ",
"*=*$@#***tpy1**:eetppyre36463re%@+&*&;re1r1rppy1e1",
"      &**rpp3*;***rFFm==*=****=***tps3*==**rDFFDFS",
"      %=*tspe*****tFMm=**********=tps1*****tDFDDFS",
"+++##&***1rr1;;;*=1mmd111***%##$##==1=**1ttsmmkkkk",
"===yuy:**=**;;,;**1pppppy=**o X X X  @**yFDmyppusy",
"=*=ypu:*****;>;;==1ippppy***oXXX     @**yFFmpupppy",
":::ttt:*=1er;&<&%%=trreeeee1@oOOOo@@@&**tjkdpipupi",
"yiy:*=***dDFi**#XXo**&XX@mMM1&****rype**==*1pysyyy",
"puu=**=**dFFp**#XXo**%XX+MFM1**==*tppe*****1usyssy",
"ppu=*=:11dMMp:;&oo$22;Oo@kDMe:;**=rtye22;::1yyttrr",
"ppy:==jSMfsspyye**6GLw**=psppyy:====*wVGvyyr==*ooX",
"ppy:==kFFjuupusr**7JJG>*=ysyppp1***=*wJLbuut==&X  ",
"ppu===jFMjupppyr**7JLw;*;yysppy:=****wLKbpur**&   "
};
