/* XPM */
static char *grass1677765566[] = {
/* columns rows colors chars-per-pixel */
"50 50 26 1 ",
"  c #435F27",
". c #465F29",
"X c #466229",
"o c #4A652B",
"O c #4D6B2D",
"+ c #516D2E",
"@ c #4F712E",
"# c #52712F",
"$ c #4F6F31",
"% c #526E30",
"& c #4F7031",
"* c #547431",
"= c #587633",
"- c #567933",
"; c #5A7C35",
": c #5D7F38",
"> c #5D8136",
", c #5E8339",
"< c #5F8A39",
"1 c #608237",
"2 c #628539",
"3 c #648A3B",
"4 c #698D3C",
"5 c #66923E",
"6 c #6B913E",
"7 c #6A9140",
/* pixels */
":22=##;,1;;;===#=#=431oXX@*&,<<,:2;==:32;oo#442+++",
":22=#@;,1;;;====#==131oXX@&&><,<:7;==;33;oO#343+++",
":11=##;21;========;441ooo@&&,27::::=%:72>oo@443#++",
"*==;>>244=oo+#+=;::;:;======,2<,:7:%%:77>ooO==;;::",
"&-*;>>344#X o=#=:1:;;;;=====,2<227=%#:66>ooo#==>:1",
"**-;;>344#XX+++=111;;;=====%,2<242;%*166<ooO=#->1:",
"@**%%$;231;;+ooo+++232##*::77,,,22;==:55<>1;ooO;::",
"+**$OO;<1314=oooXX+341++%2:7:::,:::=;1345441XXo;;;",
"#*#O$o;<,,<<=oooXX+332#O=243:::1:,:=;:55444:X.o;:;",
";>>**&*--:<<;++++O+%%*--=*##+++===:>233331:::;;%++",
",<<---*#*=:7;##==*+X.o;>;OXoXX.+%*>332321;;:463ooo",
",,7-*=**%-::;###&*%..o;<:OooXX.+**;3223<2;;:444ooo",
"*-=%*%%+%;222;;;;;;*@---=;;==**;>,:;-<331**;454%=+",
"oOO%%$+%%:334333<2<<<<@*=344>>:477;&O>33:++=773;==",
"o+o%$$$%%:343233,<2<<<***344:::477>&&;43:++=574-=#",
"%%%%%*Ooo=>;2321>>>-----;244;*=2<7,-->>>;--;222-==",
";;;#%%$XoO@@>23:#*@XXo>><>22%oo=,,<33<**->>>-;-#==",
";;;##$oXXO##-222--&XXo>>>232%oo;><<3<>**-,>>;;--*%",
";1>=*#$$OO@@-,2:;=-$@#>1,>;;+oo;<<>>>-#@&;;;*#**%*",
"345;***-=@oo#==;;>>34322>&&*OoO=>>#OoOOO&-&&oooooO",
"555-&-*-*@oo+==;>>134311>*&&OXo-,<#OOOOO&&*&oooooo",
"<3<>---&*#O@+#*=11344211>*$&$$$*;;#@@#OO&;-&oOooOo",
"***>>;=#%*-;#oo#434666232**O;;>**+;;>;=*><<,$o$OOO",
"@**-;>*++--;+oo#444666322$OO;>>*%+;11;--;<7,$$o$O%",
"@@&>>,-&#-;;#Oo-44467422:*&&-,;*&&-22;--;:::##++%%",
"XoX---<<3<>222<3112447;=**&*---$oo;773><=+o+:2:::=",
" XX*;-<7331<3333113444-*****---$oX>77322;o.+442:;:",
"XXo-;;,<21<<333<212444;-=*&*--&OoO;433<>=oo=::2;:;",
"+++:2:&oO>33<><343223222<--*$OO&--@@OOOO#1;;***===",
"++=:27$XX-3<3>>2444222232-#=OOO->>&XXooo#121*****=",
"++=:22$XX-33<>>2443232322-*-OOO->>#ooooo#>1>%+%==*",
"::::;;-*@>3<>@#=1211;>3342<,>>>&##=;>>;;#OO#===%++",
":14;;:;=->22-oo&:4::;:44:44:2<<-OO>332:2=X.o-;-$++",
"141;;;;=;:22-oo*::::;;444444211#+O;2322:=X.$-;-%O%",
"##==O&;22>>2-XoO==;11:::::;;#####-##*-,,:***;==**=",
"OO+oOO>432;>#XXo++=141;=====oXX#;=#oX*,<,:;;====*-",
"oO@oOo>33<>>*XXo++=432-*==--ooX#;-$Xo*<>>;>;;===*-",
"@###@@*--->>-@%#===12>&$+###OOO+@#%*-;::;##@+++;--",
"##-#&%Ooo->>>-;;:1:::;oXoo+O@+#Ooo-7<,;:-OooXXo;>>",
"#-##&*Ooo*>,;;;;:1:,,;oXo+++@##OOo-<2,:;=XoXXXX>>>",
"=;:===+oo*<,>;>><,:==-%*#@*#+++%#=;>>;-;=-*&XXo;;>",
"24421;+.o*,,>,><<,>%%%<3<;>=+o+;21;;---#;<<;OOO===",
"334:11+oX*<,2212<7:$%%22<;;;+oO=31;==---;2<<OXO=-=",
"=;;:41+.o&;;;==;,<;*==232>;=++O-===;;-#@-23,&**;>>",
".oo:44#Oo+++Ooo+--,7454551>;**@oo.=;;=@@*32,<2<733",
"..o244=Ooo++Ooo+--;733454>11*&*ooo=;;-@O-337<32<34",
"+++:23=++++O+@+#--,<33432211&$$Ooo=:>-@@-2<<,,,222",
"244;;=##++Oo=434<7<;;-=;;243$X.$==:45,*=--;-******",
"447===*##+oO=473722;-----773$. $==:441==--->#@-###",
"244=*=##++oo=4332,,---*--222o. $=+::31-##--@#####+"
};
