/* XPM */
static char *Creeper1677764535[] = {
/* columns rows colors chars-per-pixel */
"50 50 198 2 ",
"   c #000000",
".  c #070F05",
"X  c #0A1307",
"o  c #0E1A0A",
"O  c #111D0C",
"+  c #191E17",
"@  c #13230E",
"#  c #182115",
"$  c #1A2E13",
"%  c #1E201D",
"&  c #1D3316",
"*  c #1F3916",
"=  c #213A17",
"-  c #23311D",
";  c #213A18",
":  c #283F1F",
">  c #273321",
",  c #2B3A24",
"<  c #2B3228",
"1  c #27441C",
"2  c #29471E",
"3  c #2A4C1D",
"4  c #2D521F",
"5  c #2B4522",
"6  c #2C4C21",
"7  c #304F24",
"8  c #354D2A",
"9  c #2E5321",
"0  c #315223",
"q  c #345C24",
"w  c #36542A",
"e  c #38562C",
"r  c #375C29",
"t  c #3A5E2D",
"y  c #344731",
"u  c #354831",
"i  c #3E5734",
"p  c #3F5933",
"a  c #396328",
"s  c #3D6C2B",
"d  c #3D702A",
"f  c #3F6533",
"g  c #405835",
"h  c #445B3A",
"j  c #436338",
"k  c #4B6C3E",
"l  c #477636",
"z  c #546E4B",
"x  c #517645",
"c  c #527E46",
"v  c #58764C",
"b  c #607D56",
"n  c #66775E",
"m  c #4B8F37",
"M  c #4F823D",
"N  c #50843F",
"B  c #4C9137",
"V  c #4C9038",
"C  c #50943C",
"Z  c #4FA632",
"A  c #50A733",
"S  c #53A837",
"D  c #548443",
"F  c #598647",
"G  c #548C42",
"H  c #5A8C4E",
"J  c #569043",
"K  c #5E9D47",
"L  c #5E934E",
"P  c #5E9C4A",
"I  c #5E8E51",
"U  c #5F9051",
"Y  c #609D4C",
"T  c #618254",
"R  c #639555",
"E  c #649B53",
"W  c #66965A",
"Q  c #6A935E",
"!  c #6A9B5C",
"~  c #5FA446",
"^  c #5EAC43",
"/  c #64A64C",
"(  c #63AD4C",
")  c #68AE4E",
"_  c #66B34C",
"`  c #69B34D",
"'  c #6BB94E",
"]  c #65A054",
"[  c #6AAF51",
"{  c #6CA35A",
"}  c #6FAE58",
"|  c #70A45A",
" . c #6AB151",
".. c #6EBB54",
"X. c #6FB65C",
"o. c #6FBC58",
"O. c #73B35C",
"+. c #78B65F",
"@. c #74B95C",
"#. c #78BA5E",
"$. c #6B9A60",
"%. c #759868",
"&. c #759E6C",
"*. c #7A9E71",
"=. c #71A164",
"-. c #76A16C",
";. c #79A66A",
":. c #7DAC6E",
">. c #7BB563",
",. c #77BB60",
"<. c #7BBA62",
"1. c #7DB66B",
"2. c #7EA673",
"3. c #6EC24E",
"4. c #70C450",
"5. c #73C854",
"6. c #7DC65F",
"7. c #7ECC5F",
"8. c #7DC364",
"9. c #7FC862",
"0. c #7CC368",
"q. c #819979",
"w. c #81BE67",
"e. c #83BD6D",
"r. c #85BC70",
"t. c #8CBD7A",
"y. c #90BD7F",
"u. c #80C666",
"i. c #82CC65",
"p. c #84C56F",
"a. c #84CC68",
"s. c #8ACC6E",
"d. c #85D467",
"f. c #86D368",
"g. c #8DD76F",
"h. c #8DD96E",
"j. c #86C772",
"k. c #8AC573",
"l. c #8ECB74",
"z. c #8EC67E",
"x. c #90CB77",
"c. c #91C67E",
"v. c #92CA7A",
"b. c #8CD470",
"n. c #92DA75",
"m. c #96D37D",
"M. c #98DB7D",
"N. c #8DA285",
"B. c #8AAF80",
"V. c #92A68A",
"C. c #8CB381",
"Z. c #95BD83",
"A. c #96B58D",
"S. c #96BC89",
"D. c #A3BC9B",
"F. c #AAB3A5",
"G. c #A8BDA0",
"H. c #95CE84",
"J. c #98CE87",
"K. c #9BCC8B",
"L. c #94D182",
"P. c #98D385",
"I. c #9BDA81",
"U. c #9BD08B",
"Y. c #9FC796",
"T. c #9FD091",
"R. c #A2D18C",
"E. c #A1CD94",
"W. c #A2C69B",
"Q. c #A5CA99",
"!. c #A3D595",
"~. c #A7D797",
"^. c #A7D198",
"/. c #ADD19E",
"(. c #A6C5A1",
"). c #A9C7A3",
"_. c #AECBA4",
"`. c #AEC6AA",
"'. c #B0CBA7",
"]. c #B5CFAD",
"[. c #B2D1A6",
"{. c #B1DCA1",
"}. c #B6D0AE",
"|. c #BAD8AD",
" X c #B4C3B1",
".X c #BBD4B2",
"XX c #B6E0A5",
"oX c #C0CEBA",
"OX c #C1DAB7",
"+X c #C2D1BD",
"@X c #C1D8B8",
"#X c #C9E1BD",
"$X c #C7CEC5",
"%X c #C7D2C1",
"&X c #C9D3C3",
"*X c #CDD3CB",
"=X c #D2D2D2",
"-X c #DCDCDC",
/* pixels */
"_._._.Q._.Q.^ Z Z A A Z ^  .[ [ [ [ 1.W.(.(.(.(.`.*X=X=X=X=X*X/.M.M.I.I.I.M.x.x.x.x.x.r.R I I I I I ",
"_._._._._.Q.( Z Z Z A Z ^  . . .[ [ 1.W.(.(.(.(.`.$X=X=X=X=X*X{.M.M.I.I.M.R.x.x.x.x.x.r.R U I I T I ",
"_._./._._.E.( Z Z S S Z ^  . . .[ [ 1.W.(.(.(.(.`.$X=X=X=X=X*X~.M.R.M.M.R.m.x.x.x.v.v.r.R I T I U I ",
"_._._._._.Q.( Z Z Z Z Z ^ _  . .[  .1.W.(.(.(.(.`.*X=X=X=X=X*X/.M.M.R.M.M.M.x.x.x.x.v.r.R U U I U R ",
"_._._._._.Q.^ Z S S Z Z ^  . ._ [ [ 1.W.(.(.(.(.`.*X=X=X=X=X*X{.M.R.M.R.M.m.v.l.x.v.v.r.U I R I I I ",
"W.Q.W.W.W.K.( S S S S S ^  . .' [ [ 1.Y.W.W.W.W.).oX$X$X$X$X+X~.M.M.M.M.M.x.x.l.x.x.k.r.Q Q Q Q Q Q ",
"] E P E P ] X.o.o.o.o.3.' _ _ _ _ _ o.H.H.H.H.H.t.2.*.*.*.*.*.j.n.n.g.n.n.l.w.w.w.w.w.t.'.F.oX XF.oX",
"m B V V V V X.0.0.0.0.0.o._ _ _ _ _ o.0.0.j.1.0.p.R H U U U U 0.h.h.h.h.h.a.w.+.w.w.+.y.&X=X=X=X=X=X",
"B B B m V C @.0.0.0.0.0.o._ _ _ _ _ 5.j.j.0.0.L.1.E U U U U U 0.h.h.h.h.h.s.#.w.<.<.>.y.&X=X=X=X=X=X",
"B B V V V C X.0.0.0.0.0..._ _ _ _ _ X.j.j.L.0.0.r.E U U U U U 0.h.h.h.h.h.i.+.w.<.<.+.y.%X=X=X=X=X=X",
"V V V m V V @.0.0.0.0.0.o._ _ _ _ _ o.0.j.j.0.z.1.R U U U U U 0.h.h.h.h.h.s.+.+.<.<.+.y.$X=X=X=X=X=X",
"B B B V V V X.0.0.0.0.0.o._ _ _ _ _ o.0.L.j.z.0.j.R U U U U R <.g.h.h.h.g.a.w.+.<.<.w.y.&X=X=X*X=X=X",
"^ ^ ^ ^ ^ ~ C D M D N G N N M M D D P H.P.P.P.U.H.! R R R R R H F C F F J F F k F F F %.*X-X-X-X-X=X",
"3.3.3.3.4. .d 4 4 4 4 4 r p p p t i I T.!.~.T.!.K.$.Q W W W W f 3 3 4 3 4 w g g g g g n *X-X-X-X-X-X",
"3.3.3.3.3.' d 4 4 9 4 9 e g g g i i b Y.T.~.T.T.K.$.W W W W W f 3 6 6 3 3 w g g g g g n =X-X-X-X-X-X",
"3.3.3.3.3.' d 4 9 9 0 9 e g g i i i I T.~.T.~.~.K.=.W W W W W f 2 6 3 3 3 w g g g g g n =X-X-X-X-X-X",
"3.3.3.3.3.' s 4 9 0 9 9 e g g g i i b T.!.!.!.!.K.=.W W W W W f 2 6 6 6 6 w g p g g p n *X-X-X-X-X-X",
"3.3.3.4.3.' s 4 9 0 6 0 e g g h h i I T.!.!.!.!.K.=.W ! $.W Q f 6 6 6 6 6 w g g g g p n =X-X-X-X-X-X",
"4.4.4.4.4.' d 3 9 3 0 9 5 , , , , , z H.L.P.P.P.H.{ ] E ] ] R w * * & & & 5 8 8 8 8 8 z ].@X@X@X.X.X",
"5.5.5.5.5.' d 3 4 3 3 3 @ .         5 1.s.a.i.s.0._ ) )  . ./ *           o = ; ; = = p r.v.v.v.L.L.",
"5.5.5.5.5...d 3 3 4 3 3 @           5 u.i.i.i.i.i.` ) _  ._ / ;           o = ; = = * t e.l.l.l.l.l.",
"5.5.5.5.5...d 3 3 3 3 3 @           5 w.i.i.f.i.6.` ) ) ( _ / ;           o = ; ; = * t e.x.l.x.l.l.",
"5.5.5.5.5.3.l 3 6 6 3 6 @           5 0.i.i.i.i.9.` ) _ ) ) / ;           o = ; ; = = t r.l.l.l.l.l.",
"5.5.5.5.5.' a 3 3 3 3 3 @           5 u.i.i.f.i.u.' ) ` _ ` ) ;           o = ; = = * t k.x.l.l.x.l.",
"6.5.6.6.5.5.l r r r r r : + # # + + w O.#.#.#.#.O./ C / K / J 8 % % % % % - 2 2 5 3 1 j w.f.s.f.l.l.",
"H.L.H.m.L.v.;.{ | | | | :.y.C.C.t.y.| a q a q a a q q q q q q q.F.F.F.F.F.q.c c c F l L u.i.i.i.7.9.",
"U.U.U.U.U.J.e.>.>.>.>.w.c.!.!.!.E.^.q.4 3 4 3 3 3 3 3 3 3 2 0 V.&X&X&X&X&XA.T H H H H E u.i.7.7.7.d.",
"U.U.U.U.U.J.e.>.>.>.>.>.c.!.!.!.!.~.w.4 3 3 4 3 3 3 3 3 3 3 0 V.&X%X%X%X+XA.I H H H H Y 5.i.i.7.7.7.",
"U.U.U.U.U.J.1.>.+.>.>.>.c.!.!.!.!.!.;.0 3 4 3 3 3 3 3 3 3 3 0 V.&X&X+X%X$XA.I H I H H E 6.i.7.7.7.7.",
"U.U.U.U.U.J.e.>.>.>.>.>.c.!.!.!.!.~.:.0 3 3 3 4 3 3 3 2 3 2 0 V.&X%X&X%X+XA.H H H H H L 6.i.7.i.7.7.",
"U.K.U.U.U.J.e.>.>.>.>.>.c.T.E.T.E.!.;.7 2 3 3 3 2 2 2 2 2 2 6 N.oXoXoX.XoXA.U H H H H E u.i.i.i.d.u.",
"^.^.^.^.^.E.;.{ ! { ! ! R T T T T T h O o o o o o o o o o o O h b b b b b W ,.,.#.#.#.p.!.^./.^./.^.",
"[././._./.Q.=.R R R R R x i i i g g ,                         * 4 9 4 4 9 C f.f.f.f.d.m..X+X+X+X+X+X",
"/./././.[.Q.;.R R R R R x i g g g g ,                         ; 9 9 9 9 9 J f.f.f.f.d.m..X+X+X+X+X+X",
"/./.[././.^.=.R R R R W x g i g g h ,                         * 9 9 9 9 4 C d.d.f.d.d.v..X+X+X+X+X+X",
"/././././.Q.;.R R R E E x g g g g h ,                       . = q 9 9 9 0 N f.d.d.d.d.m..X+X+X+X+X%X",
"_././././.Q.;.R R R R R x i g g h h ,                         ; 9 9 4 9 9 J d.d.d.d.f.m..X+X+X+X%X@X",
"|.|.|.OXOX[.q.$.$.$.$.$.h - - > - - +                         O $ $ & & $ l 8.u.u.u.u.p.S.A.A.A.A.A.",
"#XOX#X#X#XOXt.%.*.-.&.&.u                                                 w #.#.#.#.#.O.R W W E W R ",
"#X#X#X#X#XOXt.%.-.-.-.*.u                                                 w ,.#.#.#.<.O.E R R W R R ",
"#X#X#X#X#X.XB.&.-.-.-.&.u                                                 w ,.,.#.#.#.O.W R R R R R ",
"#X#X#X#X#X.XB.&.-.-.-.&.u                                                 w >.,.#.#.#.O.R R R R R R ",
"#X#X#X#X#X#XB.&.-.&.*.&.y                                                 w >.,.#.#.#.O.E R R E R R ",
"XXXXXXXXXX{.t.1.:.:.:.:.i . . X . . O > > > > > > < < < < < < O X X X X X e } }  .} } } { { { { { { ",
"h.g.b.b.h.b.L.M.m.M.m.m.c & & & & $ j y.K.Z.Z.Z.S.D.G.G.G.G.D.z 1 1 1 1 1 a G J J J J P u.a.u.a.9.a.",
"7.h.h.7.7.h.n.I.M.M.M.M.F * ; * = = k R.R.R.R.R.!.[.}.}.}.}.'.v 2 2 3 3 6 s G G G G G P a.a.a.a.a.a.",
"h.7.7.7.7.h.n.M.M.M.M.M.F * ; ; = = k K.R.R.R.R.E.[.}.}.].].'.v 3 3 3 3 2 s G G G G G P 9.a.a.a.a.a.",
"7.h.7.h.h.7.n.M.M.M.I.L.F * ; * = & k K.R.R.R.R.^.[.].}.].].`.v 1 3 3 3 6 f G G G G G P 9.a.a.a.a.f.",
"h.7.n.7.7.n.I.I.I.I.I.M.~ * * * * * k U.U.T.U.T.!.[.].].].]._.v 3 3 3 3 3 s G G G G G P 8.a.a.a.a.a.",
"7.h.7.h.n.7.7.I.I.I.M.I.V * * * ; * k U.T.T.R.R.!.{.].].].].'.v 1 3 3 3 3 a G G G G G P 8.a.f.a.a.a."
};
