/* XPM */
static char *Endermen1677764535[] = {
/* columns rows colors chars-per-pixel */
"50 50 99 2 ",
"   c gray4",
".  c gray3",
"X  c #0C0C0C",
"o  c #111111",
"O  c gray7",
"+  c #0E0E0E",
"@  c #040404",
"#  c black",
"$  c #161616",
"%  c #010101",
"&  c #101010",
"*  c #060606",
"=  c gray2",
"-  c #151515",
";  c #020202",
":  c #070707",
">  c #131313",
",  c #0B0B0B",
"<  c gray1",
"1  c #090909",
"2  c gray8",
"3  c #151615",
"4  c #0C0A0C",
"5  c #0A090B",
"6  c #0B090B",
"7  c #0A070B",
"8  c #0A060B",
"9  c #110E12",
"0  c #1F1D20",
"q  c #201E20",
"w  c #1F1E20",
"e  c #1D1C1E",
"r  c gray9",
"t  c #715E7A",
"y  c #A184AD",
"u  c #9F83AB",
"i  c #A083AB",
"p  c #9A71AA",
"a  c #945CA9",
"s  c #945BA9",
"d  c #9B6CAC",
"f  c #A688B2",
"g  c #A68AB2",
"h  c #A88BB4",
"j  c #846E8D",
"k  c #211F22",
"l  c #725E7A",
"z  c #A488B0",
"x  c #ECC2FD",
"c  c #EAC0FB",
"v  c #E2A5F9",
"b  c #DA87F8",
"n  c #D986F8",
"m  c #D987F8",
"M  c #DF9BF9",
"N  c #E9BEFB",
"B  c #E9C0FB",
"V  c #B797C4",
"C  c #272328",
"Z  c #A286AE",
"A  c #E9C0FA",
"S  c #E7BEF8",
"D  c #E0A3F7",
"F  c #D785F5",
"G  c #D784F5",
"H  c #DD99F6",
"J  c #E7BCF8",
"K  c #B596C2",
"L  c #262328",
"P  c #DFA3F7",
"I  c #A387AE",
"U  c #A185AC",
"Y  c #E5BCF5",
"T  c #DDA2F4",
"R  c #D584F2",
"E  c #D483F2",
"W  c #DA97F3",
"Q  c #E4BAF5",
"!  c #E4BCF5",
"~  c #B394C0",
"^  c #514556",
"/  c #705F78",
"(  c #6F5E77",
")  c #705E77",
"_  c #664D70",
"`  c #5C3969",
"'  c #5E4169",
"]  c #63506A",
"[  c #63516A",
"{  c #64526B",
"}  c #504356",
"|  c #1C1B1D",
" . c #514356",
".. c #121312",
"X. c #151514",
"o. c #141514",
"O. c gray5",
"+. c gray6",
"@. c white",
/* pixels */
"  . . . . . X o o o o O + . . . . . . . . . . . . . . . . . . . . . . . . + O o o o o X . . . . .   ",
"@ # # # # #   $ $ $ $ $ + % # # # # # # # # # # # # # # # # # # # # # # % + $ $ $ $ $   # # # # # @ ",
"@ # # # # #   $ $ $ $ $ + % # # # # # # # # # # # # # # # # # # # # # # % + $ $ $ $ $   # # # # # @ ",
"@ # # # # #   $ $ $ $ $ + % # # # # # # # # # # # # # # # # # # # # # # % + $ $ $ $ $   # # # # # @ ",
"@ # # # # #   $ $ $ $ $ + % # # # # # # # # # # # # # # # # # # # # # # % + $ $ $ $ $   # # # # # @ ",
"@ # # # # #   $ $ $ $ $ + # # # # # # # # # # # # # # # # # # # # # # # # + $ $ $ $ $   # # # # # @ ",
"@ # # # # #   $ $ $ $ $ & * * * * * = # # # # # # # # # # # # = * * * * * & $ $ $ $ $   # # # # # @ ",
"@ # # # # #   $ $ $ $ $ $ - - - - - & ; # # # # # # # # # # ; & - - - - - $ $ $ $ $ $   # # # # # @ ",
"@ # # # # #   $ $ $ $ $ $ $ $ $ $ $ o ; # # # # # # # # # # ; o $ $ $ $ $ $ $ $ $ $ $   # # # # # @ ",
"@ # # # # #   $ $ $ $ $ $ $ $ $ $ $ o ; # # # # # # # # # # ; o $ $ $ $ $ $ $ $ $ $ $   # # # # # @ ",
"@ # # # # #   $ $ $ $ $ $ $ $ $ $ $ o ; # # # # # # # # # # ; o $ $ $ $ $ $ $ $ $ $ $   # # # # # @ ",
"@ # # # # #   $ $ $ $ $ $ $ $ $ $ $ o ; # # # # # # # # # # ; o $ $ $ $ $ $ $ $ $ $ $   # # # # # @ ",
": @ @ @ @ @   O O O O O > $ $ $ $ $ O = @ @ @ @ @ @ @ @ @ @ = O $ $ $ $ $ > O O O O O   @ @ @ @ @ : ",
"O > > > > > , < < < < ; 1 - $ $ $ $ - > > > > > > > > > > > > - $ $ $ $ - 1 ; < < < < , > > > > > O ",
"2 $ $ $ $ $ X # # # # # : - $ $ $ $ $ $ $ $ $ $ $ $ $ $ $ $ $ $ $ $ $ $ - : # # # # # X $ $ $ $ $ 2 ",
"> $ $ $ $ $ X # # # # # . - $ $ $ $ $ $ $ $ $ $ $ $ $ $ $ $ $ $ $ $ $ $ - . # # # # # X $ $ $ $ $ > ",
"> $ $ $ $ $ X # # # # # . - $ $ $ $ $ $ $ $ $ $ $ $ $ $ $ $ $ $ $ $ $ $ - . # # # # # X $ $ $ $ $ > ",
"2 $ $ $ $ $ X # # # # # . - $ $ $ $ $ $ $ $ $ $ $ $ $ $ $ $ $ $ $ $ $ $ - . # # # # # X $ $ $ $ $ 2 ",
"O 2 2 2 2 2   # # # # # . - $ $ $ $ $ $ $ $ $ $ $ $ $ $ $ $ $ $ $ $ $ $ - . # # # # #   2 2 2 2 2 O ",
": @ @ @ @ @ ; # # # # # . - $ $ $ $ $ $ $ $ $ $ $ $ $ $ $ $ $ $ $ $ $ $ - . # # # # # ; @ @ @ @ @ : ",
"@ # # # # # # # # # # # . - $ $ $ $ $ $ $ $ $ $ $ $ $ $ $ $ $ $ $ $ $ $ - . # # # # # # # # # # # @ ",
"@ # # # # # # # # # # # . - $ $ $ $ $ $ $ $ $ $ $ $ $ $ $ $ $ $ $ $ $ $ - . # # # # # # # # # # # @ ",
"@ # # # # # # # # # # # . - $ $ $ $ $ $ $ $ $ $ $ $ $ $ $ $ $ $ $ $ $ $ - . # # # # # # # # # # # @ ",
"@ # # # # # # # # # # # : - 3 - - - 3 $ $ $ $ $ $ $ $ $ $ $ $ 3 - - - 3 - : # # # # # # # # # # # @ ",
"4 5 6 6 6 6 7 8 8 8 8 8 9 0 q w w q e r $ $ $ $ $ $ $ $ $ $ r e q w w q 0 9 8 8 8 8 8 7 6 6 6 6 6 4 ",
"t y u u i i p a a a a s d f g g g h j k - $ $ $ $ $ $ $ $ - k j h g g g f d s a a a a p i i i i y l ",
"z x c c c c v b n m m n M N B B B x V C - $ $ $ $ $ $ $ $ - C V x B B B N M n m m n b v c c c c x z ",
"Z A S S S S D F F F F G H J S S S B K L - $ $ $ $ $ $ $ $ - C K B S S S J H G F F F F D S S S S A Z ",
"Z A S S S S P F F F F G H J S S S B K L - $ $ $ $ $ $ $ $ - C K B S S S J H G F F F F P S S S S A Z ",
"I B S S S S D F F F F F H J S S S c K L - $ $ $ $ $ $ $ $ - C K c S S S J H F F F F F D S S S S B I ",
"U S Y Y Y Y T R E E E E W Q ! ! ! S ~ L - $ $ $ $ $ $ $ $ - L ~ S ! ! ! Q W E E E E R T Y Y Y Y S U ",
"^ / ( ( ( ) _ ` ` ` ` ` ' ] [ [ [ { } | $ $ $ $ $ $ $ $ $ $ |  .{ [ [ [ ] ' ` ` ` ` ` _ ) ( ( ( / ^ ",
"..X.o.o.o.X.  # # # # # # # # # # # @ 2 $ $ $ $ $ $ $ $ $ $ 2 @ # # # # # # # # # # #   X.o.o.o.X...",
"> $ $ $ $ $ X # # # # # # # # # # # = 2 $ $ $ $ $ $ $ $ $ $ 2 = # # # # # # # # # # # X $ $ $ $ $ > ",
"> $ $ $ $ $ X # # # # # # # # # # # = 2 $ $ $ $ $ $ $ $ $ $ 2 = # # # # # # # # # # # X $ $ $ $ $ > ",
"> $ $ $ $ $ X # # # # # # # # # # # = 2 $ $ $ $ $ $ $ $ $ $ 2 = # # # # # # # # # # # X $ $ $ $ $ > ",
"2 $ $ $ $ $ X # # # # # # # # # # # = 2 $ $ $ $ $ $ $ $ $ $ 2 = # # # # # # # # # # # X $ $ $ $ $ 2 ",
"O.X X X X X ,                         X X X X X X X X X X X X                         , X X X X X O.",
"= # # # # #   $ $ $ $ $ $ $ $ $ $ $ o ; # # # # # # # # # # ; o $ $ $ $ $ $ $ $ $ $ $   # # # # # = ",
"@ # # # # #   $ $ $ $ $ $ $ $ $ $ $ o ; # # # # # # # # # # ; o $ $ $ $ $ $ $ $ $ $ $   # # # # # @ ",
"@ # # # # #   $ $ $ $ $ $ $ $ $ $ $ o ; # # # # # # # # # # ; o $ $ $ $ $ $ $ $ $ $ $   # # # # # @ ",
"@ # # # # #   $ $ $ $ $ $ $ $ $ $ $ o ; # # # # # # # # # # ; o $ $ $ $ $ $ $ $ $ $ $   # # # # # @ ",
"@ # # # # #   $ $ $ $ $ $ $ $ $ $ $ o ; # # # # # # # # # # ; o $ $ $ $ $ $ $ $ $ $ $   # # # # # @ ",
"@ # # # # # : +.+.+.+.+.+.+.+.+.+.+., % # # # # # # # # # # % , +.+.+.+.+.+.+.+.+.+.+.: # # # # # @ ",
"@ # # # # # # % % % % % % % % % % % % # # # # # # # # # # # # % % % % % % % % % % % % # # # # # # @ ",
"@ # # # # # # # # # # # # # # # # # # # # # # # # # # # # # # # # # # # # # # # # # # # # # # # # @ ",
"@ # # # # # # # # # # # # # # # # # # # # # # # # # # # # # # # # # # # # # # # # # # # # # # # # @ ",
"@ # # # # # # # # # # # # # # # # # # # # # # # # # # # # # # # # # # # # # # # # # # # # # # # # @ ",
"@ # # # # # # # # # # # # # # # # # # # # # # # # # # # # # # # # # # # # # # # # # # # # # # # # @ ",
"= % % % % % % % % % % % % % % % % % % % % % % % % % % % % % % % % % % % % % % % % % % % % % % % % = "
};
