/* XPM */
static char *Skeleton1677764535[] = {
/* columns rows colors chars-per-pixel */
"50 50 177 2 ",
"   c gray74",
".  c #B4B3B5",
"X  c #AEABAE",
"o  c #B3B1B3",
"O  c #BCBCBC",
"+  c gray",
"@  c #B7B6B7",
"#  c #B0AFB1",
"$  c #B1AFB1",
"%  c #B0AEB1",
"&  c #BBBBBB",
"*  c #BCBBBC",
"=  c gray75",
"-  c #C5C4C4",
";  c #C8C6C7",
":  c #C7C6C7",
">  c #C9C8C9",
",  c #CAC9CA",
"<  c #CACACB",
"1  c #C2C1C2",
"2  c #B2B1B3",
"3  c #B1B0B1",
"4  c #B1B0B2",
"5  c #B5B4B6",
"6  c #C9C9CA",
"7  c #CECECE",
"8  c #CBCACB",
"9  c #CBC9CA",
"0  c #D0CFCF",
"q  c LightGray",
"w  c gray83",
"e  c #AFADAF",
"r  c #ADABAE",
"t  c #CECDCE",
"y  c #CFCECF",
"u  c #B3B1B4",
"i  c #CDCDCE",
"p  c gray81",
"a  c #AFADB0",
"s  c gray79",
"d  c #CECDCD",
"f  c gray84",
"g  c gainsboro",
"h  c #CFCFD0",
"j  c #B7B7B8",
"k  c #B6B5B6",
"l  c #BABABB",
"z  c gray82",
"x  c gray89",
"c  c #E4E4E4",
"v  c #D7D7D7",
"b  c #C0C0C0",
"n  c #D0D0D0",
"m  c gray85",
"M  c gray87",
"N  c #D5D5D5",
"B  c #C5C5C5",
"V  c gray77",
"C  c #C6C6C6",
"Z  c #D2D2D2",
"A  c #D2D1D2",
"S  c #C3C3C3",
"D  c #CCCACB",
"F  c #CDCBCC",
"G  c #C3C2C2",
"H  c gray47",
"J  c #5D5D5D",
"K  c gray37",
"L  c gray51",
"P  c #CCCBCC",
"I  c #CCCBCB",
"U  c #CAC9C9",
"Y  c gray76",
"T  c #7E7E7E",
"R  c #C0BFBF",
"E  c #686767",
"W  c gray28",
"Q  c #494949",
"!  c #747373",
"~  c #C6C4C5",
"^  c #C9C7C8",
"/  c gray72",
"(  c #6F6F6F",
")  c #484848",
"_  c #686768",
"`  c #C0BFC0",
"'  c #C1BFC0",
"]  c #696868",
"[  c gray29",
"{  c #494849",
"}  c #747474",
"|  c gray44",
" . c #696869",
".. c #686868",
"X. c #747374",
"o. c #B9B9B9",
"O. c #CAC8C9",
"+. c #CAC8CA",
"@. c #C0BEBF",
"#. c #6B6A6B",
"$. c #4C4C4D",
"%. c #4E4D4E",
"&. c #4E4E4E",
"*. c gray30",
"=. c #767676",
"-. c #C6C5C5",
";. c #BDBCBC",
":. c #B6B6B6",
">. c #727172",
",. c #4D4C4D",
"<. c #B7B5B7",
"1. c #B8B5B7",
"2. c #B4B2B4",
"3. c #979597",
"4. c #8C8B8D",
"5. c #8D8B8D",
"6. c #929292",
"7. c #979797",
"8. c #989898",
"9. c #9B9A9A",
"0. c #9A999A",
"q. c #979697",
"w. c gray59",
"e. c #969596",
"r. c #908F90",
"t. c #AFACAF",
"y. c #AAAAAA",
"u. c #848484",
"i. c #A09FA0",
"p. c gray52",
"a. c #838383",
"s. c #858485",
"d. c #A09EA0",
"f. c #AEACAE",
"g. c #9F9EA0",
"h. c #AEACAF",
"j. c #9D9C9D",
"k. c #888789",
"l. c #807F81",
"z. c #818081",
"x. c #858586",
"c. c #898A89",
"v. c #898A8A",
"b. c #7E7F7F",
"n. c #6A6A6A",
"m. c DimGray",
"M. c #797879",
"N. c #8E8E8E",
"B. c gray56",
"V. c #898989",
"C. c #5B5B5B",
"Z. c #4B4A4B",
"A. c #4B4B4B",
"S. c #4A4B4B",
"D. c #494B4B",
"F. c #5A5A5A",
"G. c #494A4A",
"H. c #484A4A",
"J. c #8D8D8D",
"K. c #888888",
"L. c gray35",
"P. c #484949",
"I. c #474848",
"U. c #464848",
"Y. c gray60",
"T. c #959595",
"R. c #727272",
"E. c #656565",
"W. c #676868",
"Q. c #696B6B",
"!. c #6A6B6B",
"~. c gray42",
"^. c gray71",
"/. c #B4B4B4",
"(. c #C8C8C8",
"). c #CACACA",
"_. c white",
/* pixels */
"                        . X X X X X o O                                                             ",
"                        . X X X X X o O                                                             ",
"                        . X X X X X o O                                                             ",
"                        . X X X X X o O                                                             ",
"                        . X X X X X o O                                                             ",
"            + + + + + + @ # $ $ $ % . & O O O * O + = = = = = = = = = = = + + + + + + +             ",
"          + - ; : : : : > , , , , < 1 2 3 4 4 $ 5 6 7 7 7 7 7 7 7 7 7 7 7 8 : : : : ; - +           ",
"          + ; 9 9 9 9 9 0 q q q q w : e X X X r o t w q q q q q q q q q q 0 9 9 9 9 9 ; +           ",
"          + : 9 9 9 9 9 y q q q q q : e X X X X u i q q q q q q q q q q q y 9 9 9 9 9 : +           ",
"          + : 9 9 9 9 9 y q q q q q : e X X X X u i q q q q q q q q q q q y 9 9 9 9 9 : +           ",
"          + : 9 9 9 9 9 y q q q q q : e X X X X u i q q q q q q q q q q q y 9 9 9 9 9 : +           ",
"          + ; 9 9 9 9 9 p q q q q w : a X X X X u i q q q q q q q q q q q y 9 9 9 9 9 ; +           ",
"s s s s s , d y y y y p f g g g g g h j k k k k l y q q q q q q q q q q q z y y y y y d , s s s s s ",
"q q q q q q q q q q q q g x x x x c v =         b n q q q q q q q q q q q q q q q q q q q q q q q q ",
"q q q q q q q q q q q q g x x x x x f +         b n q q q q q q q q q q q q q q q q q q q q q q q q ",
"q q q q q q q q q q q q g x x x x x f +         b n q q q q q q q q q q q q q q q q q q q q q q q q ",
"q q q q q q q q q q q q g x x x x x f +         b n q q q q q q q q q q q q q q q q q q q q q q q q ",
"q q q q q q q q q q q q g x x x x c v +         b n q q q q q q q q q q q q q q q q q q q q q q q q ",
"q q q q q q q q q q q q m M M M M M N B V V V V C z q q q q q q q q q q q q q q q q q q q q q q q q ",
"q q q q q q q q q q q q q w w w w w q Z Z Z Z Z Z q q q q q q q q q q q q q q q q q q q q q q q q q ",
"q q q q q q q q q q q q q q q q q q q q q q q q q q q q q q q q q q q q q q q q q q q q q q q q q q ",
"q q q q q q q q q q q q q q q q q q q q q q q q q q q q q q q q q q q q q q q q q q q q q q q q q q ",
"q q q q q q q q q q q q q q q q q q q q q q q q q q q q q q q q q q q q q q q q q q q q q q q q q q ",
"q q q q q q w w w w w w w w w w w w w q q q q q q q q q q q q w w w w w w w w w w w w w q q q q q q ",
"A A A A Z n S + = = = = = = = = = + B z A A A A z n n n n n p V + + + + + + + + + + + S n Z A A A A ",
"D D D D F G H J K K K K K K K K K J L ; P D D I U Y b b b b O T J K K K K K K K K K J H G F D D D D ",
"9 9 9 9 D R E W Q Q Q Q Q Q Q Q Q W ! ~ 9 9 9 9 ^ =         / ( ) Q Q Q Q Q Q Q Q Q W _ ` D 9 9 9 9 ",
"9 9 9 9 D ' ] Q [ [ [ [ [ [ [ [ [ { } ~ 9 9 9 9 ^ =         / | Q [ [ [ [ [ [ [ [ [ Q  .' D 9 9 9 9 ",
"9 9 9 9 D ' ] Q [ [ [ [ [ [ [ [ [ { } ~ 9 9 9 9 ^ =         / | Q [ [ [ [ [ [ [ [ [ Q  .' D 9 9 9 9 ",
"9 9 9 9 D ' ..) [ [ [ [ [ [ [ [ [ ) X.~ D 9 9 9 ^ =         o.| ) [ [ [ [ [ [ [ [ [ ) ] ' D 9 9 9 9 ",
"O.O.O.O.+.@.#.$.%.%.%.%.&.&.&.&.&.*.=.G ^ ; ; ; -.;.& & & & :.>.,.%.%.%.%.%.%.%.%.%.$.#.@.+.O.O.O.O.",
"<.<.<.<.1.2.3.4.4.4.4.5.6.7.7.7.7.7.8.9.9.9.9.9.0.q.w.w.w.w.e.r.4.4.4.4.4.4.4.4.4.4.4.3.2.1.<.<.<.<.",
"X X X X X X t.t.t.t.t.e @ + + + + = y.u.L L L L L L L L L L u.i.a t.t.t.t.t.t.t.t.t.t.t.X X X X X X ",
"X X X X X X X X X X X X k         + y.p.a.a.a.a.a.a.a.a.a.a.s.d.f.X X X X X X X X X X X X X X X X X ",
"X X X X X X X X X X X X k         + y.p.a.a.a.a.a.a.a.a.a.a.s.g.f.X X X X X X X X X X X X X X X X X ",
"X X X X X X X X X X X X k         + y.p.a.a.a.a.a.a.a.a.a.a.s.d.f.X X X X X X X X X X X X X X X X X ",
"X X X X X X f.h.h.h.h.h.@ + + + + + y.p.a.a.a.a.a.a.a.a.a.a.p.d.t.h.h.h.h.h.h.h.h.h.h.f.X X X X X X ",
"g.g.g.g.d.j.k.l.z.z.z.z.x.c.c.c.c.v.b.n.m.m.m.m.m.m.m.m.m.m.n.M.z.z.z.z.z.z.z.z.z.z.l.k.j.d.g.g.g.g.",
"N.N.N.N.B.V.C.[ Z.Z.Z.A.S.D.D.D.D.D.S.[ [ [ [ [ [ [ [ [ [ [ [ Z.Z.Z.Z.Z.Z.Z.Z.Z.Z.Z.[ C.V.B.N.N.N.N.",
"N.N.N.N.N.V.F.Q [ [ [ [ G.H.H.H.H.H.G.[ [ [ [ [ [ [ [ [ [ [ [ [ [ [ [ [ [ [ [ [ [ [ Q F.V.N.N.N.N.N.",
"N.N.N.N.N.V.F.Q [ [ [ [ G.H.H.H.H.H.G.[ [ [ [ [ [ [ [ [ [ [ [ [ [ [ [ [ [ [ [ [ [ [ Q F.V.N.N.N.N.N.",
"N.N.N.N.N.V.F.Q [ [ [ [ G.H.H.H.H.H.G.[ [ [ [ [ [ [ [ [ [ [ [ [ [ [ [ [ [ [ [ [ [ [ Q F.V.N.N.N.N.N.",
"J.J.J.J.N.K.L.) Q Q Q P.P.I.U.I.I.I.I.) ) ) ) ) ) ) ) ) ) ) ) ) ) ) ) ) ) Q Q Q Q Q ) L.K.N.J.J.J.J.",
"Y.Y.Y.Y.Y.T.R.E.E.E.E.E.W.Q.Q.Q.Q.Q.!.!.~.~.~.~.~.~.~.~.~.~.~.~.~.~.~.~.~...E.E.E.E.E.R.T.Y.Y.Y.Y.Y.",
"o.o.o.o.o.o.^./././././.= (.(.(.(.(.(.(.(.(.(.(.(.(.(.(.(.(.(.(.(.(.(.(.(.= /././././.^.o.o.o.o.o.o.",
"            + + + + + + ).w w w w w w w w w w w w w w w w w w w w w w w w ).+ + + + + +             ",
"                        s q q q q q q q q q q q q q q q q q q q q q q q q s                         ",
"                        s q q q q q q q q q q q q q q q q q q q q q q q q s                         ",
"                        s q q q q q q q q q q q q q q q q q q q q q q q q s                         ",
"                        s q q q q q q q q q q q q q q q q q q q q q q q q s                         "
};
