/* XPM */
static char *Spider1677764535[] = {
/* columns rows colors chars-per-pixel */
"50 50 120 2 ",
"   c #1A130D",
".  c #1E1711",
"X  c #2D0404",
"o  c #2B0807",
"O  c #2D0909",
"+  c #330503",
"@  c #3D0705",
"#  c #3E0805",
"$  c #33110E",
"%  c #221A14",
"&  c #251F1B",
"*  c #3B1714",
"=  c #3A1815",
"-  c #26211C",
";  c #2A221D",
":  c #31221F",
">  c #2D2724",
",  c #2D2825",
"<  c #362622",
"1  c #3E2721",
"2  c #312B27",
"3  c #3C2824",
"4  c #352F29",
"5  c #37312A",
"6  c #3B342D",
"7  c #3D3631",
"8  c #3F3832",
"9  c #450A07",
"0  c #4D0A07",
"q  c #440B09",
"w  c #4D0B08",
"e  c #510B07",
"r  c #540D08",
"t  c #5B0E09",
"y  c #4B110D",
"u  c #53130E",
"i  c #5E100A",
"p  c #4A1713",
"a  c #411815",
"s  c #4B1915",
"d  c #491E1A",
"f  c #541914",
"g  c #66120D",
"h  c #781913",
"j  c #771F18",
"k  c #4C211C",
"l  c #51231E",
"z  c #402420",
"x  c #412A25",
"c  c #4D2B26",
"v  c #422E29",
"b  c #4C2F2A",
"n  c #522722",
"m  c #512823",
"M  c #46312C",
"N  c #4A332E",
"B  c #56342D",
"V  c #58362F",
"C  c #4E3730",
"Z  c #453D36",
"A  c #4D3C35",
"S  c #463E38",
"D  c #4B3F38",
"F  c #563630",
"G  c #523D36",
"H  c #5A3933",
"J  c #513F39",
"K  c #6C362F",
"L  c #70352E",
"P  c #653B34",
"I  c #6B3931",
"U  c #7E3E35",
"Y  c #47403A",
"T  c #4D453D",
"R  c #4F483E",
"E  c #504037",
"W  c #51433B",
"Q  c #5D423A",
"!  c #51483F",
"~  c #6B453C",
"^  c #73453C",
"/  c #4D4640",
"(  c #544740",
")  c #554C44",
"_  c #594D44",
"`  c #564E48",
"'  c #5B5147",
"]  c #5E544B",
"[  c #5F5851",
"{  c #654941",
"}  c #6B4C43",
"|  c #605147",
" . c #605449",
".. c #635C55",
"X. c #676159",
"o. c #686159",
"O. c #716961",
"+. c #7F7970",
"@. c #811B14",
"#. c #8D1F17",
"$. c #82231C",
"%. c #8D231B",
"&. c #95221A",
"*. c #9B251C",
"=. c #A1261D",
"-. c #A6281F",
";. c #AD281E",
":. c #822A23",
">. c #952E26",
",. c #9D2A22",
"<. c #903028",
"1. c #A52A21",
"2. c #817B73",
"3. c #878077",
"4. c #878179",
"5. c #8A837A",
"6. c #8F887F",
"7. c #90887F",
"8. c #8F8980",
"9. c #918A81",
/* pixels */
"> , , , , , * q w q 0 q k _ ' ) ` ` ) Y Y Y Y Y Y Y Y Y Y Y Y R ' ) ) ' ' A O X X X X o ; , , , , , ",
", , 2 2 2 2 a w w e w 0 l '  .] ] ] ] ! T T T T T R T T / / T ) ] ] ] ] ] E O X X X X o : 2 2 2 2 2 ",
", 2 2 2 2 2 a w w 0 w 0 l |  .] ] ] ' ! R R R T T T T / T T T ) ]  .] ] ] E O X X X X o : 2 2 , 2 2 ",
", 2 2 2 2 2 a w w w 0 0 l | ] ] ]  .' ! Y R T T T T T T T T T ) ] ] ]  . .E O + X X X o > 2 2 5 2 2 ",
", 2 2 2 2 2 a 0 w w w w l | ] ] ] ] ' ( T T T R T T T R T T T ` ] ] ] ]  .J O X X X X o : 2 2 , 2 2 ",
", 2 2 , 2 2 * 0 w w w w l _ ] '  .] ' R T T T T R R T R R T T ) ]  .| |  .J O o X o X o : 2 2 2 2 2 ",
"S T T T T T C c c m c c c 1 k 1 z : c ) ' ' ) ) ` ) _ ) ) _ _ G m n n n n m x x 3 v x x Y T Y R T T ",
"` ] ] ] ] ] ) T T T ! ! x o X X X X $ Q ] ] ] ] ] ] ] ] ]  . .B w w w w w s E T T T T ! '  . .] ] ] ",
"` ] ]  .] ] ) T T T T T v o X X o o * ! ]  . .] ] ] ] ] ] ]  .B w w 0 w 0 s E T T T T ! ' ] ] ] ] ] ",
"`  .] ] ]  .) T T T T R v o X X X O * ! ]  .[ ] ] ]  .] ] ]  .B w 0 w e 0 s E / T T T ! ' ] ] ] ] ] ",
"' ] ] ] ] ] ! ! R W T T v X X + + X $ R ] ] ] ] ] ] ] ] ] ]  .B w w w e 0 s J T T T T T ' ] ] ] ] ] ",
"'  . . .]  .' ! T T T R v X X + X X $ ' [ ] ] ]  .] ] ] ]  . .B w w w w 0 s J T T T T ! ' ] ] ] ] ] ",
"N V V V V V W ! ! ! ! ' E : : : : : k ! ] ] ] ]  . .] ] ] ]  .E k d k d k c ( ) ) ) ) ( U U U U ^ <.",
"q w w w w y B ] ]  .] ] ! R W W W T ! ] ] ] ] ]  . .] ] ]  . .! ! T E ! / ( ] ] ] ] ] } <.=.1.1.-.-.",
"w w e w w w B  .] ] ] ] ' R T T T T ! ' ] ] ] ] ] ]  .] ] ]  .! T Y T / / ( ] ] ] ]  .} >.;.;.;.;.;.",
"q w w w w w B ] ]  .] ] ' ! T T T T ! ] ] ] ] ] ] ] ] ] ]  . .] T T T T / ( ]  .] ] ] } >.;.;.;.;.;.",
"w e w w 0 w B  .] ] ] ] ` ! T / T T ! ] ] ] ] [ ] ]  .[ ] ] ] ! T T T T T ) ] ] ] ] ] } >.;.;.;.;.;.",
"q 0 w w w 0 B ] ] ] ] ] ` / T T T T ! ' ]  . . .] ]  . .] ] [ ' T T T T R / ] ] ] ] ] } >.;.;.;.;.1.",
"# q q 9 9 q B ' ' ' ' ' ~ P P P I ~ Q ~ Q Q Q Q Q ~ ^ ^ ^ ~ ^ ~ F C F C C D ` ' ' ' ' { :.&.&.&.&.&.",
"X + + + + + x ! T R T T I >.,.1.*.*.%.u y y y y u $.,.,.,.,.,.j p w q p y d W ( / / ( J f t t t r i ",
"X X X X X o x T T T Y T L 1.;.;.;.;.*.i 0 0 w 0 r #.;.;.;.;.;.@.e e w e w s E T / / T G p w w 0 w w ",
"X X X X X X x T T R T T L 1.;.;.;.;.*.i 0 0 e w r %.;.;.;.;.;.h e w w w 0 s J T / / T G p w w e w w ",
"o X X X X o : W T T T E L 1.;.;.;.;.*.i 0 w 0 w t #.;.;.;.;.;.@.e w w w 0 s E T T T T D p w e w w w ",
"o X X X + o x R T T T T L 1.;.;.;.;.*.i 0 e e w r #.;.;.;.;.;.@.e e w e 0 s E T T T T G p 0 w w e w ",
"o o o o O O 3 ! ( R R T K ,.-.=.=.=.%.t 0 w w 0 e @.*.=.=.-.*.h 0 0 0 0 9 p J ! ! T ! J d w y w y w ",
"< 3 3 3 3 4 D ] ' ' ' ' H i g g g g i @ + + + + @ t g g g g g e @ + + + + = _ ' ' ' ' ` M x 3 x x 3 ",
"5 6 6 6 6 6 ! ] ] ] ] [ H w w w 0 0 0 + X X X X X # w e w w w # X X X X X = ` ] ] ] ] ` 8 7 6 6 6 6 ",
"5 6 6 M 6 6 ! ] ] ] ]  .H w w w w 0 9 + X X X X + 9 w w w e w # X X X X X * _  .] ] ] ' Z 6 6 M 6 6 ",
"6 6 7 6 6 6 !  .] ]  .] H y w w e e 9 + X X X X X 9 w w e w 0 9 X X X X X = ` ] ] ] ] ] Z 5 6 6 7 6 ",
"5 6 6 6 6 6 ! ] ] ] ]  .H w 0 0 w 0 0 + X X X X X 9 w w w w 0 # X X + X X = _ ] ] ]  .` Z 6 6 6 6 6 ",
"6 6 6 6 6 6 T  . .] ]  .H y w y y w q + X o X X + q w w w w w @ X X X X X = ' ] ] ]  .] Z 6 6 6 6 6 ",
"Z S S S S S T ) ) ! ) ) W B V B B V B N N N N M N b c b c c c N N N N N M A ( ( ) ) ) ( T S S S S Y ",
"S T T / T / T T T T T T !  . . .] ] ] ] ] ] ] ] ] ) / / T / T ` ] ] ] ] ] ' R R T T T R T T T T T T ",
"S T T T T / T T T T T T !  .] [ ] ] ] ] ] ] ] ] ] ) / T T / T ) ] ] ] ] ] ] R Y T T T R T T T T / T ",
"S T / T T T / T T T T T R ] ] ] ] ] ] ] ] ] ] ] ] ( T T T T T ) ] ] ] ] ] ' ! T T T T T T T T T / T ",
"S T / T / T T T T T T T ! ] ] [ [ ] ] ] ] ] [ ] ] ( T / T T T ` [ ] ] ] ] ' R T R T T T / / T T T T ",
"S / T T T / ( T Y R R R ) ] ] [ ] ] ] ] ] ] ] ' ] ( T T T / T ` ] [ ] ] ] ] T Y T T T T T T T / T T ",
"S T T D S T  ...o.o.o.o.] Y 8 Z Z Z Y ) ` ` ` ` ` / Y T S T T Y Z 8 Z Z 8 T X.o.o.o.o.../ T Y T T Y ",
"Z S Z S S S O.7.6.6.6.9.o.%         % Y / / T T / S S Z S S S <           5 3.8.7.7.7.5.` Z Y Z Z Y ",
"7 S S Z S S O.9.6.6.6.6.o..         % Z / T / T / S S S S S S <           5 5.9.7.7.7.3.` Z Z Y Z Z ",
"8 S S Z Y Y O.9.6.7.9.9.X.%         . 8 / / / T ! Y Z S S S Y 2           5 5.9.7.7.7.5.` Z Z S Y Y ",
"Z S S Y Y T O.9.7.9.9.9.X.%         & / / / T T T Y S Z S S S 2           5 8.9.9.9.7.5.` D S S Y Y ",
"8 S Y Z Y Y O.9.9.9.9.9.X..         . Y / / T / T S S Z S S Y 2           5 4.9.9.9.7.5.` S S Y Y Y ",
"7 8 8 8 7 8 o.6.6.6.6.9.X..     .   . / / T T T T Y S S T S Y 2           5 4.8.6.6.7.3./ 7 7 Z 8 8 ",
"- ; ; ; ; ; ..5.5.5.4.8.X..         . 8 Y Y S S S Y T T / / Y 2           5 +.5.5.5.5.2.7 ; ; ; - - ",
"& - - ; - - [ 5.5.5.5.4....         . 8 Y Z D Z D T T T / / / 4           3 +.5.5.3.5.+.6 - - - - - ",
". - - - - - [ 5.5.5.5.8....         . 8 Y Z S D S D / T / / / 5           4 2.5.5.5.5.2.6 - - - - - ",
"> - - - - - [ 5.5.5.4.5....     . . . 7 Z Y Z S S T / T / / / 5           5 2.5.5.5.5.+.6 - - - - - ",
". > - > . - [ 4.5.5.5.4.X..         . 8 / Y S 8 S T T / T / / 2           5 2.5.5.5.5.+.7 & - - - - ",
"& - - & > - [ 4.5.4.5.8.[ .         . 8 Y Y Y Y S T T T / / / 2           2 2.5.5.5.5.+.7 & - - - - "
};
