/* XPM */
static char *Zombie1677764536[] = {
/* columns rows colors chars-per-pixel */
"50 50 249 2 ",
"   c #496835",
".  c #466435",
"X  c #446135",
"o  c #476537",
"O  c #516F3B",
"+  c #52703C",
"@  c #496735",
"#  c #476535",
"$  c #456236",
"%  c #466336",
"&  c #476438",
"*  c #486438",
"=  c #456235",
"-  c #476437",
";  c #506E3B",
":  c #456335",
">  c #4A6838",
",  c #4F6C3A",
"<  c #4E6C3A",
"1  c #567242",
"2  c #657D51",
"3  c #667D52",
"4  c #657D52",
"5  c #4A6738",
"6  c #466335",
"7  c #4B6937",
"8  c #4B6A37",
"9  c #4C6939",
"0  c #5C7746",
"q  c #6F855A",
"w  c #71865C",
"e  c #70865B",
"r  c #446235",
"t  c #4C6A39",
"y  c #5C7747",
"u  c #52723A",
"i  c #53733C",
"p  c #5A7847",
"a  c #5C7A4B",
"s  c #61804E",
"d  c #668450",
"f  c #6C8857",
"g  c #799163",
"h  c #799264",
"j  c #768E5F",
"k  c #758E5E",
"l  c #748D5E",
"z  c #6B8755",
"x  c #668451",
"c  c #62804E",
"v  c #597746",
"b  c #4F6E3A",
"n  c #4E6C39",
"m  c #597A3F",
"M  c #5B7C41",
"N  c #6B8A55",
"B  c #708F5D",
"V  c #708F5C",
"C  c #73925F",
"Z  c #769461",
"A  c #7A9664",
"S  c #819B6B",
"D  c #809A6A",
"F  c #7A9562",
"G  c #799461",
"H  c #789462",
"J  c #779462",
"K  c #74925F",
"L  c #71905D",
"P  c #698855",
"I  c #54733F",
"U  c #809A69",
"Y  c #698854",
"T  c #6A8A55",
"R  c #54723E",
"E  c #52703B",
"W  c #617E48",
"Q  c #617F49",
"!  c #698654",
"~  c #6B8857",
"^  c #728F5D",
"/  c #779461",
"(  c #799663",
")  c #7E9867",
"_  c #7E9968",
"`  c #769160",
"'  c #758F60",
"]  c #708C5C",
"[  c #678453",
"{  c #5D7948",
"}  c #6F865A",
"|  c #6E8559",
" . c #617B4E",
".. c #627B4F",
"X. c #627B4E",
"o. c #6E8959",
"O. c #799361",
"+. c #738B5D",
"@. c #70875B",
"#. c #6A8156",
"$. c #6E8459",
"%. c #617A4E",
"&. c #6E8858",
"*. c #738A5D",
"=. c #698155",
"-. c #6F8959",
";. c #7A9561",
":. c #71875B",
">. c #71875C",
",. c #6C8258",
"<. c #5C724B",
"1. c #566B46",
"2. c #566C46",
"3. c #576C46",
"4. c #62784F",
"5. c #6B8256",
"6. c #70885A",
"7. c #789361",
"8. c #789260",
"9. c #77915F",
"0. c #6A7F56",
"q. c #637651",
"w. c #5D714C",
"e. c #637C50",
"r. c #647C50",
"t. c #5E754C",
"y. c #333C2D",
"u. c #242721",
"i. c #252822",
"p. c #262A23",
"a. c #282C25",
"s. c #272B24",
"d. c #434E39",
"f. c #76905F",
"g. c #728A5C",
"h. c #71885C",
"j. c #72885C",
"k. c #3F4936",
"l. c #262923",
"z. c #272A24",
"x. c #343C2D",
"c. c #5B724A",
"v. c #2A3026",
"b. c #191819",
"n. c #19191A",
"m. c #191919",
"M. c #181819",
"N. c #394131",
"B. c #758F5E",
"V. c #6D8258",
"C. c #363D2F",
"Z. c #2B3026",
"A. c #2B3126",
"S. c gray10",
"D. c #394231",
"F. c #363E2F",
"G. c #6D8259",
"H. c #617A4D",
"J. c #5B7349",
"K. c #2D3428",
"L. c #1D1D1C",
"P. c #1D1E1C",
"I. c #1C1D1C",
"U. c #3B4433",
"Y. c #738D5D",
"T. c #77925F",
"R. c #76905E",
"E. c #70875A",
"W. c #6E855A",
"Q. c #6B8157",
"!. c #384031",
"~. c #5C7A44",
"^. c #5B7844",
"/. c #556845",
"(. c #536246",
"). c #546246",
"_. c #546745",
"`. c #557144",
"'. c #557244",
"]. c #557143",
"[. c #536E42",
"{. c #536D41",
"}. c #536D42",
"|. c #536644",
" X c #5B7B41",
".X c #6B8455",
"XX c #627A4F",
"oX c #436034",
"OX c #436035",
"+X c #436135",
"@X c #6A8354",
"#X c #466236",
"$X c #6B8354",
"%X c #627A4E",
"&X c #5F7B48",
"*X c #637E4D",
"=X c #5F794B",
"-X c #5C754A",
";X c #5D764A",
":X c #567043",
">X c #4B6536",
",X c #4A6435",
"<X c #4A6935",
"1X c #51713A",
"2X c #53743B",
"3X c #4B6A38",
"4X c #486435",
"5X c #506835",
"6X c #516835",
"7X c #507139",
"8X c #4B6938",
"9X c #486335",
"0X c #517139",
"qX c #486635",
"wX c #486735",
"eX c #4E6D38",
"rX c #50703A",
"tX c #4F6F3A",
"yX c #4F6F39",
"uX c #486536",
"iX c #425D32",
"pX c #425D33",
"aX c #465F33",
"sX c #4C6233",
"dX c #4C6333",
"fX c #4C6232",
"gX c #4D6333",
"hX c #4E6635",
"jX c #4D6635",
"kX c #466033",
"lX c #496636",
"zX c #4F6F38",
"xX c #415A30",
"cX c #3E522C",
"vX c #3F522C",
"bX c #40532C",
"nX c #40552D",
"mX c #445F34",
"MX c #456135",
"NX c #40572F",
"BX c #435C30",
"VX c #40582F",
"CX c #3E512B",
"ZX c #3F532C",
"AX c #435F33",
"SX c #446035",
"DX c #40562E",
"FX c #435B2F",
"GX c white",
/* pixels */
"                        . X X X X X X X X X X X X X X X X X X X X X X X X X X X X X X o O + + + + + ",
"                        . X X X X X X X X X X X X X X X X X X X X X X X X X X X X X X o O + + + + + ",
"                        . X X X X X X X X X X X X X X X X X X X X X X X X X X X X X X o O + + + + + ",
"                        . X X X X X X X X X X X X X X X X X X X X X X X X X X X X X X o O + + + + + ",
"                        . X X X X X X X X X X X X X X X X X X X X X X X X X X X X X X o O + + + + + ",
"              @ @ @ @ @ # $ $ $ $ $ % & * * * * * * * * * * & % $ $ $ $ $ = X X X X X - ; O O O O O ",
"            . : : : : : > , , , , < 1 2 3 4 4 4 4 4 4 4 4 3 2 1 < , , , , 5 X X X X X 6 7 8 8 8 8 8 ",
"          @ : X X X X X 9 + + + + + 0 q w e e e e e e e e w q 0 + + + + + 9 X X X X X : @           ",
"          @ : X X X X X 9 + + + + + 0 q e e e e e e e e e e q 0 + + + + + 9 X X X X X : @           ",
"          @ : X X X X X 9 + + + + + 0 q e e e e e e e e e e q 0 + + + + + 9 X X X X X : @           ",
"          @ : X X X X X 9 + + + + + 0 q e e e e e e e e e e q 0 + + + + + 9 X X X X X : @           ",
"            : X X X X r t + + + + + y q e e e e e e e e e e q 0 + + + + + t r X X X X : @           ",
"u u u u u i p a a a a a s d d d d d f g h h h h g j k k k k l z x x x x x c a a a a a v b n n n n n ",
"m m m m m M N B V V V V C Z Z Z Z Z A S S S S S D F G G G G G H J J J J J K V V V V L P I + + + + + ",
"m m m m m M N V V V V V C Z Z Z Z Z A S S S S S U F G G G G G H J J J J J K V V V V V Y I + + + + + ",
"m m m m m M T V V V V V C Z Z Z Z Z A S S S S S U F G G G G G H J J J J J K V V V V V Y I + + + + + ",
"m m m m m M T V V V V V C Z Z Z Z Z A S S S S S U F G G G G G H J J J J J K V V V V V Y I + + + + + ",
"m m m m m M N V V V V V C Z Z Z Z Z A S S S S S D F G G G G G H J J J J J K V V V V L Y R E + + + + ",
"W W W W W Q ! ~ ~ ~ ~ ~ ^ / / / / / ( ) _ _ _ _ ) F G G G G G ` ' ' ' ' ' ] ~ ~ ~ ~ ~ [ { 0 0 0 0 0 ",
"} } } } } | 2  .....X...o.G G G G G G G G G G G G G G G G G O.+.e @.@.@.@.#...X..... .2 $.q q q q q ",
"e e e e e q 2 %.%.%.%.%.&.G G G G G G G G G G G G G G G G G O.*.e e e e e =.%.%.%.%.%.2 q e e e e e ",
"e e e e e q 2 %.%.%.%.%.&.G G G G G G G G G G G G G G G G G O.+.e e e e e =.%.%.%.%.%.2 q e e e e e ",
"e e e e e q 2 %.%.%.%.%.&.G G G G G G G G G G G G G G G G G O.+.e e e e e =.%.%.%.%.%.2 q e e e e e ",
"e e e e e q 2  .X.X.X...-.F F F F F ;.G G G G G G G G G G G G +.:.>.>.>.>.#...X.X.X. .2 q e e e e e ",
"$.$.$.$.$.,.<.1.2.2.2.3.4.5.5.5.5.5.6.7.G G G G G 8.8.8.8.8.9.0.q.q.q.q.q.w.2.2.2.2.1.<.,.$.$.$.$.$.",
"e.e.e.e.r.t.y.u.i.i.i.i.p.a.a.a.a.s.d.f.G G G G 8.g.h.h.h.j.$.k.l.z.z.z.z.l.i.i.i.i.u.x.t.r.e.e.e.e.",
"%.%.%.%.%.c.v.b.n.n.n.n.m.m.m.m.m.M.N.B.G G G G 8.h.e e e e V.C.M.m.m.m.m.n.n.n.n.n.b.Z.c.%.%.%.%.%.",
"%.%.%.%.%.c.A.m.S.S.S.S.S.S.S.S.S.m.D.B.G G G G 8.h.e e e e V.F.m.S.S.S.S.S.S.S.S.S.m.A.c.%.%.%.%.%.",
"%.%.%.%.%.c.A.m.S.S.S.S.S.S.S.S.S.m.D.B.G G G G 8.h.e e e e V.F.m.S.S.S.S.S.S.S.S.S.m.A.c.%.%.%.%.%.",
"%.%.%.%.%.c.A.m.S.S.S.S.S.S.S.S.S.b.D.B.G G G G 8.h.e e e e G.C.b.S.S.S.S.S.S.S.S.S.m.A.c.%.%.%.%.%.",
"H.H.H.H.%.J.K.L.P.P.P.P.P.P.P.P.P.I.U.Y.T.T.T.T.R.E.$.| | W.Q.!.I.P.P.P.P.P.P.P.P.P.L.K.J.%.H.H.H.H.",
"~.~.~.~.~.^./.(.).).).).).).).).).(._.`.'.'.'.'.].[.{.{.{.{.}.|.).).).).).).).).).).(./.^.~.~.~.~.~.",
"m m m m m  X.X>.>.>.>.>.>.>.>.>.>.h.XX$ oXOXOXOXOX+XX X X oX$ XXh.>.>.>.>.>.>.>.>.>.>..X Xm m m m m ",
"m m m m m  X@Xe e e e e e e e e e e %.#XX X X X X X X X X X #X%.e e e e e e e e e e e @X Xm m m m m ",
"m m m m m  X@Xe e e e e e e e e e e %.#XX X X X X X X X X X #X%.e e e e e e e e e e e @X Xm m m m m ",
"m m m m m  X@Xe e e e e e e e e e e %.#XX X X X X X X X X X #X%.e e e e e e e e e e e @X Xm m m m m ",
"m m m m m  X$Xe e e e e e e e e e >.%X#XX X X X X X X X X X #X%X>.e e e e e e e e e e $X Xm m m m m ",
"u u u u u i &X*X*X*X*X*X=X-X-X-X-X;X:X>X,X,X,X,X,X,X,X,X,X,X>X:X;X-X-X-X-X=X*X*X*X*X*X&Xi u u u u u ",
"          <X1X2X2X2X2X2X3XX X X X X 4X5X6X6X6X6X6X6X6X6X6X6X5X4XX X X X X 3X2X2X2X2X2X1X<X          ",
"          <X7X2X2X2X2X2X8XX X X X X 9X6X6X6X6X6X6X6X6X6X6X6X6X9XX X X X X 8X2X2X2X2X2X7X<X          ",
"          <X1X2X2X2X2X2X3XX X X X X 9X6X6X6X6X6X6X6X6X6X6X6X6X9XX X X X X 3X2X2X2X2X2X0X<X          ",
"          <X1X2X2X2X2X2X3XX X X X X 9X6X6X6X6X6X6X6X6X6X6X6X6X9XX X X X X 3X2X2X2X2X2X0X<X          ",
"          <X1X2X2X2X2X2X3XX X X X X 4X6X6X6X6X6X6X6X6X6X6X6X6X9XX X X X X 3X2X2X2X2X2X0X<X          ",
"qXqXqXqXqXwXeXrXtXtXtXyXuXiXpXpXpXpXaXsXdXsXsXfXgXhXhXhXhXhXjXkXiXpXpXpXiXlX7X1X1X1X1XzX<X          ",
"r r r r r r = : : : : = xXcXcXcXcXcXvXbXbXbXbXbXnXmX= = = = MXNXcXcXcXcXcXBX<X<X<X<X<X<X            ",
"X X X X X X X X X X X X VXCXCXCXCXCXCXCXCXCXCXCXZXAXX X X X SXDXCXCXCXCXCXFX                        ",
"X X X X X X X X X X X X VXCXCXCXCXCXCXCXCXCXCXCXZXAXX X X X SXDXCXCXCXCXCXFX                        ",
"X X X X X X X X X X X X VXCXCXCXCXCXCXCXCXCXCXCXZXAXX X X X SXDXCXCXCXCXCXFX                        ",
"X X X X X X X X X X X X VXCXCXCXCXCXCXCXCXCXCXCXZXAXX X X X SXDXCXCXCXCXCXFX                        ",
"X X X X X X X X X X X X VXCXCXCXCXCXCXCXCXCXCXCXZXAXX X X X SXDXCXCXCXCXCXFX                        "
};
