/* XPM */
static char *end_eye1677771938[] = {
/* columns rows colors chars-per-pixel */
"35 35 203 2 ",
"   c None",
".  c #1B2C0F",
"X  c #1C2D11",
"o  c #1F3112",
"O  c #213414",
"+  c #253917",
"@  c #283E18",
"#  c #122B3A",
"$  c #16323C",
"%  c #18353E",
"&  c #2C441A",
"*  c #2F491E",
"=  c #314A1E",
"-  c #344D21",
";  c #395522",
":  c #3C5A25",
">  c #375224",
",  c #435F2B",
"<  c #466C2D",
"1  c #46652D",
"2  c #4C7632",
"3  c #4C7B35",
"4  c #1B3642",
"5  c #1D3B43",
"6  c #1A3A48",
"7  c #203746",
"8  c #213D46",
"9  c #253E49",
"0  c #1D434F",
"q  c #1F4350",
"w  c #25434B",
"e  c #25464A",
"r  c #234751",
"t  c #244B52",
"y  c #2C4E52",
"u  c #234F5A",
"i  c #2D5453",
"p  c #2E5A5E",
"a  c #2A5658",
"s  c #315956",
"d  c #325B5B",
"f  c #36565D",
"g  c #396357",
"h  c #34645E",
"j  c #3C675C",
"k  c #2D5663",
"l  c #295A68",
"z  c #275863",
"x  c #315460",
"c  c #2E616D",
"v  c #326564",
"b  c #3B6D65",
"n  c #32636C",
"m  c #3A626C",
"M  c #396D68",
"N  c #3E7066",
"B  c #396B78",
"V  c #3F7375",
"C  c #577D50",
"Z  c #437263",
"A  c #457966",
"S  c #4A7A63",
"D  c #437469",
"F  c #47776A",
"G  c #447B7A",
"H  c #487877",
"J  c #426F64",
"K  c #5B8539",
"L  c #5B8736",
"P  c #65933F",
"I  c #4D864B",
"U  c #548C4E",
"Y  c #538747",
"T  c #579142",
"R  c #5D9543",
"E  c #5D9646",
"W  c #4A8254",
"Q  c #508750",
"!  c #5C9455",
"~  c #5F955C",
"^  c #628B43",
"/  c #669544",
"(  c #639C47",
")  c #699943",
"_  c #629C4D",
"`  c #66885B",
"'  c #649D52",
"]  c #649A59",
"[  c #61975F",
"{  c #6BA245",
"}  c #6CA54C",
"|  c #6EAA4B",
" . c #72AD4B",
".. c #73A74F",
"X. c #7BB34A",
"o. c #78B54A",
"O. c #67A053",
"+. c #6AA354",
"@. c #6CA258",
"#. c #74AE53",
"$. c #73AB59",
"%. c #73A053",
"&. c #77B152",
"*. c #7EBA52",
"=. c #7CB557",
"-. c #4E826B",
";. c #528265",
":. c #54836B",
">. c #568D6E",
",. c #598C6C",
"<. c #558A66",
"1. c #5B9265",
"2. c #5C9469",
"3. c #5F9A6A",
"4. c #4D8475",
"5. c #4F8178",
"6. c #5D8C7B",
"7. c #548A76",
"8. c #5E9374",
"9. c #5C907D",
"0. c #608F6E",
"q. c #62976D",
"w. c #639A6E",
"e. c #6A9F6D",
"r. c #649B64",
"t. c #638E78",
"y. c #649A73",
"u. c #63947E",
"i. c #66997B",
"p. c #6B997E",
"a. c #6C947A",
"s. c #7A9F79",
"d. c #6AA264",
"f. c #6AA06A",
"g. c #75A969",
"h. c #68A170",
"j. c #6DA27C",
"k. c #7CA37E",
"l. c #78A674",
"z. c #7FB963",
"x. c #81BF49",
"c. c #82BF54",
"v. c #82BC5C",
"b. c #84BF61",
"n. c #82BD74",
"m. c #8FBD77",
"M. c #92BF7A",
"N. c #87C44D",
"B. c #84C354",
"V. c #8ACA56",
"C. c #86C259",
"Z. c #89C759",
"A. c #8AC468",
"S. c #94CD68",
"D. c #98D26C",
"F. c #92C07B",
"G. c #437885",
"H. c #497E82",
"J. c #477684",
"K. c #4E8786",
"L. c #518A82",
"P. c #5A8B83",
"I. c #548788",
"U. c #5E9386",
"Y. c #4B8494",
"T. c #548D91",
"R. c #659B83",
"E. c #659985",
"W. c #729E82",
"Q. c #609697",
"!. c #659B90",
"~. c #7FAB89",
"^. c #76A683",
"/. c #74A28F",
"(. c #82A888",
"). c #8AB686",
"_. c #89B38D",
"`. c #89B587",
"'. c #92BB86",
"]. c #8DB692",
"[. c #92BB95",
"{. c #93BA97",
"}. c #89AF9B",
"|. c #809FA1",
" X c #88ABA5",
".X c #97B7AB",
"XX c #97B6A6",
"oX c #9FBEB4",
"OX c #A1BCB4",
"+X c #A1BCBB",
"@X c #A1C79E",
"#X c #A6C6A8",
"$X c #A7C5B8",
"%X c #BAD6BE",
"&X c #B8CFC8",
"*X c #BFD7CF",
"=X c #BDD8C2",
"-X c #BED7D3",
";X c #ACC6C4",
":X c #C0D6CE",
">X c #C7DED1",
",X c #D6E8E1",
"<X c #DAEBE5",
/* pixels */
"                          w $ 4 % % % % 4                             ",
"                          9 $ $ $ % % % %                             ",
"                          i r r y i t t r f                           ",
"                9 4 4 4 4 d V H -.4.4.G G d e e 4 % w                 ",
"                6 4 4 6 4 p V G 4.7.4.H G p e e 7 7 e                 ",
"            9 w B B D D D :.7.7.3.3.q.2.2.<.;.;.;.S Z e 8             ",
"          8 % 6 G.Y.K.7.7.6.q.q.h.e.f.d.d.e.w.w.j.k.:.% % w           ",
"          t 6 w G.Y.I.U.U.u.a.y.e.h.e.d.d.e.e.e.j.^.:.8 4 y           ",
"      8 6 B G.G.I.P. X*X:X$XXXXXk.s.l.$.$.z.A.A.`.]./.N b s 6 w       ",
"      4 6 B Y.Y.P.6. X,X<X&XOXOX(.s.s.$.#.A.A.A.'.].^.F D s % %       ",
"      w q V Y.T. X XOX:X:X#X'.M.` C ` b.=.b.A.A.@X$X].D A d w e       ",
"      k z K.T.Q.*X,X:XOXOXM.N.X., @ < S.D.v.=.=.=X,X$XM b h s s       ",
"      x k K.T.Q.*X,X:XOXOXF.N.X.= & 1 S.D.v.&.=.=X<X$XN N v s d       ",
"7 7 f H H P.U.!.$X&X#XA.M.%.L L & O = ^ ^ #.=.=.'.[._.p.p.:.j J u 6 9 ",
"# # y p.p.R.R./..XOX'.X.x.L , ; O X @ ; ; / C.v.+.O.g._.[.a.S Z * 4 $ ",
"# # y i.p.R.R.R.XXXX'.*.x.L : ; O X + ; ; / C.v.} O.g._.).a.S Z 5 $ $ ",
"# # t L.L.U.R.R.] _ #.V.V.K - - o X o = = / C.C.&. .@.,.0.:.F D % % $ ",
"# # t K.L.E.W.i._ P  .V.V.K > - o . o * * / C.C.=. .@.,.,.S D Z 0 $ $ ",
"# # t H.G 9.i.i._ E  .c.Z.K - - X X O - - / C.c. .} +.y.w.:.D N 5 $ $ ",
"# # 6 c n -.2.2.' O.}  . .2 - = o . + , , ) c.*.{ E O.z.n.3.M b 4 $ $ ",
"# # 6 c n -.1.1.' ' } |  .2 = - o X + , 1 P *.o.{ E O.n.n.3.M M 6 % % ",
"    y r r t.~.l.] ! ' } +.) P L = @ : ) ) |  . .g.l.l.h.h.S t t       ",
"      4 4 a.{._.~ ! ! O.O.&.C.o., = < B.V.o.{ } `.[.~.>.2.g % 4       ",
"      4 4 t.]._.r.~ ] ' ' #.c.o.; = < c.B.o.{ } `.{.~.>.>.g % 4       ",
"      4 # m K.K.;X=X{.Q Q E E R 2 < 3 ( } g.).).=X>X.Xn v t $ %       ",
"      # # l B G.:X<X#XI I Y T T 3 2 3 T T l.{.{.>X<X+Xk z q $ %       ",
"      5 4 z l c  X+X~.W W I U U C C Y ! ! j.(.(.oX;X Xu t r 8 8       ",
"          4 # 4 u z v A A -.;.;.8.7.u.R.R.8.,.>.H J.k 4 % w           ",
"          6 # 4 u z v A A -.;.<.6.U.u.R.R.t.2.>.H H.x % % 9           ",
"            7 7 0 0 r i s g b A 8.3.8.4.5.J g g x x x w 9             ",
"                $ # $ % % t p v 3.d.2.n n r % % 7 $ 7                 ",
"                % $ % 5 % t p p ~ r.<.n v t 7 7 4 % 9                 ",
"                          r 4 4 5 8 5 4 4                             ",
"                          7 # # # # # # #                             ",
"                          4 # # # # # # #                             "
};
