/* XPM */
static char *ee4f952a5a034faf857740ab9af05975xC4mXDFWfg6cicNE[] = {
/* columns rows colors chars-per-pixel */
"45 45 83 1 ",
"  c #005F28",
". c #01642E",
"X c #046731",
"o c #0B6633",
"O c #046933",
"+ c #0B6A34",
"@ c #BF8B29",
"# c #EB8C15",
"$ c #EC8E1C",
"% c #EB901F",
"& c #C28B24",
"* c #C18A29",
"= c #EA8F20",
"- c #F68721",
"; c #F68A22",
": c #F88E27",
"> c #F78E28",
", c #F88E28",
"< c #EC9224",
"1 c #EF9528",
"2 c #F59324",
"3 c #F99425",
"4 c #F6962C",
"5 c #F8962B",
"6 c #F7982D",
"7 c #F8992F",
"8 c #EB9D37",
"9 c #ED9F3D",
"0 c #F69B32",
"q c #F89A30",
"w c #F59F3C",
"e c #EBA03F",
"r c #F6A03F",
"t c #ED9E41",
"y c #E3A245",
"u c #ECA243",
"i c #EBA64D",
"p c #F5A244",
"a c #F6A44A",
"s c #EBA850",
"d c #EDAC5B",
"f c #F4AA53",
"g c #F1AD5A",
"h c #F2B061",
"j c #FFB7B2",
"k c #FEBAB3",
"l c #BDC59E",
"z c #C0C59D",
"x c #D3C39B",
"c c #F5C68D",
"v c #F8C68E",
"b c #EECA99",
"n c #F4CA96",
"m c #F5CB9B",
"M c #CDCBA4",
"N c #F3CEA5",
"B c #F3CFA9",
"V c #EED4AE",
"C c #F3D0A4",
"Z c #F3D1AB",
"A c #F9D5AF",
"S c #FBC4B5",
"D c #FBCAB7",
"F c #ECD9B6",
"G c #F5D6B1",
"H c #F8D6B1",
"J c #F7D9B3",
"K c #F9DAB6",
"L c #F3DBBC",
"P c #FCDEBC",
"I c #FEE0BE",
"U c #EEDFC3",
"Y c #F4DEC3",
"T c #CEE2D7",
"R c #CEE2D8",
"E c #D0E2D5",
"W c #D5E6DC",
"Q c #FBE2C3",
"! c #FBE5CD",
"~ c #FFE9CB",
"^ c #F9EFE3",
"/ c #F9F0E4",
"( c #FEFEFE",
/* pixels */
"7777q,-;;-,77777;;;;-;;;-;-377777;;;;;-477777",
"7777q,-;;-;77777,--;;;-;;;-:q7777;;;;;-477777",
"7777q,;;;-;q7777;-;;;-;;-;-:77777;;;;;;477777",
"7777q:-;;;:q7777,;;-;;-;;;-2q7777;;;;;-4q7777",
"qqqqq,----;qqqqq,-;;-;;;;;-,q7777;;;---4q7777",
"444442,,:,,45445;;$;;;;;;$;,77777>;>>>>274444",
";----4qqqq4;---;<<<<<<<<<<<177777777777,;;;;;",
";;;--4q7qq4-;;-;<<<<<<<<<<<17777777777q,-;;;;",
";-;;-4777q4-;;-;<<<<<<<<<<<17777777777q>-;;;-",
";;;;-4q7774;;;;;=<<<<<<<<<<177qq777777q>;;--;",
";;-;;5q47q4;;-;;=<<<<<==%%$<55445777777>-;;;-",
"44444>,,;,,474441<<<%8ccccccvvcccr777772-;-;;",
"7777q,-;;-;qqqq71<<<$uKKKKKKKKKKKp57777,--;;;",
"7777q>-;;;;77q77<<<<%9HHHGHHHHHHAp57777,;;;;;",
"7777q>-;;;;q77771<<<=tHHHHHHHHHHHp57777,-;-;;",
"qqq7q3-;;-:qqqq7=$$=#8HHHHHHHHHHJr255452-;;-;",
"101142;;;;;41771uuuuudJJJJKHAAAHAgpaaaa4;;,,,",
"<<<<<<<<<<<<<<<<NPKKKJPPPPIKZZZZZZZZZZVf5q747",
"<<<<<<<<<<<<<<<<nKHHHHPPPPPKVZZZZZBZZBGf4qq77",
"<<<<<<<<<=<<<<<=nKHHHJPPPPIKNZZZZZZZZZGf3q777",
"<<<<1<<<<<<<<<<=nKHHHKPPPPPKBBVNZZZZZZGf5q7qq",
"==$<$$$$%$%12222nKHHHHPPPPPKAAAAAZNZBBZf34557",
"utu99usiiiy@**&&bPHHHKPPIPIFxxxxxVGVVGKhwpwww",
"ZGZZZ/((((WXXXX.MYPPPPQQQQ~l.+o+oT(((((YmCNNm",
"ZZZZB^((((WXXXOOMQPPLQQQQQ~l.OXX.R(((((YZZZZA",
"ZZZZB^((((WXOOOXMQLPPIQQQY~l.OOOXT(((((YNZZZZ",
"ZZZZB^((((WOOXOXMQPPPIQQQQ!l.OOOXT(((((YNZZZZ",
"ZZBZN^((((WXOOX.MQPPLIQQQQ~l.X.X.R(((((YNVNZZ",
"PKPKKQ!QQQQMMMMMLQQQQQIIIIIVlzzzzU!Q!QQPKKKKK",
"PPPPPKKKPKKQIQIQQQQQQQILIIFIIQQQQPKPPPPPPPIII",
"PKPPLPPPIPIKIPPPQQQQQQKIIIIIIIIIPPKPPPPPPPPPY",
"PPKPPPPPKLPPPIPPQQQQQIILILJIIIIIPPPPPLPPPPIPL",
"LKPPLKIPKILILIIIIQQQQQPPPPPPIIIIIILKPKIPPPPPI",
"PPPPPPPPPPILIKIKQ!QQ!QILIILIIIILILKILPPPPPPIP",
"PPPPLQQQIIIIPPIPSSSSSSSSSSSDIKILKIIIIPIKHHKKA",
"PPPPIIQQQQQIPPPPSjkjkkjjkjjSIIKIIIKIPPIJAHHHH",
"PPPPPQQQQQQPPIPPSjkkkkkkkkjSIIIIIPPPPPKJHHHHH",
"PPPPIIQQQQQPPPPPSjkkkkkkkkjSIIKILIPPPPIJHHHHH",
"PPPPPIQQQQQPPPPPSkkkjkjjkjjSIKIIIIPIIPPJHHHHH",
"PPPPIIQQQQQPPPYPSSkkSkkjSkkDLIIKKIPPPPIJHHHHH",
"PPPPPPPPPPPQQQQQPPPPPYPPYPPPQQQQQQQ!QQQLIILKI",
"PPIPPPPPPPYQQQQQYPPPPPPPPPPIQQQQQQQQQQQIIKIPI",
"PPPPPPPPPPPQQQQQPPPPPPPPPPPIQQQQQQQQQQQIIIKPK",
"PPPPPIPPPPPQQQQQPPPPPPPPPPPYQQQQQQQQQQQQKIIII",
"IPPPPPPPPYYQQQQQYPPPPPPPPPPPQQQQQQQQQQQIKPPPI"
};
