/* XPM */
static char *b79f5a9559804743f482a83434a6e483XUVmglS8sGNgrn7X[] = {
/* columns rows colors chars-per-pixel */
"45 45 124 2 ",
"   c #251B0C",
".  c #291E0F",
"X  c #3D1F0E",
"o  c #2B1F10",
"O  c #2F210F",
"+  c #3D210F",
"@  c #2D2212",
"#  c #312514",
"$  c #3E2310",
"%  c #332817",
"&  c #3D2B16",
"*  c #362A1A",
"=  c #3B2B19",
"-  c #402412",
";  c #472B17",
":  c #4B2C1A",
">  c #542F1F",
",  c #43301C",
"<  c #50321D",
"1  c #473625",
"2  c #4A3724",
"3  c #4E3D2B",
"4  c #553422",
"5  c #593924",
"6  c #553F2C",
"7  c #564330",
"8  c #66452F",
"9  c #644233",
"0  c #694731",
"q  c #644A35",
"w  c #6D4C37",
"e  c #6E4638",
"r  c #634D39",
"t  c #6E4B3A",
"y  c #734F36",
"u  c #7C4C3E",
"i  c #745139",
"p  c #79553C",
"a  c #7D5A3F",
"s  c #755242",
"d  c #7C5740",
"f  c #745A46",
"g  c #7E5A41",
"h  c #654E7F",
"j  c #6A527C",
"k  c #735A79",
"l  c #795E7D",
"z  c #7A607E",
"x  c #835C3F",
"c  c #814F41",
"v  c #8B5F44",
"b  c #825C4C",
"n  c #856045",
"m  c #8B6145",
"M  c #87634C",
"N  c #89624A",
"B  c #93664B",
"V  c #92684D",
"C  c #9A6D4D",
"Z  c #8A6454",
"A  c #8E6851",
"S  c #956B51",
"D  c #9A6D54",
"F  c #9C7056",
"G  c #94755C",
"H  c #9D755D",
"J  c #A1755C",
"K  c #A4785F",
"L  c #946E69",
"P  c #957460",
"I  c #9B7662",
"U  c #9D7A65",
"Y  c #9E776C",
"T  c #9F7E6B",
"R  c #80647C",
"E  c #A27667",
"W  c #A57963",
"Q  c #AA7D66",
"!  c #A37F6A",
"~  c #AB7E6B",
"^  c #A47D75",
"/  c #A47D78",
"(  c #AA8267",
")  c #A5816C",
"_  c #AB836D",
"`  c #A68270",
"'  c #AC8572",
"]  c #AF8A71",
"[  c #A98478",
"{  c #AC8C78",
"}  c #B08574",
"|  c #B48C75",
" . c #B88C72",
".. c #B28778",
"X. c #B58F79",
"o. c #B59076",
"O. c #B69179",
"+. c #B9927D",
"@. c #4D3E85",
"#. c #564482",
"$. c #584583",
"%. c #5D4A83",
"&. c #644F80",
"*. c #796CA2",
"=. c #8C758A",
"-. c #988090",
";. c #BE9884",
":. c #B99F8F",
">. c #BEA495",
",. c #BFA798",
"<. c #8F82A8",
"1. c #8D82B0",
"2. c #C09A86",
"3. c #CBB2A5",
"4. c #CFBAAE",
"5. c #D0BBAF",
"6. c #CFBDB1",
"7. c #D6C4BD",
"8. c #DAC9C0",
"9. c #F2EDEB",
"0. c #F5F1EE",
"q. c #F7F3F0",
"w. c #F8F7FA",
"e. c #FEFEFF",
/* pixels */
"% @ . O O . . .   O   O @ @ @ @           O                         . . . . . . .   . . % ",
"% O @ @ @ . . . @   @ @   @ @   @                                   . . . . . . . .   . @ ",
"% O O O @ . . .   @     @ @ @ @ @ @ O                               . . . . . . . . . . % ",
"% @ @ O O O . . @   @ O @ @ @ @                                     . . . . . . . . .   @ ",
"# O @ O @ . . . @   @ O @ @ @ @ @   @                               . . . . . . .   .   # ",
"# . . @ . @ . .   @   @ @ @   @ . @ @ @ @ @ O O . . . @         @ @ . . . . . .   . . . # ",
"# @ . . . . . . @   @       . . @ @ # @ @ # % ; - - ; = = = o % , $ @ . . . . .     .   @ ",
"#   . . . . . .   @   @   @ . . O @ # # @ @ % & , & & - = = = * * # . o o . . . .       @ ",
"#   @   @   @   @   @   . . . . @ # # # # # % & & & & & = = & = & # @ o o o o . @     @ @ ",
"# @   @       @   @   @ . . . . @ # # # # @ & ; & & & & & = = = & # o o o o o .         # ",
"@   @   @ @ # @ @ @ @ @ . @ @ O @ % % % * & = , , , , , = = , , , & # # @ # # .         # ",
"% @   @ @ 7 G G G G G G G G ( ( G ) ) U ) ) U H H H H H ) ) G ) U G M M Z M M 2 @ @ # @ * ",
"%   . .   r ] ] ] ] ] o.o.o.o.o.O.;.:.;.;.2.+.X.X.X.X. .o.o.o.o.O. .K K K K J 7 % % # # * ",
"% . . . . r ] ] ] ] ] ] o.o.o.o.O.;.;.;.;.;.+.X. . .X.X.o.o.O.O.o.] K K K K J 7 # # % # = ",
"@ . . . . r { ] ] ] ] o.o.o.o.o.O.;.;.;.;.;.+.| | X.X.X.{ O.o.O.o._ K K K K H 7 # # # # * ",
"@ .   .   r { ] ] ] ] o.o.o.o.o.O.;.;.;.;.;.+.| |  .| o.o.o.O.o.o.] K K K K H 7 # # # # % ",
"3 2 1 2 1 f ] ] ] ] ] ] ] ] | | o.+.+.;.;.+.{ ' ' ' ' ' | O.| O.X._ J H J J H q 2 2 2 2 6 ",
") U U U U ) ] ' _ ' ' ) ) ) ! ! ) ) ` ` ` ` U P P P P U ] | ..| X.~ C S S V S S N V A S S ",
"` ) ) U ) ) ' ' ' ' ' ) ! ) ! ) ) ` ` ) ` ` U P P P P P ] ..| | | ! S S S S V S S V S S G ",
") ) ! ! ) ) ' ' ] ' _ ) ) U ! ! ) ` ` ` ` ` Y P P P G I ] | { | X.~ S S S S S S S S S S F ",
") ) T U ! ) _ ' ' ' ' ) ! ! ! ! ) ) ` ` ` ) U P P P P P ] ..| | | ! V S S S S S S S S S G ",
") ) ) ) ! ) _ ' _ ' _ ) ! ~ ! ! ) ` ` ` ` ` U P P P P I } | | | X.) S V V V A S S S S V S ",
"' ) ) ) ) >.8.8.7.7.7.=.k k k k z ! ~ _ ~ ~ ) ) ! _ ) ! R l &.=.k -.6.4.7.4.4.{ H H H H U ",
"{ ' ' ' ' 5.e.e.e.e.w.*.@.@.@.@.h ! ~ ~ ~ ~ } | X...| [ %.@.@.@.@.1.e.e.e.e.e.,.T ) ) T ) ",
"] ' ' ' ' 4.e.e.e.e.w.*.@.@.@.@.&.~ ~ ~ ~ ~ } X.| | | [ $.@.@.#.@.1.w.e.e.e.e.,.U ) ) U ) ",
"{ ' ' ' _ 4.e.e.e.e.w.*.@.@.@.@.&.~ ~ ~ ~ ~ ' ..| | | [ %.@.@.@.@.1.e.e.e.e.w.,.) U ) ) ` ",
"] ' ' ' _ 4.e.e.e.e.w.*.@.@.@.@.&.~ ~ ~ ~ ~ ' | } | | [ %.@.@.@.@.=.e.e.e.e.e.,.U ) ) ) ` ",
"' _ _ _ _ 3.q.0.0.w.9.=.@.$.$.$.j E W W W Q ~ ' ' ' ' ^ &.$.$.$.h <.9.0.0.0.9.:.H U U U ) ",
"D C D D S W +.+.+.+.../ / / / / L s e e t t t t t t t s Y ^ [ ^ ( ( ( ( ( ( ( m x a a a n ",
"S B B B B D W Q Q Q Q ~ ~ } / } E 9 9 9 9 9 9 9 9 9 9 w (  . . . .( C C C C C x p p p p a ",
"S B B B B F Q Q Q Q ~ } } } } } L e 9 9 9 9 9 9 9 9 9 w Q  . . . .( C C C C C x y p p p a ",
"C B B B B F Q ~ Q Q ~ ~ ../ } } E 9 9 9 9 9 9 9 9 9 9 e Q  .]  . .( C C C C C x p p p p a ",
"S B B B B F ~ Q Q Q Q } } ......E e 9 9 9 9 9 9 9 9 9 e ~  . . . .~ C C C C C x p p p p a ",
"S B B B B S J J J J F Z Z Z Z Z c e e e e e e e e e e e Z Z B A A S B B B B B x p p p p a ",
"N N v b v N v B v B v < $ $ $ $ > u c c c c c c c c c s : - - - - 5 v v v n v d p p a p g ",
"N b v v v m m m B v v > + $ $ + > u c c c c c c c c c u : - - - $ 5 m m m n v a p p p p g ",
"S N b N m N m B m m m < + $ $ + : u c c c c u u c c c u : X - - $ 5 n m n m n a p s p d g ",
"M N v N N m m B m m v < + + + + : u c c c c u x c c c u : X - - - 5 n v n v v g p p d p g ",
"N N b m v N m m m B m < + $ $ + > x c c c c x x c c c s : - - - $ 5 v m m v v a d p p d f ",
"d y y i y y y y y y w , + + $ $ X > > > > > > < > > > > - - X - - 4 g g a x a i i i i i a ",
"w 0 0 8 0 8 8 8 8 8 8 ; + + + $ + X X X X X X - - + - $ - - - - & 4 d d d d g i y i i i i ",
"w 0 0 0 0 0 8 8 8 8 8 ; + + $ $ + X X X X X - - - - - - - - & - + 4 d d g d d i i y i t s ",
"w 0 0 0 0 8 0 8 0 8 8 ; + + $ $ + X X X X X + - - - - $ - - - - - 4 d d d d d i y i y i p ",
"w 0 0 0 0 0 8 8 8 8 8 ; + $ + $ - X X X X X + - - - - - - - - - + 4 d d d d d i i y i y p ",
"w 0 0 0 0 8 8 8 8 8 8 ; $ $ & $ + - + + + - - - - - - - - - - - - 4 a g s p d i i i i i p "
};
