/* XPM */
static char *_86f508c78ea41e79a7d113a9d4ece51WUJBspE8BNZIkBMU[] = {
/* columns rows colors chars-per-pixel */
"45 45 129 2 ",
"   c #241708",
".  c #261A0A",
"X  c #2B1E0D",
"o  c #311F0C",
"O  c #2B1E10",
"+  c #2F200D",
"@  c #31210E",
"#  c #2E2212",
"$  c #332413",
"%  c #3A2712",
"&  c #3E2A15",
"*  c #3B2D1B",
"=  c #421D0A",
"-  c #43210D",
";  c #472410",
":  c #492410",
">  c #432B13",
",  c #4E2914",
"<  c #442E19",
"1  c #522B17",
"2  c #532C18",
"3  c #5B2D1C",
"4  c #4C341F",
"5  c #563019",
"6  c #5C331E",
"7  c #463220",
"8  c #4A3521",
"9  c #4D3928",
"0  c #5B3F29",
"q  c #5B402B",
"w  c #6D432B",
"e  c #70462C",
"r  c #6A4130",
"t  c #674C36",
"y  c #694B34",
"u  c #734534",
"i  c #754B33",
"p  c #7A4E33",
"a  c #774B3A",
"s  c #7D5135",
"d  c #7D523D",
"f  c #775842",
"g  c #7E5E7D",
"h  c #85493A",
"j  c #8A4C3D",
"k  c #805335",
"l  c #82543B",
"z  c #87593C",
"x  c #8E5D3D",
"c  c #935D3E",
"v  c #8A5B4A",
"b  c #935E42",
"n  c #8C6047",
"m  c #9B6345",
"M  c #95654A",
"N  c #9C674A",
"B  c #9C694C",
"V  c #916351",
"C  c #946F55",
"Z  c #986E55",
"A  c #9D735C",
"S  c #A16846",
"D  c #A26A49",
"F  c #A56D52",
"G  c #A16B58",
"H  c #A77256",
"J  c #A97257",
"K  c #A3755C",
"L  c #AC765A",
"P  c #B57E5F",
"I  c #815F7E",
"U  c #876276",
"Y  c #84607A",
"T  c #88647B",
"R  c #976F72",
"E  c #A57363",
"W  c #AE7662",
"Q  c #A47963",
"!  c #AA7D66",
"~  c #A47269",
"^  c #AC7E69",
"/  c #B47C64",
"(  c #B27D6A",
")  c #AC7C71",
"_  c #AD806C",
"`  c #B18265",
"'  c #B4846D",
"]  c #B8836D",
"[  c #B6896C",
"{  c #BB8A6D",
"}  c #B58373",
"|  c #B98474",
" . c #B58972",
".. c #BC8C73",
"X. c #BF9074",
"o. c #C08A6D",
"O. c #C19277",
"+. c #C2927B",
"@. c #4E3987",
"#. c #4F3B8A",
"$. c #513C89",
"%. c #5A4286",
"&. c #5A4790",
"*. c #5C4890",
"=. c #624986",
"-. c #694D82",
";. c #634D8C",
":. c #846380",
">. c #9C7D8D",
",. c #8F7DA9",
"<. c #8B7DB1",
"1. c #BC8E82",
"2. c #C79780",
"3. c #C99982",
"4. c #C3968A",
"5. c #C1A190",
"6. c #C6A798",
"7. c #C6AFAD",
"8. c #CFB3A7",
"9. c #D1BAAC",
"0. c #D9C5BB",
"q. c #D7CFDC",
"w. c #E7D7D1",
"e. c #EEE1DD",
"r. c #DBD6E6",
"t. c #DCD8E8",
"y. c #F6F1EE",
"u. c #F9F5F4",
"i. c #FFFFFF",
/* pixels */
"* $ % $ * $ $ $ # # $ # $ $ $ $ $ # $ O @ $ # + + O O O # # # # # # $ $ $ $ # $ $ # $ $ $ ",
"$ + + + + X # + + # # # # # @ @ # O . O . . .               . . . . X X O # + O O O O O . ",
"% + + + + # . + + . . + + o O O X X . X . + .           . . . . . X X X X X X . . # . O # ",
"$ @ + + + + + . + . # + $ X @ @ O . X . . . .           . . . . . . X O X X X X X . # . # ",
"$ + + + + + . + + + . # + # + # o . X . X .               . . .   . X X X X X X X X + . # ",
"$ + + + . + . # . # # . + # . + @ X o @ X + + @ o o o o # + @ @ $ @ X X X X X X X . . . # ",
"# + + . # + + . + . # . . + # + O $ $ @ @ @ & > % > > > < & & & > $ X O X X X X . . + # + ",
"# + . # . . + # + . + # . + . + X $ $ $ $ $ % > > > > > & & < & > & X X X O O . . X . . O ",
"$ # . # + . # # . # + . + + . . + $ $ $ @ $ % > > > > > & & > & & % + # . + X X + . + . # ",
"$ # # . . + + . + . . + + + + + + $ $ # $ @ % > > > > > > & & & > % + + . # X X . . .   + ",
"# + . + + # $ $ $ # # # # + $ + # % * % % % & < > < > > < < < < < & @ @ # $ + + . . + + # ",
"# + . # + q C C C C C C A A C C A Q Q Q Q Q E K H Z K K A A K A A C M n n n n 8 # # # $ # ",
"$ # + . . t [ [ [ [ [ X.X.X.X.X.X.3.3.3.3.3.+.o...O.O...O.X.X.X.O.[ L L L J ` 0 + $ $ $ % ",
"# + + . # t [ [ [ [ [ X.[ X.X.X.X.2.2.2.2.2.+.o.{ ..{ ..X.X.X...o.[ L L L ` D 0 $ $ $ $ $ ",
"# . # + . t [ [ [ [ [ [ X.X.[ { X.2.2.2.2.2.O.................X.{ [ L L L J H 0 $ $ $ % % ",
"# # . + . t [ [ [ [ [ X.X.X.X.X.X.2.2.2.3.+.+.....o... .X.X.X...o.{ J L J ` ` 0 + $ $ $ $ ",
"9 8 7 7 7 f [ [ ' [ [ [ { ..{ {  .X.1.+.1.+...' ' ' } ' ....X. ...' J J J J H y 4 4 4 4 9 ",
"! Q Q Q Q ! ' ' ' ' ' ^ ! ! ^ ^ _ _ _  ._ _ ! A A A A A } ......../ B B B B B B M M M m B ",
"_ ! ! ! ! _ ' ' ' ' ' ^ ! ! ! ! _ _ _ _ ) _ E A A A A Q ' ........! B B B B B B B B B B B ",
"_ ! ! ! ! ` ' ' ' ' ' ^ ! ! ! ! _ _ _ _ ^ ^ Q A A A A A } { ..} ..! B B B B B B B B B B B ",
"_ ! ! ! ! _ ' ' ' ' ' _ ! ! ! ! ! _ ) _ _ _ Q A A A A A ' ....| ../ B B B B B B B B B B B ",
"` ! ! ! ! ` ' ' ' ' _ ` ! Q Q ! Q _ _ _ _ _ Q A A A A E ' ........^ N N B B M B B B B m B ",
"' _ _ _ _ R g g g g :.7.0.0.w.9.8.' ^ ( ( ( ( ^ ! ^ ^ ! T I I I g >.9.9.9.9.8. .K A K K K ",
" .[ _ ' [ Y #.#.#.#.&.t.i.i.u.i.e.} / / ( / | ....| ..} =.@.$.$.@.<.i.i.i.i.i.6.L _ ` Q _ ",
"' ' ' ' ' Y $.$.$.$.*.r.i.i.i.i.e.| ( / / / ] ..| ....) ;.$.$.$.@.<.i.i.i.i.i.6.K Q ` Q _ ",
" .' ' ' ' Y $.$.$.$.*.r.i.i.i.i.e.| / ( / / ] | } ....} =.$.$.$.@.<.i.i.i.i.i.6.` _ Q _ _ ",
" .' ' ' ' Y $.$.$.$.&.r.i.i.i.i.e.] / / ( ( ] ......{ ) =.$.$.$.@.,.i.i.i.i.i.6.Q ` ` _ _ ",
"' ' ' ^ ` U %.%.%.%.=.q.u.y.u.u.w./ W W W W / ' ' ' ' ^ -.%.%.%.%.,.y.y.y.y.y.5.K Q K Q K ",
"G D D D D G ~ ~ W ~ ~ 4.4.4.4.4.) a a u u u a a a a a f ~ ) ) ) ` / ` ` ` ` ` m z z z x x ",
"D m m m m F / / / / / ( | | ) | W u r r r r r r r r r u / o.o.o.o.` S S S S S z s s s s s ",
"N m m m b F / / / / / ( | | | | ~ r r r r r r r r r r r / { { o.o.` D D S S S x k s k k s ",
"D m m m S F P / / / / | ( | ) ( E u r r r r r r r r r u P o.o.{ { ` D S S S S x k k k k z ",
"D N m m S F / / / / / ( o.| | | E r r r r r r r r r r r / o.o.o.o.` D D D D D x s k k k k ",
"N b m b b D J J J J F N V V V V b p u u u u u u u u u u v M B M V B m S m m m x k k k k k ",
"b b v b b b c c b c c 3 - - ; - 1 h j j j j j j j j j h 1 ; ; : - 6 c c x x x z k l k d l ",
"V v b b b c m m b m c 3 - = = % 1 j j j j j j j j j j h , - ; = - 6 x x x x x l l k l l l ",
"b b b b b b c b c c c 5 o = ; = 1 h j j j j j j j j j h , = - : - 6 x x x x x z d l l l l ",
"V b b v v b b c m c c 5 = - ; o 1 h j j j j j j j j j h 1 = - : : 6 x x x x x z l l k d l ",
"b b b b b b b c c c c 2 = % = - 1 h j j j j j j j v h h 1 : ; - - 6 c c x x x z k l l l l ",
"v i p p p p i p p k p , = - - - : 3 3 3 3 3 3 3 3 3 3 3 : = = : - 6 z z x z z l p p s s d ",
"e w e e e w w w e w w : - - - % = = = = = = = - - - - - - : : - - 5 l l d z z s p p p p s ",
"e e e e e w w w w e e , - - - - - = = = = = - : - : - - - - - - - 6 l l z d z s p p p s s ",
"e e e e e e e w w w w : o - - % - = = = = = = - - - - : - : - : - 6 d z k l l d p p s p a ",
"p e e e e e e e w w w : = - - = - = = - = = = - - : - : - - - - - 6 l z l l l s p p p p s ",
"p e e e e e e w e e e , - - - - - - - - - - - : : : : - : : - : ; 6 l l d z l s i s s s s "
};
