/* XPM */
static char *_cca5262d5454d25f861bce134d5547369bWwCP4hkBG4OY4[] = {
/* columns rows colors chars-per-pixel */
"45 45 123 2 ",
"   c #241708",
".  c #261A0A",
"X  c #2B1E0D",
"o  c #311F0C",
"O  c #2B1E10",
"+  c #2F200D",
"@  c #31210E",
"#  c #2E2212",
"$  c #332413",
"%  c #3A2712",
"&  c #3E2A15",
"*  c #3B2D1B",
"=  c #421D0A",
"-  c #43210D",
";  c #472410",
":  c #492410",
">  c #432B13",
",  c #4E2914",
"<  c #442E19",
"1  c #522B17",
"2  c #532C18",
"3  c #5B2D1C",
"4  c #4C341F",
"5  c #563019",
"6  c #5C331E",
"7  c #463220",
"8  c #4A3521",
"9  c #4D3928",
"0  c #5B3F29",
"q  c #5B402B",
"w  c #6D432B",
"e  c #70462C",
"r  c #6A4130",
"t  c #674C36",
"y  c #694B34",
"u  c #734534",
"i  c #754B33",
"p  c #7A4E33",
"a  c #774B3A",
"s  c #784C3B",
"d  c #7D5135",
"f  c #7E533A",
"g  c #7E5341",
"h  c #75526E",
"j  c #795979",
"k  c #85493A",
"l  c #8A4C3D",
"z  c #805335",
"x  c #82543B",
"c  c #87593C",
"v  c #8E5D3D",
"b  c #935D3E",
"n  c #8C5D43",
"m  c #8A5B4A",
"M  c #935E42",
"N  c #8C6047",
"B  c #9B6345",
"V  c #95654A",
"C  c #9C674B",
"Z  c #9C694C",
"A  c #936352",
"S  c #946F55",
"D  c #986E55",
"F  c #9D735C",
"G  c #A36A47",
"H  c #A26A49",
"J  c #A56D52",
"K  c #A77256",
"L  c #A97257",
"P  c #A3755C",
"I  c #AC765A",
"U  c #B47D5E",
"Y  c #8E696E",
"T  c #9B6C68",
"R  c #876275",
"E  c #8F6A73",
"W  c #A67363",
"Q  c #AE7662",
"!  c #A47963",
"~  c #AA7D66",
"^  c #AD7F68",
"/  c #B47C64",
"(  c #B17B69",
")  c #A77776",
"_  c #AD7D77",
"`  c #AD806C",
"'  c #B4846D",
"]  c #BA856C",
"[  c #B6896C",
"{  c #BB896D",
"}  c #B68372",
"|  c #B98374",
" . c #B68871",
".. c #BC8B72",
"X. c #BC8E79",
"o. c #BF9074",
"O. c #C18A6E",
"+. c #C19277",
"@. c #C2927C",
"#. c #4F3A89",
"$. c #503A87",
"%. c #523D89",
"&. c #5A4285",
"*. c #55418C",
"=. c #694B81",
"-. c #7C6CA6",
";. c #927489",
":. c #816DA0",
">. c #C79780",
",. c #C99A83",
"<. c #C29E8D",
"1. c #D0B2A3",
"2. c #D4B9AC",
"3. c #D8BEB2",
"4. c #DBC5BB",
"5. c #E0C9BF",
"6. c #CBC5DD",
"7. c #E1CBC0",
"8. c #EEE3DE",
"9. c #F5EDEA",
"0. c #F9F4F2",
"q. c #F8F7FA",
"w. c #FFFFFF",
/* pixels */
"* $ % $ * $ $ $ # # $ # $ $ $ * $ # # $ @ # + + # O O O # # # # # # $ $ $ $ # $ $ # $ $ $ ",
"$ + + + + X # + + # # # # # + + O . . O + . .               .   . . # X . # + X O O O O . ",
"% + + + + # . + + . . + @ $ X + O . X . X . .           . . . . . . X + # X + . . O . O # ",
"$ @ + + + + + . + . # + + O o + O . X X . . .           . . . . . . X X X X . # # . # . + ",
"$ + + + + + . + + + . # # # + # X X X . . X             . . . . . . X X . # + . X . X . # ",
"$ + + + . + . # . # # . + . + + o X X X o X o @ X o o @ # + @ @ @ # X X + + . # . X X . # ",
"# + + . # + + . + . # . . + + + X $ $ $ @ @ & > > > > > > & & & & % O X . # + . X + . . + ",
"# + . # . . + # + . + # . + . + O $ @ % $ $ % > > > > > & & & > & % X O X + # . . . . # # ",
"$ # . # + . # # . # + . + + + . X $ $ $ @ $ % > > > > > % & > & & % + + + + + . . . . . # ",
"$ # # . . + + . + . . + + # . + + $ $ $ $ $ % > > > > > > & & & & % + + . + + . . . + . # ",
"# + . + + # $ $ $ # # # # + $ + $ $ * $ % % & > > > > < < < < < & % @ @ + # # + + . + + + ",
"# + . # + q S S S S S S F F S S F ! ! ! ! ! W P P F K P F F P F ` S M b N N N 8 # # + # # ",
"$ # + . . t [ [ [ [ [ o.o.o.o.o.+.,.,.,.,.,.@.O.+.......+.o.o...+.[ ` I ] G ` 0 $ $ $ $ $ ",
"# + + . # t [ [ [ [ [ o.[ o.o.o.o.>.,.@.>.>.+.O.........o.o...o.O.[ L L G ` G 0 $ $ $ $ % ",
"# . # + . t [ [ [ [ [ [ o.o.[ { +.@.@.,.>.>.+.............o.o...{ [ ] G [ G ` 5 $ $ $ % % ",
"# # . + . t [ [ [ [ [ o.o.o.o.o.+.,.@.,.>.>.+.O.........o...o.o.O.{ G ] G ` ` q + $ $ + $ ",
"9 < 4 4 7 f [ [ [ [ [ [ [ .. . ...+.+.@.@.@...} ' ' } [ ..o.......' L L L L K y 4 4 4 4 4 ",
"` ` F P ! ~ ' ' ' ' ' ~ ~ ~ ~ ~ ` ' ` ` ` ` ! F F F F F }  . ...../ Z Z Z Z Z Z V V B V Z ",
"` ` ` ` ` ` ' ' ' ' ' ` ~ ~ ~ ~ ^ ` ` ` _ ` ! F F F F F '  .......^ Z Z Z Z Z Z Z Z Z Z Z ",
"` ` P ` ! ` ' ' ' ' ' ^ ~ ~ ~ ~ ^ ` ` ` ^ ^ ! F F F F W  ... .....( Z Z Z Z Z Z Z Z Z Z Z ",
"` ` ` ` ~ ` ' ' ' ' ' ` ^ ~ ~ ~ ^ _ ` ` ` ` ! F F F F F | .. .....^ Z Z Z Z Z Z Z Z Z Z G ",
"` F ` F ~ ` ` ' ' ' ' ~ ^ ^ ^ ~ ~ ` ` ( ` ` W F F F F F ' { | ..| W Z Z Z Z Z Z Z Z Z Z Z ",
"` ` ` ` ^ <.4.4.4.4.4.;.j j j j R ^ ( ( ( ( ' ^ ^ ^ ^ } 3.5.5.5.7.1.h h h h h S P D K D P ",
"[ ` [ [ ' 2.w.w.w.w.q.-.#.#.%.#.=.^ ( ( ( ( | ....| ..@.9.w.w.w.w.6.%.%.%.#.*.E ` ` ` ` ` ",
"[ [ ' ' ' 2.w.w.w.w.q.-.$.$.%.%.=.( / ] / / ]  ... ...@.9.w.w.w.w.6.&.$.*.$.$.E I ` P ` ` ",
"[ ' ' ' ` 1.w.w.w.w.q.-.$.%.%.%.=.( / / ( ( ( ....|  .>.9.w.w.w.w.6.*.$.$.*.*.E ` ` ` ! ` ",
"[ ' ' ' ' 2.w.w.q.q.q.:.$.#.$.%.=.( / / ( ] ' ........@.9.w.w.w.w.6.*.%.%.$.*.Y ` ` ` ` ` ",
"' ` ` ' ` 1.0.9.0.0.9.:.%.=.&.&.=.Q Q Q Q Q ( ' ' ' ( X.8.0.0.0.0.6.&.&.&.&.&.Y P F I ! P ",
"J C H J G / +.X.O.>.@._ ) ) ) _ T u k u u u a a a a a g X.,.,.,.+.{ Z A V Z V v c c c c c ",
"C B B B B H / / Q U / ( | | | | Q u r r r r r r r r w u / ] { { ] U G G G G G v d z z d z ",
"C B B B H J U / U / / | | | _ | W r r r r r r r r r r y U O.] O.{ ' H G Z G G z d z z z z ",
"J B M H M H / / Q / / ] | _ | _ W r r r r r r r r r r u U O.] O.{ ' G G G G G v z z z z z ",
"C B B B H J / / / / / ( O._ | O.W u r r r r r r r r r u ( O.{ ..O./ G G G G G v d z z d z ",
"B B B M M H L L L L L C A A A A n i u u u u u u u u u u V Z V Z V Z B B B B B c z z z d x ",
"m M M M M M B b M b b 3 - - - - 2 k l l k l l l l l l k 1 = : - - 6 v b b v v c z x x x c ",
"M M m M M b b B B b b 3 o = = % 1 l l l l l l l l l k k 1 - - : - 6 v v v v v c z x f x x ",
"A M M m M M M M b b b 5 = = ; o 1 k l l l l l l l l l k 1 = - - - 6 v M v v v c x p x f x ",
"M M n M M M b M b b b 5 = ; - = 2 k l l l l l l l l l k 1 - - : : 6 v v M v v c x x x x x ",
"A M M M n M M M B b b 2 = = - - 1 k l l l l l l l l l k 1 - - - - 6 M v v v v c x k f x x ",
"x p s p p p p p p z p , - % - - : 3 3 3 3 3 3 3 3 3 3 3 : - : - - 6 c c c c c z d d d d d ",
"e w w e w e w w e w w : - % - - - = = = = = - - - - - - : - - - - 6 x x c f c d p p d d d ",
"p e e e e w e w w w e , - - % - = = = = = = - - - : - - - - : : - 6 x f x c f d p p i d d ",
"e e e w e e w e w e e : = % = = - = = = = = = - - : - : - : - - - 6 x c x c f f p p p p p ",
"p e e e e e w w w w w : = - - - - = = - = = = - - - - : - - - - - 5 x x x f f d p p p p p ",
"e e e e e e e e e w w , - - - - - - - - - - - : : : : : : : : > ; 0 x x f f N d d p p p f "
};
