/* XPM */
static char *steve_player1677773610[] = {
/* columns rows colors chars-per-pixel */
"45 45 147 2 ",
"   c #1C1303",
".  c #221707",
"X  c #261A09",
"o  c #2B1E0D",
"O  c #301F0F",
"+  c #2F200D",
"@  c #31210E",
"#  c #3E270F",
"$  c #3F280F",
"%  c #2F2414",
"&  c #332412",
"*  c #3B2712",
"=  c #3E2914",
"-  c #362A18",
";  c #3A2B1A",
":  c #422B14",
">  c #422F1C",
",  c #46311D",
"<  c #48321D",
"1  c #4F3722",
"2  c #4D3824",
"3  c #573D27",
"4  c #533D28",
"5  c #5B3F29",
"6  c #673E2E",
"7  c #683E2E",
"8  c #733E32",
"9  c #5C422C",
"0  c #5F4631",
"q  c #66462F",
"w  c #6D432B",
"e  c #70462D",
"r  c #614732",
"t  c #6B4031",
"y  c #774235",
"u  c #784335",
"i  c #734A33",
"p  c #7A4D33",
"a  c #754939",
"s  c #7E4D38",
"d  c #6D503A",
"f  c #7E5134",
"g  c #7E543A",
"h  c #775675",
"j  c #7C5C79",
"k  c #805335",
"l  c #895837",
"z  c #82543A",
"x  c #86593B",
"c  c #8E5D3D",
"v  c #925E3E",
"b  c #91603F",
"n  c #9D633F",
"m  c #865A41",
"M  c #8E5E43",
"N  c #935F42",
"B  c #8F6248",
"V  c #956143",
"C  c #9B6344",
"Z  c #92644A",
"A  c #9B674A",
"S  c #9D694C",
"D  c #996556",
"F  c #9F6D52",
"G  c #986F59",
"H  c #977157",
"J  c #9C725C",
"K  c #A16642",
"L  c #A16946",
"P  c #A36B49",
"I  c #A36E52",
"U  c #A36E5E",
"Y  c #A97257",
"T  c #A3755C",
"R  c #AB755A",
"E  c #A3785F",
"W  c #AF7E5F",
"Q  c #B1775D",
"!  c #B27A5E",
"~  c #9F706A",
"^  c #856176",
"/  c #84617F",
"(  c #89657B",
")  c #A56F60",
"_  c #A97666",
"`  c #A47A64",
"'  c #AB7D65",
"]  c #A77768",
"[  c #A67D68",
"{  c #AC7E69",
"}  c #B47C65",
"|  c #B97F62",
" . c #B17D6A",
".. c #A87775",
"X. c #AD7C73",
"o. c #AB7A78",
"O. c #B17F72",
"+. c #AD806C",
"@. c #B28164",
"#. c #B88163",
"$. c #B5856D",
"%. c #BA856C",
"&. c #B6886C",
"*. c #BC8A6E",
"=. c #B68371",
"-. c #BA8573",
";. c #B18973",
":. c #BC8B73",
">. c #BF8C7A",
",. c #BF9074",
"<. c #C28B6D",
"1. c #C38E72",
"2. c #C08F78",
"3. c #C49276",
"4. c #C3937B",
"5. c #C8957E",
"6. c #3F2A83",
"7. c #432F86",
"8. c #473182",
"9. c #4A3383",
"0. c #47368C",
"q. c #4E3A8B",
"w. c #533E89",
"e. c #5D4486",
"r. c #55408A",
"t. c #604786",
"y. c #634884",
"u. c #7667A5",
"i. c #7867A3",
"p. c #7968A2",
"a. c #907287",
"s. c #9C7D8C",
"d. c #8A7BAF",
"f. c #867BB4",
"g. c #BF9A87",
"h. c #C69781",
"j. c #CC9B85",
"k. c #C5A696",
"l. c #C8AA9B",
"z. c #CFB0A2",
"x. c #CFB6A9",
"c. c #D1B4A5",
"v. c #D0B7A9",
"b. c #D3BCAD",
"n. c #DCC5B9",
"m. c #DEC9BE",
"M. c #FEFEFE",
/* pixels */
"@ + O + @ + o o X % X o o o O % O o X X X o X . X X . X X X X o X o o o o o o o o o o o - ",
"+ + @ o + o o o + o + % O % O o o X o o o X X . . X X . X X X X X X o o o o o o o o o X % ",
"+ @ @ @ + + o o o o o o O o O O o o X o o o X . . X . X X X X X X X o o o o o o o o o X % ",
"+ o o @ + o + o o o o + O O O O O X o X X o X X X . X . X X X X X o o o o o o o o o o X % ",
"+ + + + + o o o + + X % + + + + o X X o X o X . . . . . X X X X . X o o o o o o o o o X % ",
"+ o + + o + o o X % % X + + + % % o + o o o o + o O O O @ @ O o O O o o o o o o X o o o % ",
"o o o o o o o + + X X + +   % X o & & & & & * : : : : : : > : : : * o o o o o o X o o X % ",
"o o o o o o o o + X + + + % X + o & & & & & # : : : : : = = = = > - o o o o o X o X X X % ",
"o + o o + X + + X X + + + X + X + & & @ & & # : : : : : : = = : : - o o o O o o + . + . % ",
"o o o o + + + X % + % X + + + + + & & & & @ # : : : : : : = : = : = o + O o O o . + . + % ",
"o o o o + +   + X + X X . . . + + + + + + + @ : : $ $ $ = * * * = @ X X X X o o + . + . % ",
"o o o +   9 J H H H H H @.H J J J [ [ [ [ [ ` T I Y T J E ` J E E H Z Z Z B Z 2 + % % % ; ",
"o o + +   0 3.:.;.,.,.,.,.3.,.3.4.j.j.j.j.j.h.3.3.3.3.>.3.,.4.3.3.*.! ! ! ! #.9 + & - @ ; ",
"o o + + . 0 :.&.&.&.&.&.,.,.,.&.,.4.h.4.h.h.2.-.-.:.:.:.,.:.:.,.,.&.R R Y Y ! 3 + & & & ; ",
"+ + + + X 0 ,.&.&.&.&.,.,.,.&.,.,.h.h.h.h.h.3.:.:.:.:.:.:.:.,.,.,.&.R R Y Y @.3 + - & & ; ",
". X . X   9 ,.&.&.&.&.,.,.,.,.,.,.h.h.h.h.h.3.:.:.:.:.,.,.,.:.:.1.&.R ! R R R 9 + & @ @ % ",
"> , , , - d *.&.&.&.&.-.:.&.:.-.,.>.>.,.h.h.-.$.=.&.$.$.:.:.:.:.3.$.Y Y Y Y R q ; < < < 9 ",
"[ ' [ { ' @.$.$.$.$.$.' [ ' ' ' +.+.+.;.+.+.` G J J J J &.:.:.:.:. .A S S S S S S S S S F ",
"' { ' [ ' { $.$.$.$.$.[ @.[ ' ' +.+.+.+.+.+.] J J J J J %.:.:.-.:.@.S S S S S S S S S S F ",
"' ' ' ' ' { $.$.$.$.$.@.[ ' [ ' [ +.+.+.{ +.` G J J J ~ $.:.-.:.:.' A S S S S A S S S S F ",
"' ' ' ' [ +.$.$.$.$.$.' [ [ ' ' [ +.+.+.X.+.` G J ~ J J $.-.-.&.:.} S S F P S S S S S S F ",
"[ ' ' [ ' ' } ' ' ' } @.@.@.@.@.+.+.+.{ { ;._ G J G G J *.3.<.3.3.} v v N b b C A S A C S ",
"+.+.+.@.' h.m.n.n.n.n.a.h j j j ^  . . . . . .' ' ' { { ( / / ( j s.b.v.v.x.b.;.F T T T E ",
"&.$.=.=.' v.M.M.M.M.M.u.7.q.0.0.e.| } } } } =.2.1.:.:.:.e.0.0.q.7.f.M.M.M.M.M.l.E +.@.[ +.",
"$.$.$.$.' z.M.M.M.M.M.i.9.w.w.w.y.} } } } } %.:.-.-.-.&.y.q.r.r.8.d.M.M.M.M.M.k.T [ ' ' +.",
"$.$.$.$.} z.M.M.M.M.M.i.9.w.w.q.y.} }  .} }  .-.:.-.=.:.e.r.r.r.8.d.M.M.M.M.M.k.T @.' ` +.",
"$.$.@.;.} c.M.M.M.M.M.i.9.w.w.w.y.} } } } } $.:.-.*.:.:.e.q.q.r.8.d.M.M.M.M.M.k.E [ [ ' +.",
"$.$.$.=.' l.M.M.M.M.M.i.9.r.w.w.y.} } } } } $.-.*.-.-.:.y.w.r.r.8.d.M.M.M.M.M.g.E { [ @.+.",
"I P L I C R 4.>.1.2.2.o.......o...8 8 a a a a a a a a a ] $.{ X.+.} @.@.@.@.@.C l x x l m ",
"N C N C C P } R Q Q Q  .-.<.O.>._ 8 7 8 7 7 7 7 q 7 7 7 @.<.<.<.<.#.n n n n n l p k f f z ",
"C C C A C I } } } ! } O.O.O.=.-.] t 7 8 7 t t t 7 t t t } <.%.%.*.#.L P L L P c f k k k x ",
"C C C K N P } ! } } } O.<.O.O.-.] 7 7 7 t t t t t 7 7 w } <.%.<.<.@.L L L L L l f k k f m ",
"A A C P C I } } } } | -.-.-.-.-.' 7 t t t 6 t t t t t t  .1.1.1.1.| L P P P P l f k k f x ",
"C N N C N P Q Y Y Y Y U ) U ) ) D t t y t t t t t t t t I T Y Y U I C C C C C c k k k k x ",
"M M N N N N n v v v n u 8 8 8 8 y y u y u u u y u u u u y 8 8 8 8 u b v c c v z k z z k x ",
"N M N N N N v v N v N k 8 u u u u y y y u u y y u u u u u u u u y k b c M c v x k z z g m ",
"M N M M M N v N N N n u u u u 8 y y y y y y y y y u y y y y y y 8 z v c c M v x z z z k m ",
"M M N N M N N v N n N z 8 u u u y y y y y y y y y y y y y y y y 8 k v v v c N z z k k g m ",
"D N N N M V C N n n N u 8 8 8 u y y y y y y y y y y y y y y y y 8 u N N c v v z z z z g x ",
"8 u s u s p p p k u k u m u z m s s s s s s p p u p u p g s g s z z m x x x x k s u g p g ",
"w w w w w w 6 w 6 6 w p k k k k z z z k z z f p i f f p z x x z x z z z z z g f p p p i f ",
"e e w e w w w w w 8 8 k k k z z z f z z z z f p f f i p z z g x z m z z z z z g i f p p g ",
"e e e e w w w w w w w k z z z z z z z g z z s p p p p p z m x z z z m z x z x f f i f p g ",
"w w w e w w w w w w w e k k k z z k g g s k f i p p p p g z z g z z z z z z g f p p p p g ",
"i i p i i i i i e y y z m m m m m m x m m x g g g g g g x B x m m m M m B x m g g g g g x "
};
