/* XPM */
static char *_2a7c1171e194ae6e12bfe06bfb85d41SvcwliudbEbPaGti[] = {
/* columns rows colors chars-per-pixel */
"35 35 193 2 ",
"   c None",
".  c #1F2B12",
"X  c #22321C",
"o  c #162B2E",
"O  c #1A2E32",
"+  c #1D3236",
"@  c #1F3539",
"#  c #243722",
"$  c #283D25",
"%  c #203337",
"&  c #223639",
"*  c #243A3D",
"=  c #233E34",
"-  c #274434",
";  c #294535",
":  c #2A4738",
">  c #2D4B39",
",  c #334E3F",
"<  c #354D31",
"1  c #34533A",
"2  c #39573E",
"3  c #3B5B3E",
"4  c #3D5837",
"5  c #243C40",
"6  c #2B3D41",
"7  c #294245",
"8  c #2C4549",
"9  c #2D4B46",
"0  c #324346",
"q  c #324A4D",
"w  c #344B45",
"e  c #33534B",
"r  c #3C5749",
"t  c #375444",
"y  c #3C4E51",
"u  c #355356",
"i  c #3D5254",
"p  c #375954",
"a  c #3A5B54",
"s  c #395A5C",
"d  c #385659",
"f  c #3F625A",
"g  c #3C5E60",
"h  c #3E6264",
"j  c #415B4C",
"k  c #485959",
"l  c #4A6B48",
"z  c #4F7148",
"x  c #527746",
"c  c #577B4A",
"v  c #567A4B",
"b  c #44645C",
"n  c #4C665B",
"m  c #486757",
"M  c #52695D",
"N  c #50675B",
"B  c #547A5D",
"V  c #5A7C50",
"C  c #485D60",
"Z  c #416566",
"A  c #4D6B61",
"S  c #426669",
"D  c #45696A",
"F  c #496C6C",
"G  c #466A61",
"H  c #546265",
"J  c #586669",
"K  c #5A6A68",
"L  c #4C7163",
"P  c #4C716C",
"I  c #51766D",
"U  c #55796C",
"Y  c #5A7D6C",
"T  c #587566",
"R  c #4C6F71",
"E  c #5E6E71",
"W  c #4C7274",
"Q  c #517779",
"!  c #547A7C",
"~  c #5A7C7D",
"^  c #547773",
"/  c #606D6F",
"(  c #61766A",
")  c #64796E",
"_  c #616E71",
"`  c #637273",
"'  c #6A7E74",
"]  c #657B78",
"[  c #5D834B",
"{  c #648E4D",
"}  c #61864F",
"|  c #67904E",
" . c #68924E",
".. c #638857",
"X. c #6C9551",
"o. c #6E9851",
"O. c #729D53",
"+. c #759E5C",
"@. c #77A255",
"#. c #7BA556",
"$. c #7FAA56",
"%. c #7BA65D",
"&. c #7EA95A",
"*. c #77A059",
"=. c #5C8467",
"-. c #5C8273",
";. c #5F867F",
":. c #618968",
">. c #6E986D",
",. c #749D6D",
"<. c #739C66",
"1. c #638B74",
"2. c #638B7D",
"3. c #658B78",
"4. c #78897F",
"5. c #699273",
"6. c #6D957D",
"7. c #679075",
"8. c #759E74",
"9. c #739B7E",
"0. c #70977F",
"q. c #7AA465",
"w. c #7AA36C",
"e. c #76A069",
"r. c #79A17E",
"t. c #80AB57",
"y. c #81AC5B",
"u. c #8BB65F",
"i. c #87B35E",
"p. c #83AD63",
"a. c #84AE6E",
"s. c #8EB963",
"d. c #8CB564",
"f. c #92BD65",
"g. c #93BC6D",
"h. c #87B271",
"j. c #92BB73",
"k. c #97C369",
"l. c #9CC46B",
"z. c #9BC672",
"x. c #9FCB72",
"c. c #A5CC68",
"v. c #A3CD75",
"b. c #A2C77A",
"n. c #ACD475",
"m. c #A5D078",
"M. c #B6DB71",
"N. c #A8D16B",
"B. c #BFE26E",
"V. c #BDE173",
"C. c #BBE07C",
"Z. c #C0E36E",
"A. c #C2E57A",
"S. c #597F81",
"D. c #577E81",
"F. c #5C8385",
"G. c #608783",
"H. c #658D82",
"J. c #698485",
"K. c #6B9381",
"L. c #739B80",
"P. c #788F90",
"I. c #799192",
"U. c #7A8486",
"Y. c #7BA288",
"T. c #7AA181",
"R. c #829188",
"E. c #919E97",
"W. c #8B9991",
"Q. c #93A098",
"!. c #8CB39B",
"~. c #84AB95",
"^. c #95A3A4",
"/. c #A3AEA8",
"(. c #A9B1AD",
"). c #AAB0B1",
"_. c #B1BCBD",
"`. c #B7DC87",
"'. c #A1C7AC",
"]. c #ADD3AD",
"[. c #AFD5BA",
"{. c #C7EA8F",
"}. c #CAEEAA",
"|. c #CCF0B3",
" X c #B7C1C1",
".X c #BBE1C6",
"XX c #C0C6C3",
"oX c #C2CAC9",
"OX c #C0E5C5",
"+X c #CFF4C0",
"@X c #D4F8CF",
"#X c #D4F9DB",
"$X c #D7FCE2",
/* pixels */
"                                                                      ",
"                              oXoX XXXXX                              ",
"                            J.] T N M M N                             ",
"                            R h q ; ; ; , E.                          ",
"                    P.P.I.I.! W F b b b G 3.3.' )                     ",
"                  ~ Z Z h D ~ F.F.F.F.F.S.i : : : ,                   ",
"               X_.S.h F F P F.F.F.F.G.F.F.b t t w t                   ",
"            ^.~ ^ ! F.;.6.6.6.6.9.6.L.0.9.7.5.-.h f r t (             ",
"            ^.D h ;.F.H.L.L.L.9.9.L.9.9.9.L.L.-.Z h 9 > T             ",
"        R.) ] Q Q 2.H.!.[.].`.j.j.h.a.q.w.8.L.6.-.-.f p M T U.        ",
"        ) - a F.F.6.0.'.$X@XA.B.N.k.f.t.$.8.9.9.9.6.F h e - N (.      ",
"        ) - a ;.H.~.!.].+X|.C.M.f.+.@.@.@.e.8.8.9.6.U P a = m (.      ",
"        ) - m 5.Y..X#X}.A.V.n.m..., 3 {  .@.$.q.9.9.0.6.n o r         ",
"      XX) ; m 6.Y..X#X}.B.B.v.z.V - 4 [ { @.$.q.9.9.9.L.n + k ^.      ",
"  /.( K b p L 6.T.`.{.`.n.k.V l < X $ 1 3 [ X.O.q.q.8.9.U u u k k     ",
"  E.r ; p h ^ L.r.n.V.M.m.g.t - X . X - : x { o.$.$.8.9.~ Z s O + J   ",
"  Q.r : p h I e.w.l.c.c.v.d.t ; # . X ; > c | o.$.$.8.L.-.h s @ % J   ",
"  Q.r : p f U $.t.y.$.u.k.i.2 ; # . X - : c { o.$.$.8.9.-.h s + % H   ",
"  E.r : p h T #.&.$.$.i.s.&.2 ; X . X ; : c  .O.#.$.8.9.-.h s + % H   ",
"  E.r : p h I 8.w.%.&.@.O.{ 1 ; $ . X ; : X.s.i.$.t.&.%.=.h s + % H   ",
"  Q.j > a h ^ 0.L.%.t.O.{ [ 1 ; # . X ; , O.k.s.t.t.$.$...h s @ & H   ",
"    ' ' n e G H.H.8.w.*.@.o.[ [ 4 # < } ..%.d.p.>.>.,.w.B 9 d ` J     ",
"        M ; a F.G.K.L.w.$.y.s.k.c - l z.m.s.t.<.F.F.L.L.n o y ).      ",
"        N ; a Q F.2.6.8.q.y.s.f.} 1 z g.z.p.*.,.2.2.3.7.b o y         ",
"        n ; w Z D D.F.K.9.8.&.y.o.[ | y.y.5.;.5.%.+.T D q o 9         ",
"        M t e h g D.F.G.9.9.%.$.o.{ X.#.&.3.F.7.#.@.L g q @ 0         ",
"          ' ` 9 8 S R ! H.H.7.5.1.=.1.5.5.7.H.3.=.B e 7 C _           ",
"            U.& + d h R F.F.F.F.F.F.F.F.F.K.L.1.h s @ O k             ",
"              k k y u g F F Q ! D.! ! ! Q Y Y A u u y 6               ",
"                  6 O O + 5 g h Z Z Z h h 7 + + O *                   ",
"                  j * * 5 6 s g g g g g g 8 & & & 6                   ",
"                          S.q 5 5 5 5 5 7 E                           ",
"                            6 o o o o o %                             ",
"                            / E ` ` _ J H                             ",
"                                                                      "
};
