/* XPM */
static char *_c8587a7f3ec4d3186b94341da8d274exJ4gcs3riNPBYueU[] = {
/* columns rows colors chars-per-pixel */
"50 50 191 2 ",
"   c None",
".  c #1F2B12",
"X  c #212F19",
"o  c #21311B",
"O  c #162A2E",
"+  c #14282C",
"@  c #182D30",
"#  c #162B30",
"$  c #1D3134",
"%  c #1F363A",
"&  c #243723",
"*  c #2A3E26",
"=  c #22373B",
"-  c #223A3E",
";  c #293C3F",
":  c #274434",
">  c #294636",
",  c #294639",
"<  c #2D4A3A",
"1  c #2A4737",
"2  c #324E35",
"3  c #35543C",
"4  c #3A583A",
"5  c #3E603F",
"6  c #253D41",
"7  c #2C3E42",
"8  c #264043",
"9  c #2C4241",
"0  c #2F4C4F",
"q  c #2D4944",
"w  c #34464A",
"e  c #345244",
"r  c #33534B",
"t  c #3D5749",
"y  c #3B5847",
"u  c #304F51",
"i  c #3E4E51",
"p  c #345354",
"a  c #375955",
"s  c #3A5C5C",
"d  c #3D5B56",
"f  c #3F6159",
"g  c #3B5E61",
"h  c #3E6264",
"j  c #485D5D",
"k  c #476845",
"l  c #4D7245",
"z  c #52734C",
"x  c #587D4A",
"c  c #4A6255",
"v  c #42635C",
"b  c #4B6D58",
"n  c #46685A",
"m  c #547B5F",
"M  c #4C5F62",
"N  c #416565",
"B  c #466863",
"V  c #426769",
"C  c #44696B",
"Z  c #496D6C",
"A  c #546366",
"S  c #5E6B6E",
"D  c #556966",
"F  c #4C716C",
"G  c #51766C",
"H  c #5A7D6B",
"J  c #587965",
"K  c #4C6F70",
"L  c #4E7274",
"P  c #567C71",
"I  c #527679",
"U  c #547676",
"Y  c #64786D",
"T  c #60756B",
"R  c #6A7678",
"E  c #667A75",
"W  c #606D70",
"Q  c #5D844A",
"!  c #5F884B",
"~  c #5D8259",
"^  c #648E4D",
"/  c #66904D",
"(  c #6A944F",
")  c #628653",
"_  c #6B9352",
"`  c #6E9850",
"'  c #68905D",
"]  c #6C955A",
"[  c #739D53",
"{  c #759E59",
"}  c #7AA555",
"|  c #7FAA56",
" . c #7CA65E",
".. c #7EA959",
"X. c #5E8577",
"o. c #5A8168",
"O. c #628B61",
"+. c #6A9363",
"@. c #739D65",
"#. c #729C6C",
"$. c #638975",
"%. c #658C7A",
"&. c #678475",
"*. c #73857B",
"=. c #699174",
"-. c #6D957C",
";. c #759E75",
":. c #729A7F",
">. c #76A061",
",. c #7AA464",
"<. c #77A06D",
"1. c #78A26A",
"2. c #77A071",
"3. c #7BA278",
"4. c #80AB56",
"5. c #82AD5A",
"6. c #85B05C",
"7. c #89B55F",
"8. c #85AF61",
"9. c #85AF6F",
"0. c #8AB662",
"q. c #8EBA63",
"w. c #8BB565",
"e. c #92BE65",
"r. c #94BC6B",
"t. c #88B271",
"y. c #93BB73",
"u. c #94C067",
"i. c #96C269",
"p. c #99C271",
"a. c #A4CB6D",
"s. c #ABD26A",
"d. c #A3CE76",
"f. c #A2C778",
"g. c #A6D177",
"h. c #ACD475",
"j. c #A5D078",
"k. c #B3D972",
"l. c #BADF70",
"z. c #BFE26E",
"x. c #BCE178",
"c. c #C0E36F",
"v. c #C2E578",
"b. c #577D80",
"n. c #587F82",
"m. c #5B8384",
"M. c #648B83",
"N. c #608784",
"B. c #7C8C83",
"V. c #7B8688",
"C. c #6B9381",
"Z. c #729A80",
"A. c #7F9697",
"S. c #7DA488",
"D. c #84938B",
"F. c #879092",
"G. c #879B9C",
"H. c #8E9997",
"J. c #838D8F",
"K. c #86AD93",
"L. c #99A59E",
"P. c #8BB29A",
"I. c #9BA5A1",
"U. c #9BABAC",
"Y. c #94A6A7",
"T. c #A6ACAD",
"R. c #ACB4B0",
"E. c #B2BAB6",
"W. c #ABB4AF",
"Q. c #BBDF92",
"!. c #BAE085",
"~. c #A5CCB0",
"^. c #AED5B5",
"/. c #AFD5B4",
"(. c #C8EB96",
"). c #CAEEA6",
"_. c #CDF2B9",
"`. c #B7C1C2",
"'. c #C1C5C5",
"]. c #C9CDCB",
"[. c #C5CCCB",
"{. c #CDD2D3",
"}. c #D3D6D4",
"|. c #D5D8D6",
" X c #D4D8D8",
".X c #D2F6C6",
"XX c #C8EED1",
"oX c #D4F9D8",
"OX c #C3E9CD",
"+X c #D7FCE1",
"@X c #D9FEE2",
/* pixels */
"                                                                                                    ",
"                                                                                                    ",
"                                        }.{.{.].].[.[.[.].'.                                        ",
"                                        n.K L v k i t t t c                                         ",
"                                        L g h r > > > > : > L.                                      ",
"                                        K h h r > > > < > 1 I.                                      ",
"                          Y.G.G.G.G.G.G.U I L Z B B B B B v &.D.B.B.B.B.                            ",
"                          L g h h h g N m.m.m.m.m.m.m.m.m.m.d : : : : : 1                           ",
"                         XL h h g h h V n.m.m.m.m.m.m.m.m.m.f > > > : 1 1                           ",
"                    ].].`.I V V C Z Z Z m.N.N.m.m.N.N.N.m.N.n e y e < q < L.                        ",
"                  U.Z K K m.m.m.M.-.-.-.:.:.Z.:.Z.Z.:.C.:.-.:.-.=.$.h f g a e 3 Y                   ",
"                  Y.h h h b.m.m.C.:.:.:.:.:.:.:.Z.Z.:.:.:.:.:.:.S.%.h h h e > : J                   ",
"                  U.h h h m.m.m.M.Z.Z.Z.:.:.:.:.Z.Z.Z.Z.:.:.:.:.:.%.V h h e 1 : S                   ",
"            D.*.B.E I I I m.C.%.P.^.^./.f.p.f.r.t.t.9.,.,.1.;.:.Z.-.$.X.X.n a p c *.*.*.'.          ",
"          |.j : : f m.m.m.Z.S.:.~.@X@XoX(.z.z.s.i.i.e.4.| | <.Z.:.:.:.Z.:.F h h a > > < R.          ",
"          |.c : : f m.m.m.Z.-.-.~.@XoXoXv.z.z.s.i.i.e.4.4.| 2.Z.Z.Z.:.:.Z.G h h s < > < R.          ",
"          |.c > > v N.m.N.K.P.K./..X.X_.l.l.l.r.5. .} } } } @.;.2.;.Z.Z.:.P F Z v : : , R.          ",
"          }.c > > b Z.:.S.OXoXoX).c.v.x.h.g.j.) < < 3 ^ ^ ^ { 4...,.Z.Z.:.:.-.:.H $ # $ T.          ",
"          |.c > > b Z.:.S.XX@X@X).z.c.l.g.d.d.) > > 3 ^ / / [ 4.|  .:.Z.:.Z.:.Z.H = # @ T.          ",
"          }.c > > b Z.Z.S.XXoXoX).z.c.l.d.d.d.) > > 3 ) ^ ^ [ 4.4...:.Z.:.:.:.Z.H @ # % T.          ",
"    E.E E Y v a a J :.:.S.Q.(.(.!.h.h.p.! z z 4 o o * 5 5 5 Q ( ` [ >.,.,.3.:.Z.$.p u u A W A F.    ",
"    L.> > , f h h P :.Z.S.k.z.z.k.d.d.y.3 , > & X . X : > > l / ^ ( | | 4.2.Z.:.%.N N g = O + A     ",
"    L.1 1 , s h h P Z.C.3.l.c.c.k.g.g.r.3 1 1 & . . X > 1 > l / ^ ( | 4.| 2.Z.Z.$.N N N 6 # O A     ",
"    L.1 , < s h h P 2.2.1.a.k.s.s.p.d.r.e 1 1 & . . X > 1 > l / ^ ( | | | 2.Z.:.%.N g g 6 # O A     ",
"    L.1 1 < f h h ~ ....| 4.4.4.q.i.i.8.3 > > & . . X : 2 > l / / ( | | | 2.Z.:.%.N h h - O O A     ",
"    L.1 1 < s h h o.| | | | | | 7.i.i.8.3 , > & . . X : > > l / / _ } | | 2.Z.:.%.h h h 6 O O A     ",
"    L.1 , < s h h ~ 4...| 4.| | 7.e.r.6.3 > , & . . X > 1 1 l / / ` | | 4.2.Z.:.%.N h h 6 O O A     ",
"    L.1 , < s h h H ;.2.2...| | } { [ _ 3 > > & . . X : 2 1 ) 7.8.6.| 4.| ..,.,.' N h h 6 # + A     ",
"    L.> 1 < s h h P Z.Z.:...| 4.[ ^ ^ Q 2 , , & . . X : > > _ i.i.e.| | | 4.4.4.[ N h h = @ O A     ",
"    L.> > , s h h P Z.:.;...4.4.[ ^ ^ Q 2 > , & . X X * : > _ i.u.e.4.| 4.4.4.5.] N h h - O + A     ",
"    E.Y Y J v a a G C.C.-.1. .,.{ ( ( / l k l 2 o o : l z z { q.q.0.>.@.{ >.,.,.' p p p M A A J.    ",
"          }.c > , v m.m.m.-.:.:.1.4.4.5.e.e.e.x > : y y.d.d.w.4.4.,.m.m.m.C.:.:.H $ @ $ T.          ",
"            c > > v m.m.m.Z.:.Z.1.| | 5.i.i.i.x > > k y.g.g.q.| | >.m.m.m.-.Z.Z.o.$ # @ T.          ",
"            c > > v m.m.m.C.:.Z.1.....4.e.u.u.x < 1 k p.g.p.q...| >.X.m.m.M.:.:.H $ # $ T.          ",
"            c : > r Z C Z m.N.N.C.;.;.2.5.6.6._ x x Q 5.7.7.;.%.%.=.1.>.>.o.F F f $ # $ T.          ",
"            c : : r h h N b.m.m.M.Z.Z.;...| | [ / / ( } | } =.m.m.%...| | J h h p # # $             ",
"            c : : r h h V n.m.m.M.:.:.;...4.4.` ^ ^ / | | | =.m.m.X.| | | o.h h p # + @             ",
"            D.E E D u u p L I I m.C.C.-.#.#.#.+.O.) O.#.@.@.=.N.m.%.' ] / n u u s W W R             ",
"                  F.# # $ g h h L m.m.n.m.m.m.m.m.m.m.m.m.m.M.:.S.%.h h h 8 # # M                   ",
"                  F.# # $ g h h L m.m.m.m.m.m.m.m.m.m.m.m.m.-.Z.:.%.V h h 6 # + j                   ",
"                  H.= = 7 s h g K n.I n.n.m.n.m.n.n.m.n.n.n.%.-.-.$.g g g q = = A                   ",
"                          w % % - 8 8 q h C C C C C C C C C p 9 9 9 = = = F.                        ",
"                          w # O O O O % g h h h h h h h h h 8 O O O @ O @                           ",
"                          w + O O O + $ g h h h h h N h N h 8 O O O @ # #                           ",
"                          V.R R R R R W u 0 0 0 u u 0 u 0 0 A R R R R R R                           ",
"                                        7 O @ @ @ # # # # #                                         ",
"                                        7 # @ O @ @ # @ O #                                         ",
"                                        j ; ; ; ; ; ; ; ; 7 I.                                      ",
"                                          '.'.'.'.'.'.'.'.                                          ",
"                                                                                                    "
};
